<svg width="223" height="58" viewBox="0 0 223 58" fill="none" xmlns="http://www.w3.org/2000/svg">
<rect width="222" height="58" transform="translate(0.5)" fill="#11E332" fill-opacity="0.75"/>
<path d="M26.609 34.958V31.838H29.547V33.944L31.003 35.4H34.799L36.125 34.1V19.8H39.141V35.114L36.255 38H29.651L26.609 34.958ZM42.2679 35.4V27.652L44.8419 25.052H52.0179L54.6179 27.652V35.4L52.0179 38H44.8419L42.2679 35.4ZM50.6399 35.53L51.6799 34.49V28.562L50.6399 27.522H46.2459L45.2059 28.562V34.49L46.2459 35.53H50.6399ZM57.6069 22.27V20.762L58.6729 19.722H60.2589L61.3249 20.762V22.27L60.2589 23.31H58.6729L57.6069 22.27ZM57.9969 25.052H60.9349V38H57.9969V25.052ZM64.567 25.052H67.297V27.418L69.663 25.052H73.771L76.501 27.782V38H73.563V28.588L72.549 27.574H70.209L67.505 30.304V38H64.567V25.052ZM87.7506 35.426V27.548H85.4106V25.052H87.8026V20.84H90.6886V25.052H94.6666V27.548H90.6886V34.49L91.7026 35.504H94.6666V38H90.3246L87.7506 35.426ZM97.1431 19.436H100.081V27.288L102.317 25.052H106.399L109.129 27.782V38H106.191V28.588L105.177 27.574H102.785L100.081 30.304V38H97.1431V19.436ZM112.118 35.426V27.652L114.692 25.052H121.738L124.364 27.652V32.488H115.056V34.568L116.044 35.556H120.49L121.426 34.594V33.814H124.338V35.478L121.816 38H114.666L112.118 35.426ZM121.426 30.33V28.536L120.412 27.496H116.07L115.056 28.536V30.33H121.426ZM138.478 22.374H133.018V19.8H146.954V22.374H141.494V38H138.478V22.374ZM146.573 35.426V27.652L149.147 25.052H156.193L158.819 27.652V32.488H149.511V34.568L150.499 35.556H154.945L155.881 34.594V33.814H158.793V35.478L156.271 38H149.121L146.573 35.426ZM155.881 30.33V28.536L154.867 27.496H150.525L149.511 28.536V30.33H155.881ZM161.423 35.686V32.618L163.737 30.33H170.419V28.406L169.457 27.444H165.375L164.413 28.406V29.238H161.527V27.73L164.179 25.052H170.653L173.305 27.73V38H170.627V35.998L168.547 38H163.737L161.423 35.686ZM168.261 35.686L170.419 33.606V32.514H165.141L164.309 33.32V34.906L165.089 35.686H168.261ZM176.565 25.052H179.295V27.314L181.531 25.052H184.755L186.601 26.924L188.473 25.052H192.841L195.493 27.73V38H192.555V28.588L191.541 27.574H189.123L187.615 29.082V38H184.755V28.562L183.767 27.574H181.999L179.503 30.096V38H176.565V25.052Z" fill="#000917"/>
</svg>
