<svg width="347" height="58" viewBox="0 0 347 58" fill="none" xmlns="http://www.w3.org/2000/svg">
<rect width="347" height="58" fill="#11E332" fill-opacity="0.75"/>
<path d="M40.9215 32.124V38H37.9055V32.852L36.0335 30.798H30.1055V38H27.0895V19.8H38.1655L40.8175 22.478V28.068L38.9195 29.966L40.9215 32.124ZM30.1055 28.302H36.8135L37.8535 27.262V23.388L36.8135 22.348H30.1055V28.302ZM44.0413 35.426V27.652L46.6153 25.052H53.6613L56.2873 27.652V32.488H46.9793V34.568L47.9673 35.556H52.4133L53.3493 34.594V33.814H56.2613V35.478L53.7393 38H46.5893L44.0413 35.426ZM53.3493 30.33V28.536L52.3353 27.496H47.9933L46.9793 28.536V30.33H53.3493ZM71.3718 25.052V41.068L68.6938 43.72H61.8558L59.5938 41.458V39.742H62.5058V40.6L63.1558 41.25H67.4198L68.4338 40.21V36.154L66.4318 38H61.5958L59.0218 35.4V27.652L61.5958 25.052H66.6398L68.6158 26.976V25.052H71.3718ZM68.4338 29.524L66.3538 27.574H63.0518L61.9598 28.666V34.386L63.0518 35.478H66.1198L68.4338 33.216V29.524ZM74.6147 22.27V20.762L75.6807 19.722H77.2667L78.3327 20.762V22.27L77.2667 23.31H75.6807L74.6147 22.27ZM75.0047 25.052H77.9427V38H75.0047V25.052ZM80.9248 35.582V33.996H83.8108V34.828L84.5388 35.582H88.9588L89.6868 34.828V33.424L88.9328 32.67H83.3428L81.0288 30.33V27.418L83.3948 25.052H89.9208L92.3128 27.47V29.056H89.4268V28.224L88.6988 27.47H84.6428L83.9148 28.224V29.524L84.6688 30.278H90.2328L92.5728 32.644V35.634L90.2068 38H83.3168L80.9248 35.582ZM96.4811 35.426V27.548H94.1411V25.052H96.5331V20.84H99.4191V25.052H103.397V27.548H99.4191V34.49L100.433 35.504H103.397V38H99.0551L96.4811 35.426ZM105.233 35.426V27.652L107.807 25.052H114.853L117.479 27.652V32.488H108.171V34.568L109.159 35.556H113.605L114.541 34.594V33.814H117.453V35.478L114.931 38H107.781L105.233 35.426ZM114.541 30.33V28.536L113.527 27.496H109.185L108.171 28.536V30.33H114.541ZM120.473 25.052H123.203V27.262L125.361 25.052H128.949V27.574H126.011L123.411 30.226V38H120.473V25.052ZM142.913 19.8H145.773L152.351 38H149.283L147.723 33.684H140.937L139.377 38H136.309L142.913 19.8ZM147.021 31.162L144.343 23.466H144.291L141.665 31.162H147.021ZM153.644 35.582V33.996H156.53V34.828L157.258 35.582H161.678L162.406 34.828V33.424L161.652 32.67H156.062L153.748 30.33V27.418L156.114 25.052H162.64L165.032 27.47V29.056H162.146V28.224L161.418 27.47H157.362L156.634 28.224V29.524L157.388 30.278H162.952L165.292 32.644V35.634L162.926 38H156.036L153.644 35.582ZM179.15 22.374H173.69V19.8H187.626V22.374H182.166V38H179.15V22.374ZM187.244 35.426V27.652L189.818 25.052H196.864L199.49 27.652V32.488H190.182V34.568L191.17 35.556H195.616L196.552 34.594V33.814H199.464V35.478L196.942 38H189.792L187.244 35.426ZM196.552 30.33V28.536L195.538 27.496H191.196L190.182 28.536V30.33H196.552ZM202.095 35.686V32.618L204.409 30.33H211.091V28.406L210.129 27.444H206.047L205.085 28.406V29.238H202.199V27.73L204.851 25.052H211.325L213.977 27.73V38H211.299V35.998L209.219 38H204.409L202.095 35.686ZM208.933 35.686L211.091 33.606V32.514H205.813L204.981 33.32V34.906L205.761 35.686H208.933ZM217.237 25.052H219.967V27.314L222.203 25.052H225.427L227.273 26.924L229.145 25.052H233.513L236.165 27.73V38H233.227V28.588L232.213 27.574H229.795L228.287 29.082V38H225.427V28.562L224.439 27.574H222.671L220.175 30.096V38H217.237V25.052ZM246.363 19.436H249.301V38H246.363V19.436ZM252.549 35.426V27.652L255.123 25.052H262.169L264.795 27.652V32.488H255.487V34.568L256.475 35.556H260.921L261.857 34.594V33.814H264.769V35.478L262.247 38H255.097L252.549 35.426ZM261.857 30.33V28.536L260.843 27.496H256.501L255.487 28.536V30.33H261.857ZM267.4 35.686V32.618L269.714 30.33H276.396V28.406L275.434 27.444H271.352L270.39 28.406V29.238H267.504V27.73L270.156 25.052H276.63L279.282 27.73V38H276.604V35.998L274.524 38H269.714L267.4 35.686ZM274.238 35.686L276.396 33.606V32.514H271.118L270.286 33.32V34.906L271.066 35.686H274.238ZM282.282 35.4V27.652L284.856 25.052H289.952L291.694 26.56V19.436H294.632V38H291.85V35.868L289.718 38H284.856L282.282 35.4ZM289.38 35.478L291.694 33.138V29.342L289.692 27.574H286.312L285.22 28.666V34.386L286.312 35.478H289.38ZM297.744 35.426V27.652L300.318 25.052H307.364L309.99 27.652V32.488H300.682V34.568L301.67 35.556H306.116L307.052 34.594V33.814H309.964V35.478L307.442 38H300.292L297.744 35.426ZM307.052 30.33V28.536L306.038 27.496H301.696L300.682 28.536V30.33H307.052ZM312.985 25.052H315.715V27.262L317.873 25.052H321.461V27.574H318.523L315.923 30.226V38H312.985V25.052Z" fill="#000917"/>
</svg>
