<svg width="222" height="62" viewBox="0 0 222 62" fill="none" xmlns="http://www.w3.org/2000/svg">
<g filter="url(#filter0_b_453_207)">
<g filter="url(#filter1_b_453_207)">
<path d="M10.2437 61.9999L0 46.7384V0H10.2437L222 0.0001297V15.4022L219.439 21.3126V44.5625L222 46.5V62L10.2437 61.9999Z" fill="#E8FFFD"/>
</g>
<g filter="url(#filter2_b_453_207)">
<path d="M77.7282 20.824V25H75.2802V21.382L74.2002 20.176H70.2762V25H67.8282V12.4H75.7302L77.6562 14.344V18.16L76.4322 19.402L77.7282 20.824ZM70.2762 18.16H74.6142L75.2442 17.53V15.082L74.6142 14.452H70.2762V18.16ZM79.9747 12.4H89.0827V14.47H82.4227V17.656H88.5607V19.69H82.4227V22.93H89.0827V25H79.9747V12.4ZM90.7107 22.93V14.47L92.7807 12.4H99.0447L101.079 14.434V16.36H98.6307V15.334L97.7847 14.488H94.0767L93.1587 15.406V21.994L94.0767 22.912H97.8207L98.7027 22.03V20.068H96.0027V17.98H101.079V22.93L99.0087 25H92.7807L90.7107 22.93ZM103.145 12.4H105.593V25H103.145V12.4ZM107.759 23.056V21.256H110.171V22.318L110.765 22.912H114.491L115.103 22.3V20.212L114.509 19.618H109.739L107.795 17.674V14.344L109.739 12.4H115.427L117.371 14.344V16.162H114.959V15.082L114.365 14.488H110.801L110.207 15.082V16.936L110.801 17.53H115.571L117.515 19.474V23.02L115.535 25H109.703L107.759 23.056ZM121.895 14.47H118.133V12.4H128.105V14.47H124.343V25H121.895V14.47ZM129.545 12.4H138.653V14.47H131.993V17.656H138.131V19.69H131.993V22.93H138.653V25H129.545V12.4ZM150.361 20.824V25H147.913V21.382L146.833 20.176H142.909V25H140.461V12.4H148.363L150.289 14.344V18.16L149.065 19.402L150.361 20.824ZM142.909 18.16H147.247L147.877 17.53V15.082L147.247 14.452H142.909V18.16ZM42.0886 35.4H44.3206L48.9286 48H46.4446L45.4186 45.21H40.9906L39.9646 48H37.4806L42.0886 35.4ZM44.8786 43.194L43.2046 38.406H43.1686L41.5486 43.194H44.8786ZM49.6637 46.056V44.256H52.0757V45.318L52.6697 45.912H56.3957L57.0077 45.3V43.212L56.4137 42.618H51.6437L49.6997 40.674V37.344L51.6437 35.4H57.3317L59.2757 37.344V39.162H56.8637V38.082L56.2697 37.488H52.7057L52.1117 38.082V39.936L52.7057 40.53H57.4757L59.4197 42.474V46.02L57.4397 48H51.6077L49.6637 46.056ZM69.1609 37.47H65.3989V35.4H75.3709V37.47H71.6089V48H69.1609V37.47ZM76.8106 35.4H85.9186V37.47H79.2586V40.656H85.3966V42.69H79.2586V45.93H85.9186V48H76.8106V35.4ZM91.2546 35.4H93.4866L98.0946 48H95.6106L94.5846 45.21H90.1566L89.1306 48H86.6466L91.2546 35.4ZM94.0446 43.194L92.3706 38.406H92.3346L90.7146 43.194H94.0446ZM99.3634 35.4H101.631L105.375 43.536H105.411L109.173 35.4H111.441V48H109.083V40.332H109.047L106.149 46.236H104.637L101.757 40.332H101.721V48H99.3634V35.4ZM118.682 35.4H121.13V45.93H127.43V48H118.682V35.4ZM128.772 35.4H137.88V37.47H131.22V40.656H137.358V42.69H131.22V45.93H137.88V48H128.772V35.4ZM143.216 35.4H145.448L150.056 48H147.572L146.546 45.21H142.118L141.092 48H138.608L143.216 35.4ZM146.006 43.194L144.332 38.406H144.296L142.676 43.194H146.006ZM151.324 35.4H159.388L161.548 37.56V45.84L159.388 48H151.324V35.4ZM158.182 45.912L159.1 44.994V38.406L158.182 37.488H153.772V45.912H158.182ZM163.717 35.4H172.825V37.47H166.165V40.656H172.303V42.69H166.165V45.93H172.825V48H163.717V35.4ZM184.533 43.824V48H182.085V44.382L181.005 43.176H177.081V48H174.633V35.4H182.535L184.461 37.344V41.16L183.237 42.402L184.533 43.824ZM177.081 41.16H181.419L182.049 40.53V38.082L181.419 37.452H177.081V41.16Z" fill="black"/>
</g>
</g>
<defs>
<filter id="filter0_b_453_207" x="-4" y="-4" width="230" height="70" filterUnits="userSpaceOnUse" color-interpolation-filters="sRGB">
<feFlood flood-opacity="0" result="BackgroundImageFix"/>
<feGaussianBlur in="BackgroundImageFix" stdDeviation="2"/>
<feComposite in2="SourceAlpha" operator="in" result="effect1_backgroundBlur_453_207"/>
<feBlend mode="normal" in="SourceGraphic" in2="effect1_backgroundBlur_453_207" result="shape"/>
</filter>
<filter id="filter1_b_453_207" x="-4" y="-4" width="230" height="70" filterUnits="userSpaceOnUse" color-interpolation-filters="sRGB">
<feFlood flood-opacity="0" result="BackgroundImageFix"/>
<feGaussianBlur in="BackgroundImageFix" stdDeviation="2"/>
<feComposite in2="SourceAlpha" operator="in" result="effect1_backgroundBlur_453_207"/>
<feBlend mode="normal" in="SourceGraphic" in2="effect1_backgroundBlur_453_207" result="shape"/>
</filter>
<filter id="filter2_b_453_207" x="33.4805" y="8.3999" width="155.052" height="43.6001" filterUnits="userSpaceOnUse" color-interpolation-filters="sRGB">
<feFlood flood-opacity="0" result="BackgroundImageFix"/>
<feGaussianBlur in="BackgroundImageFix" stdDeviation="2"/>
<feComposite in2="SourceAlpha" operator="in" result="effect1_backgroundBlur_453_207"/>
<feBlend mode="normal" in="SourceGraphic" in2="effect1_backgroundBlur_453_207" result="shape"/>
</filter>
</defs>
</svg>
