<svg width="222" height="64" viewBox="0 0 222 64" fill="none" xmlns="http://www.w3.org/2000/svg">
<g filter="url(#filter0_b_453_211)">
<g filter="url(#filter1_b_453_211)">
<path d="M211.756 63.1068L222 47.5728V-0.000209808H211.756L0 -8.39233e-05V15.677L2.56093 21.693V45.3581L0 47.3302V63.1069L211.756 63.1068Z" fill="#0D5319"/>
</g>
<path d="M77.7282 20.824V25H75.2802V21.382L74.2002 20.176H70.2762V25H67.8282V12.4H75.7302L77.6562 14.344V18.16L76.4322 19.402L77.7282 20.824ZM70.2762 18.16H74.6142L75.2442 17.53V15.082L74.6142 14.452H70.2762V18.16ZM79.9747 12.4H89.0827V14.47H82.4227V17.656H88.5607V19.69H82.4227V22.93H89.0827V25H79.9747V12.4ZM90.7107 22.93V14.47L92.7807 12.4H99.0447L101.079 14.434V16.36H98.6307V15.334L97.7847 14.488H94.0767L93.1587 15.406V21.994L94.0767 22.912H97.8207L98.7027 22.03V20.068H96.0027V17.98H101.079V22.93L99.0087 25H92.7807L90.7107 22.93ZM103.145 12.4H105.593V25H103.145V12.4ZM107.759 23.056V21.256H110.171V22.318L110.765 22.912H114.491L115.103 22.3V20.212L114.509 19.618H109.739L107.795 17.674V14.344L109.739 12.4H115.427L117.371 14.344V16.162H114.959V15.082L114.365 14.488H110.801L110.207 15.082V16.936L110.801 17.53H115.571L117.515 19.474V23.02L115.535 25H109.703L107.759 23.056ZM121.895 14.47H118.133V12.4H128.105V14.47H124.343V25H121.895V14.47ZM129.545 12.4H138.653V14.47H131.993V17.656H138.131V19.69H131.993V22.93H138.653V25H129.545V12.4ZM150.361 20.824V25H147.913V21.382L146.833 20.176H142.909V25H140.461V12.4H148.363L150.289 14.344V18.16L149.065 19.402L150.361 20.824ZM142.909 18.16H147.247L147.877 17.53V15.082L147.247 14.452H142.909V18.16ZM38.7048 35.4H40.9368L45.5448 48H43.0608L42.0348 45.21H37.6068L36.5808 48H34.0968L38.7048 35.4ZM41.4948 43.194L39.8208 38.406H39.7848L38.1648 43.194H41.4948ZM46.2799 46.056V44.256H48.6919V45.318L49.2859 45.912H53.0119L53.6239 45.3V43.212L53.0299 42.618H48.2599L46.3159 40.674V37.344L48.2599 35.4H53.9479L55.8919 37.344V39.162H53.4799V38.082L52.8859 37.488H49.3219L48.7279 38.082V39.936L49.3219 40.53H54.0919L56.0359 42.474V46.02L54.0559 48H48.2239L46.2799 46.056ZM65.7771 37.47H62.0151V35.4H71.9871V37.47H68.2251V48H65.7771V37.47ZM73.4268 35.4H82.5348V37.47H75.8748V40.656H82.0128V42.69H75.8748V45.93H82.5348V48H73.4268V35.4ZM87.8709 35.4H90.1029L94.7109 48H92.2269L91.2009 45.21H86.7729L85.7469 48H83.2629L87.8709 35.4ZM90.6609 43.194L88.9869 38.406H88.9509L87.3309 43.194H90.6609ZM95.9796 35.4H98.2476L101.992 43.536H102.028L105.79 35.4H108.058V48H105.7V40.332H105.664L102.766 46.236H101.254L98.3736 40.332H98.3376V48H95.9796V35.4ZM115.298 35.4H117.566L121.31 43.536H121.346L125.108 35.4H127.376V48H125.018V40.332H124.982L122.084 46.236H120.572L117.692 40.332H117.656V48H115.298V35.4ZM129.712 35.4H138.82V37.47H132.16V40.656H138.298V42.69H132.16V45.93H138.82V48H129.712V35.4ZM140.628 35.4H142.896L146.64 43.536H146.676L150.438 35.4H152.706V48H150.348V40.332H150.312L147.414 46.236H145.902L143.022 40.332H142.986V48H140.628V35.4ZM155.042 35.4H162.944L164.744 37.2V40.728L164.024 41.466L165.302 42.762V46.056L163.358 48H155.042V35.4ZM161.684 40.674L162.332 40.026V38.082L161.702 37.452H157.436V40.674H161.684ZM162.116 45.948L162.89 45.174V43.41L162.116 42.636H157.436V45.948H162.116ZM167.101 35.4H176.209V37.47H169.549V40.656H175.687V42.69H169.549V45.93H176.209V48H167.101V35.4ZM187.917 43.824V48H185.469V44.382L184.389 43.176H180.465V48H178.017V35.4H185.919L187.845 37.344V41.16L186.621 42.402L187.917 43.824ZM180.465 41.16H184.803L185.433 40.53V38.082L184.803 37.452H180.465V41.16Z" fill="white"/>
</g>
<defs>
<filter id="filter0_b_453_211" x="-4" y="-4" width="230" height="71.1069" filterUnits="userSpaceOnUse" color-interpolation-filters="sRGB">
<feFlood flood-opacity="0" result="BackgroundImageFix"/>
<feGaussianBlur in="BackgroundImageFix" stdDeviation="2"/>
<feComposite in2="SourceAlpha" operator="in" result="effect1_backgroundBlur_453_211"/>
<feBlend mode="normal" in="SourceGraphic" in2="effect1_backgroundBlur_453_211" result="shape"/>
</filter>
<filter id="filter1_b_453_211" x="-4" y="-4" width="230" height="71.1069" filterUnits="userSpaceOnUse" color-interpolation-filters="sRGB">
<feFlood flood-opacity="0" result="BackgroundImageFix"/>
<feGaussianBlur in="BackgroundImageFix" stdDeviation="2"/>
<feComposite in2="SourceAlpha" operator="in" result="effect1_backgroundBlur_453_211"/>
<feBlend mode="normal" in="SourceGraphic" in2="effect1_backgroundBlur_453_211" result="shape"/>
</filter>
</defs>
</svg>
