<svg width="644" height="297" viewBox="0 0 644 297" fill="none" xmlns="http://www.w3.org/2000/svg">
<g style="mix-blend-mode:plus-lighter">
<path d="M662.224 148.5C662.224 168.753 653.064 188.105 636.385 205.77C619.701 223.439 595.524 239.387 565.589 252.797C505.72 279.616 422.958 296.224 331.5 296.224C240.042 296.224 157.28 279.616 97.4115 252.797C67.4763 239.387 43.2988 223.439 26.6154 205.77C9.93592 188.105 0.776366 168.753 0.776366 148.5C0.776366 128.247 9.93592 108.895 26.6154 91.2301C43.2988 73.5606 67.4763 57.613 97.4115 44.2032C157.28 17.3842 240.042 0.776366 331.5 0.776366C422.958 0.776366 505.72 17.3842 565.589 44.2032C595.524 57.613 619.701 73.5606 636.385 91.2301C653.064 108.895 662.224 128.247 662.224 148.5Z" stroke="url(#paint0_linear_54_40)" stroke-width="1.55273"/>
<path d="M569.76 201.179C569.76 212.541 564.198 223.461 553.94 233.494C543.679 243.531 528.776 252.618 510.278 260.271C473.286 275.576 422.109 285.066 365.528 285.066C308.947 285.066 257.771 275.576 220.779 260.271C202.28 252.618 187.378 243.531 177.116 233.494C166.858 223.461 161.297 212.541 161.297 201.179C161.297 189.817 166.858 178.897 177.116 168.863C187.378 158.826 202.28 149.74 220.779 142.086C257.771 126.782 308.947 117.292 365.528 117.292C422.109 117.292 473.286 126.782 510.278 142.086C528.776 149.74 543.679 158.826 553.94 168.863C564.198 178.897 569.76 189.817 569.76 201.179Z" fill="url(#paint1_radial_54_40)" stroke="url(#paint2_linear_54_40)" stroke-width="2.07031"/>
<ellipse cx="365.024" cy="230.242" rx="100.879" ry="45.1901" fill="url(#paint3_radial_54_40)" fill-opacity="0.6"/>
<g filter="url(#filter0_d_54_40)">
<path fill-rule="evenodd" clip-rule="evenodd" d="M365.533 275.432C435.943 275.314 492.937 250.8 492.937 220.577C492.937 190.281 435.668 165.722 365.023 165.722C294.379 165.722 237.11 190.281 237.11 220.577C237.11 250.8 294.105 275.315 364.517 275.432C309.036 275.31 264.145 255.124 264.145 230.242C264.145 205.285 309.31 185.052 365.024 185.052C420.738 185.052 465.903 205.285 465.903 230.242C465.903 255.124 421.012 275.309 365.533 275.432Z" fill="url(#paint4_radial_54_40)" fill-opacity="0.6" shape-rendering="crispEdges"/>
</g>
<g filter="url(#filter1_d_54_40)">
<path fill-rule="evenodd" clip-rule="evenodd" d="M365.024 280.323C465.932 280.323 547.735 243.678 547.735 198.475C547.735 153.272 465.932 116.627 365.024 116.627C264.115 116.627 182.312 153.272 182.312 198.475C182.312 243.678 264.115 280.323 365.024 280.323ZM365.023 275.432C435.668 275.432 492.937 250.872 492.937 220.576C492.937 190.281 435.668 165.721 365.023 165.721C294.379 165.721 237.11 190.281 237.11 220.576C237.11 250.872 294.379 275.432 365.023 275.432Z" fill="url(#paint5_radial_54_40)" shape-rendering="crispEdges"/>
</g>
<path fill-rule="evenodd" clip-rule="evenodd" d="M365.784 273.222C411.108 273.04 447.724 256.524 447.724 236.177C447.724 215.717 410.698 199.13 365.024 199.13C319.349 199.13 282.323 215.717 282.323 236.177C282.323 256.525 318.942 273.041 364.269 273.222C328.523 273.041 299.671 260.004 299.671 243.948C299.671 227.78 328.931 214.672 365.024 214.672C401.118 214.672 430.378 227.78 430.378 243.948C430.378 260.003 401.528 273.04 365.784 273.222Z" fill="url(#paint6_radial_54_40)"/>
<path d="M502.7 215.849C502.7 224.195 498.927 232.194 492.007 239.523C485.084 246.856 475.035 253.489 462.569 259.073C437.638 270.241 403.152 277.165 365.024 277.165C326.897 277.165 292.41 270.241 267.48 259.073C255.014 253.489 244.965 246.856 238.042 239.523C231.122 232.194 227.348 224.195 227.348 215.849C227.348 207.502 231.122 199.503 238.042 192.174C244.965 184.841 255.014 178.208 267.48 172.624C292.41 161.456 326.897 154.532 365.024 154.532C403.152 154.532 437.638 161.456 462.569 172.624C475.035 178.208 485.084 184.841 492.007 192.174C498.927 199.503 502.7 207.502 502.7 215.849Z" stroke="url(#paint7_linear_54_40)" stroke-width="1.29394"/>
<rect width="1.24303" height="1.24303" transform="matrix(0.78139 0.624043 -0.78139 0.624043 206.24 214.295)" fill="#00FFF0"/>
<rect width="2.51374" height="2.51374" transform="matrix(0.781411 0.624017 -0.781411 0.624017 220.845 236.169)" fill="#00FFF0"/>
<rect width="1.16817" height="1.16817" transform="matrix(-0.781411 -0.624017 -0.781411 0.624017 271.679 237.738)" fill="#00FFF0"/>
<rect width="1.24304" height="1.24304" transform="matrix(0.781411 0.624017 -0.781411 0.624017 250.343 257.283)" fill="#00FFF0"/>
<rect width="1.24305" height="1.24305" transform="matrix(0.781432 0.623991 -0.781432 0.623991 175.948 211.693)" fill="#00FFF0"/>
<rect width="1.24305" height="1.24305" transform="matrix(0.781432 0.623991 -0.781432 0.623991 183.287 174.722)" fill="#00FFF0" fill-opacity="0.5"/>
<rect width="0.868756" height="0.868756" transform="matrix(0.781411 0.624017 -0.781411 0.624017 204.295 196.304)" fill="#00FFF0" fill-opacity="0.5"/>
<rect width="1.62082" height="1.62082" transform="matrix(0.781411 0.624017 -0.781411 0.624017 192.584 192.47)" fill="#00FFF0" fill-opacity="0.5"/>
</g>
<defs>
<filter id="filter0_d_54_40" x="234.522" y="157.958" width="271.354" height="125.237" filterUnits="userSpaceOnUse" color-interpolation-filters="sRGB">
<feFlood flood-opacity="0" result="BackgroundImageFix"/>
<feColorMatrix in="SourceAlpha" type="matrix" values="0 0 0 0 0 0 0 0 0 0 0 0 0 0 0 0 0 0 127 0" result="hardAlpha"/>
<feOffset dx="5.17577"/>
<feGaussianBlur stdDeviation="3.88183"/>
<feComposite in2="hardAlpha" operator="out"/>
<feColorMatrix type="matrix" values="0 0 0 0 0.119531 0 0 0 0 0.163828 0 0 0 0 0.5625 0 0 0 0.1 0"/>
<feBlend mode="normal" in2="BackgroundImageFix" result="effect1_dropShadow_54_40"/>
<feBlend mode="normal" in="SourceGraphic" in2="effect1_dropShadow_54_40" result="shape"/>
</filter>
<filter id="filter1_d_54_40" x="179.725" y="108.346" width="380.95" height="179.224" filterUnits="userSpaceOnUse" color-interpolation-filters="sRGB">
<feFlood flood-opacity="0" result="BackgroundImageFix"/>
<feColorMatrix in="SourceAlpha" type="matrix" values="0 0 0 0 0 0 0 0 0 0 0 0 0 0 0 0 0 0 127 0" result="hardAlpha"/>
<feOffset dx="5.17577" dy="-0.517577"/>
<feGaussianBlur stdDeviation="3.88183"/>
<feComposite in2="hardAlpha" operator="out"/>
<feColorMatrix type="matrix" values="0 0 0 0 0.119531 0 0 0 0 0.163828 0 0 0 0 0.5625 0 0 0 0.1 0"/>
<feBlend mode="normal" in2="BackgroundImageFix" result="effect1_dropShadow_54_40"/>
<feBlend mode="normal" in="SourceGraphic" in2="effect1_dropShadow_54_40" result="shape"/>
</filter>
<linearGradient id="paint0_linear_54_40" x1="209.534" y1="399.953" x2="265.877" y2="59.1019" gradientUnits="userSpaceOnUse">
<stop stop-color="white"/>
<stop offset="0.508554" stop-color="#30FFFF"/>
<stop offset="1" stop-color="white" stop-opacity="0"/>
</linearGradient>
<radialGradient id="paint1_radial_54_40" cx="0" cy="0" r="1" gradientUnits="userSpaceOnUse" gradientTransform="translate(166.836 279.381) rotate(-36.4097) scale(191.686 326.467)">
<stop stop-color="white"/>
<stop offset="0.462474" stop-color="#3A45AA"/>
<stop offset="1" stop-color="#3A45AA" stop-opacity="0"/>
</radialGradient>
<linearGradient id="paint2_linear_54_40" x1="261.094" y1="282.786" x2="324.035" y2="137.858" gradientUnits="userSpaceOnUse">
<stop stop-color="white"/>
<stop offset="0.442828" stop-color="#30FFFF"/>
<stop offset="1" stop-color="white" stop-opacity="0"/>
</linearGradient>
<radialGradient id="paint3_radial_54_40" cx="0" cy="0" r="1" gradientUnits="userSpaceOnUse" gradientTransform="translate(417.534 188.772) rotate(147.404) scale(135.947 225.442)">
<stop offset="0.39201" stop-color="#1B29A4" stop-opacity="0"/>
<stop offset="0.841913" stop-color="#2938BB" stop-opacity="0.5"/>
<stop offset="1" stop-color="#172075" stop-opacity="0.5"/>
</radialGradient>
<radialGradient id="paint4_radial_54_40" cx="0" cy="0" r="1" gradientUnits="userSpaceOnUse" gradientTransform="translate(431.606 170.237) rotate(147.641) scale(189.17 310.32)">
<stop offset="0.39201" stop-color="#6675FF" stop-opacity="0"/>
<stop offset="0.841913" stop-color="#6675FF" stop-opacity="0.5"/>
<stop offset="1" stop-color="#192059" stop-opacity="0"/>
</radialGradient>
<radialGradient id="paint5_radial_54_40" cx="0" cy="0" r="1" gradientUnits="userSpaceOnUse" gradientTransform="translate(460.13 123.365) rotate(146.501) scale(273.715 457.093)">
<stop offset="0.39201" stop-color="#6675FF" stop-opacity="0"/>
<stop offset="0.841913" stop-color="#6675FF" stop-opacity="0.5"/>
<stop offset="1" stop-color="#DBDEFF" stop-opacity="0"/>
</radialGradient>
<radialGradient id="paint6_radial_54_40" cx="0" cy="0" r="1" gradientUnits="userSpaceOnUse" gradientTransform="translate(408.071 202.18) rotate(147.404) scale(111.449 184.815)">
<stop offset="0.39201" stop-color="#17217A" stop-opacity="0"/>
<stop offset="0.841913" stop-color="#1A2374" stop-opacity="0.5"/>
<stop offset="1" stop-color="#151E6C" stop-opacity="0.5"/>
</radialGradient>
<linearGradient id="paint7_linear_54_40" x1="294.649" y1="275.393" x2="333.371" y2="146.06" gradientUnits="userSpaceOnUse">
<stop stop-color="white"/>
<stop offset="0.508554" stop-color="#30FFFF"/>
<stop offset="1" stop-color="white" stop-opacity="0"/>
</linearGradient>
</defs>
</svg>
