<svg width="204" height="29" viewBox="0 0 204 29" fill="none" xmlns="http://www.w3.org/2000/svg">
<g clip-path="url(#clip0_87_55)">
<path d="M12.44 16.24C12.58 16.56 12.74 16.82 13.14 16.82V17H10.08V16.82C10.42 16.82 10.66 16.62 10.5 16.28L8.7 12C5.52 12.46 6.54 17.2 2.96 17.2C0.84 17.2 0.2 15.24 0.9 13.72L5.3 4.16C5.54 3.66 5.36 3.24 4.94 3.24V3.02H6.74L12.44 16.24ZM2.98 16.88C6.24 16.88 5.34 12.2 8.56 11.7L5.52 4.46L1.32 13.6C0.68 14.98 1.08 16.88 2.98 16.88ZM20.5391 9.7C25.2391 9.7 25.8791 17 19.2191 17H13.6391V16.82C13.9791 16.82 14.1391 16.54 14.1391 16.24V3.82C14.1391 3.5 13.9591 3.26 13.6391 3.26V3.04H19.0191C25.1791 3.04 24.8391 9.7 20.5391 9.7ZM15.9791 3.36V6.92C16.5591 8.6 17.7391 9.6 19.4191 9.6C22.7791 9.6 22.8791 3.36 18.4191 3.36H15.9791ZM19.4391 16.7C23.1591 16.7 23.3391 9.94 19.2591 9.94C18.4391 9.94 16.4991 9.32 15.9791 7.46V16.7H19.4391ZM32.0002 2.84C41.2002 2.84 41.2002 17.22 32.0002 17.22C22.8002 17.22 22.7802 2.84 32.0002 2.84ZM35.8802 15.7C41.7202 11.5 33.8402 0.239999 28.1202 4.38C22.3002 8.58 30.0002 19.96 35.8802 15.7ZM48.4272 3.26V3.06H51.2872V3.26C50.6072 3.26 50.0072 3.58 50.0072 4.32V11.84C50.0072 19.38 40.3472 18.64 40.3472 11.94V3.82C40.3472 3.5 40.1672 3.26 39.8472 3.26V3.04H42.7072V3.26C42.3872 3.26 42.2072 3.52 42.2072 3.82V12.6C42.2072 18.4 49.7072 18.44 49.7072 11.84V4.32C49.7072 3.6 49.1272 3.26 48.4272 3.26ZM62.2366 3.04L62.4166 4.96H62.2166C62.0366 4.02 61.6166 3.36 60.5766 3.36H57.8366V16.24C57.8366 16.34 57.8566 16.44 57.8966 16.52C57.9366 16.6 57.9966 16.66 58.0566 16.72C58.1166 16.78 58.2166 16.82 58.3566 16.82V17H55.4966V16.82C55.6166 16.82 55.7166 16.78 55.7966 16.72C55.8566 16.66 55.8966 16.6 55.9366 16.52C55.9766 16.44 55.9966 16.34 55.9966 16.24V3.36H53.2766C52.2566 3.36 51.7966 4 51.6166 4.96H51.4166L51.5966 3.04H62.2366ZM79.2128 15.12H79.4328L79.2328 17H69.7328V16.82C70.0728 16.82 70.2328 16.54 70.2328 16.24V3.82C70.2328 3.5 70.0528 3.26 69.7328 3.26V3.06H78.4728L78.6728 4.96H78.4528C78.2928 4 77.8328 3.36 76.8128 3.36H72.0928V9.62H73.5928C74.3328 9.56 74.6528 9.02 74.6528 8.34H74.8528V11.22H74.6528C74.6528 10.5 74.3128 9.98 73.5928 9.94H72.0928V16.7H77.5528C78.5728 16.7 79.0328 16.06 79.2128 15.12ZM96.7025 16.24C96.7025 16.54 96.8625 16.82 97.1825 16.82V17H94.3225V16.82C94.6625 16.82 94.8425 16.54 94.8425 16.24V7.96C94.8425 5.62 94.4425 3.38 92.1825 3.38C91.5025 3.38 90.0425 4 89.3625 5.7C89.5425 6.36 89.6025 7.08 89.6025 7.8V16.24C89.6025 16.54 89.7825 16.82 90.1025 16.82V17H87.2425V16.82C87.5825 16.82 87.7425 16.54 87.7425 16.24V7.96C87.7425 5.62 87.3425 3.38 85.0825 3.38C84.5025 3.38 83.2825 3.8 82.5225 5.06V16.24C82.5225 16.54 82.7025 16.82 83.0225 16.82V17H80.1625V16.82C80.5025 16.82 80.6625 16.54 80.6625 16.24V3.82C80.6625 3.5 80.4825 3.26 80.1625 3.26V3.04H83.0225V3.26C82.7025 3.26 82.5225 3.52 82.5225 3.82V4.68C83.2625 3.6 84.4625 2.9 85.6025 2.9C87.7225 2.9 88.7625 3.96 89.2425 5.34C89.8825 3.9 91.3225 2.9 92.6825 2.9C96.0025 2.9 96.6825 5.44 96.7025 7.8V16.24ZM107.807 15.12H108.027L107.827 17H98.3266V16.82C98.6666 16.82 98.8266 16.54 98.8266 16.24V3.82C98.8266 3.5 98.6466 3.26 98.3266 3.26V3.06H107.067L107.267 4.96H107.047C106.887 4 106.427 3.36 105.407 3.36H100.687V9.62H102.187C102.927 9.56 103.247 9.02 103.247 8.34H103.447V11.22H103.247C103.247 10.5 102.907 9.98 102.187 9.94H100.687V16.7H106.147C107.167 16.7 107.627 16.06 107.807 15.12ZM118.996 16.24C119.136 16.5 119.516 16.82 119.836 16.82V17H116.736V16.82C117.076 16.82 117.056 16.5 116.916 16.24L114.316 11.36C114.156 11.38 113.996 11.38 113.816 11.38H111.096L111.116 16.24C111.116 16.34 111.136 16.44 111.176 16.52C111.196 16.6 111.256 16.66 111.336 16.72C111.396 16.78 111.496 16.82 111.616 16.82V17H108.756V16.82C108.876 16.82 108.976 16.78 109.056 16.72C109.136 16.66 109.176 16.6 109.196 16.52C109.236 16.44 109.256 16.34 109.256 16.24V3.82C109.256 3.72 109.236 3.62 109.196 3.54C109.176 3.48 109.136 3.42 109.056 3.36C108.976 3.3 108.876 3.26 108.756 3.26V3.04H114.116C119.356 3.04 120.656 9.38 116.176 11C116.176 11.02 116.196 11.04 116.196 11.04L118.996 16.24ZM113.656 11.06C118.216 11.06 118.096 3.36 113.356 3.36H111.096V11.06H113.656ZM131.893 16.24C132.033 16.56 132.193 16.82 132.593 16.82V17H129.533V16.82C129.873 16.82 130.113 16.62 129.953 16.28L128.153 12C124.973 12.46 125.993 17.2 122.413 17.2C120.293 17.2 119.653 15.24 120.353 13.72L124.753 4.16C124.993 3.66 124.813 3.24 124.393 3.24V3.02H126.193L131.893 16.24ZM122.433 16.88C125.693 16.88 124.793 12.2 128.013 11.7L124.973 4.46L120.773 13.6C120.133 14.98 120.533 16.88 122.433 16.88ZM142.572 15.12H142.792L142.592 17H133.092V16.82C133.432 16.82 133.592 16.54 133.592 16.24V3.84C133.592 3.5 133.432 3.26 133.092 3.26V3.06H135.952V3.26C135.612 3.26 135.452 3.54 135.452 3.84V16.72H140.912C141.932 16.72 142.392 16.06 142.572 15.12ZM147.786 3.04C157.346 3.04 157.426 17 147.786 17H143.346V16.82C143.466 16.82 143.566 16.78 143.646 16.72C143.726 16.66 143.766 16.6 143.786 16.52C143.826 16.44 143.846 16.34 143.846 16.24V3.82C143.846 3.72 143.826 3.62 143.786 3.54C143.766 3.48 143.726 3.42 143.646 3.36C143.566 3.3 143.466 3.26 143.346 3.26V3.04H147.786ZM147.486 16.7C154.926 16.7 154.886 3.36 147.486 3.36H145.686L145.706 16.7H147.486ZM175.98 11.6L176.28 11.62C175.7 14.62 173.44 17.22 169.52 17.22C160.3 17.22 160.3 2.84 169.52 2.84C172.42 2.84 174.4 4.26 175.48 6.22H173.4C172.46 3.42 168.44 2.28 165.64 4.38C159.88 8.66 167.52 19.96 173.4 15.7C174.86 14.66 175.72 12.96 175.98 11.6ZM179.956 3.26C179.636 3.26 179.456 3.52 179.456 3.82V16.24C179.456 16.54 179.636 16.82 179.956 16.82V17H177.096V16.82C177.436 16.82 177.596 16.54 177.596 16.24V3.82C177.596 3.5 177.416 3.26 177.096 3.26V3.04H179.956V3.26ZM191.358 3.04L191.538 4.96H191.338C191.158 4.02 190.738 3.36 189.698 3.36H186.958V16.24C186.958 16.34 186.978 16.44 187.018 16.52C187.058 16.6 187.118 16.66 187.178 16.72C187.238 16.78 187.338 16.82 187.478 16.82V17H184.618V16.82C184.738 16.82 184.838 16.78 184.918 16.72C184.978 16.66 185.018 16.6 185.058 16.52C185.098 16.44 185.118 16.34 185.118 16.24V3.36H182.398C181.378 3.36 180.918 4 180.738 4.96H180.538L180.718 3.04H191.358ZM201.196 3.26V3.04H203.536V3.26C202.936 3.22 202.376 3.6 202.076 4.22L198.336 10.94V16.28C198.336 16.58 198.556 16.82 198.856 16.82V17H195.996V16.82C196.296 16.82 196.496 16.56 196.496 16.28V11.2L192.236 3.72C192.036 3.42 191.676 3.24 191.316 3.26V3.04H194.836V3.26C194.396 3.26 194.156 3.36 194.396 3.82L198.156 10.56L201.656 4.22C201.956 3.68 201.896 3.26 201.196 3.26Z" fill="url(#paint0_linear_87_55)"/>
</g>
<defs>
<linearGradient id="paint0_linear_87_55" x1="-30.125" y1="17.4375" x2="375.3" y2="28.397" gradientUnits="userSpaceOnUse">
<stop stop-color="#11E332"/>
<stop offset="0.469" stop-color="#74DA84"/>
<stop offset="1" stop-color="#40C555"/>
</linearGradient>
<clipPath id="clip0_87_55">
<rect width="203" height="29" fill="white" transform="translate(0.5)"/>
</clipPath>
</defs>
</svg>
