<svg width="141" height="40" viewBox="0 0 141 40" fill="none" xmlns="http://www.w3.org/2000/svg">
<g filter="url(#filter0_b_442_313)">
<g filter="url(#filter1_b_442_313)">
<path d="M134.494 38.9999L141 29.3999V0H134.494L0 8.01086e-05V9.68847L1.62654 13.4063V28.0313L0 29.25V39L134.494 38.9999Z" fill="#0F661D" fill-opacity="0.8"/>
</g>
<g filter="url(#filter2_b_442_313)">
<path d="M47.3581 12.216V15H45.7261V12.588L45.0061 11.784H42.3901V15H40.7581V6.6H46.0261L47.3101 7.896V10.44L46.4941 11.268L47.3581 12.216ZM42.3901 10.44H45.2821L45.7021 10.02V8.388L45.2821 7.968H42.3901V10.44ZM48.8558 6.6H54.9278V7.98H50.4878V10.104H54.5798V11.46H50.4878V13.62H54.9278V15H48.8558V6.6ZM56.0131 13.62V7.98L57.3931 6.6H61.5691L62.9251 7.956V9.24H61.2931V8.556L60.7291 7.992H58.2571L57.6451 8.604V12.996L58.2571 13.608H60.7531L61.3411 13.02V11.712H59.5411V10.32H62.9251V13.62L61.5451 15H57.3931L56.0131 13.62ZM64.3025 6.6H65.9345V15H64.3025V6.6ZM67.3789 13.704V12.504H68.9869V13.212L69.3829 13.608H71.8669L72.2749 13.2V11.808L71.8789 11.412H68.6989L67.4029 10.116V7.896L68.6989 6.6H72.4909L73.7869 7.896V9.108H72.1789V8.388L71.7829 7.992H69.4069L69.0109 8.388V9.624L69.4069 10.02H72.5869L73.8829 11.316V13.68L72.5629 15H68.6749L67.3789 13.704ZM76.8029 7.98H74.2949V6.6H80.9429V7.98H78.4349V15H76.8029V7.98ZM81.9027 6.6H87.9747V7.98H83.5347V10.104H87.6267V11.46H83.5347V13.62H87.9747V15H81.9027V6.6ZM95.78 12.216V15H94.148V12.588L93.428 11.784H90.812V15H89.18V6.6H94.448L95.732 7.896V10.44L94.916 11.268L95.78 12.216ZM90.812 10.44H93.704L94.124 10.02V8.388L93.704 7.968H90.812V10.44ZM21.3426 22.6H22.8306L25.9026 31H24.2466L23.5626 29.14H20.6106L19.9266 31H18.2706L21.3426 22.6ZM23.2026 27.796L22.0866 24.604H22.0626L20.9826 27.796H23.2026ZM26.3926 29.704V28.504H28.0006V29.212L28.3966 29.608H30.8806L31.2886 29.2V27.808L30.8926 27.412H27.7126L26.4166 26.116V23.896L27.7126 22.6H31.5046L32.8006 23.896V25.108H31.1926V24.388L30.7966 23.992H28.4206L28.0246 24.388V25.624L28.4206 26.02H31.6006L32.8966 27.316V29.68L31.5766 31H27.6886L26.3926 29.704ZM39.3908 23.98H36.8828V22.6H43.5308V23.98H41.0228V31H39.3908V23.98ZM44.4906 22.6H50.5626V23.98H46.1226V26.104H50.2146V27.46H46.1226V29.62H50.5626V31H44.4906V22.6ZM54.1199 22.6H55.6079L58.6799 31H57.0239L56.3399 29.14H53.3879L52.7039 31H51.0479L54.1199 22.6ZM55.9799 27.796L54.8639 24.604H54.8399L53.7599 27.796H55.9799ZM59.5257 22.6H61.0377L63.5337 28.024H63.5577L66.0657 22.6H67.5777V31H66.0057V25.888H65.9817L64.0497 29.824H63.0417L61.1217 25.888H61.0977V31H59.5257V22.6ZM72.4046 22.6H73.9166L76.4126 28.024H76.4366L78.9446 22.6H80.4566V31H78.8846V25.888H78.8606L76.9286 29.824H75.9206L74.0006 25.888H73.9766V31H72.4046V22.6ZM82.014 22.6H88.086V23.98H83.646V26.104H87.738V27.46H83.646V29.62H88.086V31H82.014V22.6ZM89.2913 22.6H90.8033L93.2993 28.024H93.3233L95.8313 22.6H97.3433V31H95.7713V25.888H95.7473L93.8153 29.824H92.8073L90.8873 25.888H90.8633V31H89.2913V22.6ZM98.9007 22.6H104.169L105.369 23.8V26.152L104.889 26.644L105.741 27.508V29.704L104.445 31H98.9007V22.6ZM103.329 26.116L103.761 25.684V24.388L103.341 23.968H100.497V26.116H103.329ZM103.617 29.632L104.133 29.116V27.94L103.617 27.424H100.497V29.632H103.617ZM106.94 22.6H113.012V23.98H108.572V26.104H112.664V27.46H108.572V29.62H113.012V31H106.94V22.6ZM120.817 28.216V31H119.185V28.588L118.465 27.784H115.849V31H114.217V22.6H119.485L120.769 23.896V26.44L119.953 27.268L120.817 28.216ZM115.849 26.44H118.741L119.161 26.02V24.388L118.741 23.968H115.849V26.44Z" fill="#EFF2F5"/>
</g>
</g>
<defs>
<filter id="filter0_b_442_313" x="-4" y="-4" width="149" height="47" filterUnits="userSpaceOnUse" color-interpolation-filters="sRGB">
<feFlood flood-opacity="0" result="BackgroundImageFix"/>
<feGaussianBlur in="BackgroundImageFix" stdDeviation="2"/>
<feComposite in2="SourceAlpha" operator="in" result="effect1_backgroundBlur_442_313"/>
<feBlend mode="normal" in="SourceGraphic" in2="effect1_backgroundBlur_442_313" result="shape"/>
</filter>
<filter id="filter1_b_442_313" x="-4" y="-4" width="149" height="47" filterUnits="userSpaceOnUse" color-interpolation-filters="sRGB">
<feFlood flood-opacity="0" result="BackgroundImageFix"/>
<feGaussianBlur in="BackgroundImageFix" stdDeviation="2"/>
<feComposite in2="SourceAlpha" operator="in" result="effect1_backgroundBlur_442_313"/>
<feBlend mode="normal" in="SourceGraphic" in2="effect1_backgroundBlur_442_313" result="shape"/>
</filter>
<filter id="filter2_b_442_313" x="14.2705" y="2.6001" width="110.547" height="32.3999" filterUnits="userSpaceOnUse" color-interpolation-filters="sRGB">
<feFlood flood-opacity="0" result="BackgroundImageFix"/>
<feGaussianBlur in="BackgroundImageFix" stdDeviation="2"/>
<feComposite in2="SourceAlpha" operator="in" result="effect1_backgroundBlur_442_313"/>
<feBlend mode="normal" in="SourceGraphic" in2="effect1_backgroundBlur_442_313" result="shape"/>
</filter>
</defs>
</svg>
