<svg width="141" height="39" viewBox="0 0 141 39" fill="none" xmlns="http://www.w3.org/2000/svg">
<g filter="url(#filter0_b_442_309)">
<g filter="url(#filter1_b_442_309)">
<path d="M6.50613 38.9999L0 29.3999V0H6.50613L141 8.39233e-05V9.68847L139.373 13.4063V28.0313L141 29.25V39L6.50613 38.9999Z" fill="#E8FFFD"/>
</g>
</g>
<g filter="url(#filter2_b_442_309)">
<path d="M47.2867 12.216V15H45.6547V12.588L44.9347 11.784H42.3187V15H40.6867V6.6H45.9547L47.2387 7.896V10.44L46.4227 11.268L47.2867 12.216ZM42.3187 10.44H45.2107L45.6307 10.02V8.388L45.2107 7.968H42.3187V10.44ZM48.7844 6.6H54.8564V7.98H50.4164V10.104H54.5084V11.46H50.4164V13.62H54.8564V15H48.7844V6.6ZM55.9417 13.62V7.98L57.3217 6.6H61.4977L62.8537 7.956V9.24H61.2217V8.556L60.6577 7.992H58.1857L57.5737 8.604V12.996L58.1857 13.608H60.6817L61.2697 13.02V11.712H59.4697V10.32H62.8537V13.62L61.4737 15H57.3217L55.9417 13.62ZM64.2311 6.6H65.8631V15H64.2311V6.6ZM67.3075 13.704V12.504H68.9155V13.212L69.3115 13.608H71.7955L72.2035 13.2V11.808L71.8075 11.412H68.6275L67.3315 10.116V7.896L68.6275 6.6H72.4195L73.7155 7.896V9.108H72.1075V8.388L71.7115 7.992H69.3355L68.9395 8.388V9.624L69.3355 10.02H72.5155L73.8115 11.316V13.68L72.4915 15H68.6035L67.3075 13.704ZM76.7314 7.98H74.2234V6.6H80.8714V7.98H78.3634V15H76.7314V7.98ZM81.8312 6.6H87.9032V7.98H83.4632V10.104H87.5552V11.46H83.4632V13.62H87.9032V15H81.8312V6.6ZM95.7086 12.216V15H94.0766V12.588L93.3566 11.784H90.7406V15H89.1086V6.6H94.3766L95.6606 7.896V10.44L94.8446 11.268L95.7086 12.216ZM90.7406 10.44H93.6326L94.0526 10.02V8.388L93.6326 7.968H90.7406V10.44ZM23.527 22.6H25.015L28.087 31H26.431L25.747 29.14H22.795L22.111 31H20.455L23.527 22.6ZM25.387 27.796L24.271 24.604H24.247L23.167 27.796H25.387ZM28.577 29.704V28.504H30.185V29.212L30.581 29.608H33.065L33.473 29.2V27.808L33.077 27.412H29.897L28.601 26.116V23.896L29.897 22.6H33.689L34.985 23.896V25.108H33.377V24.388L32.981 23.992H30.605L30.209 24.388V25.624L30.605 26.02H33.785L35.081 27.316V29.68L33.761 31H29.873L28.577 29.704ZM41.5752 23.98H39.0672V22.6H45.7152V23.98H43.2072V31H41.5752V23.98ZM46.675 22.6H52.747V23.98H48.307V26.104H52.399V27.46H48.307V29.62H52.747V31H46.675V22.6ZM56.3043 22.6H57.7923L60.8643 31H59.2083L58.5243 29.14H55.5723L54.8883 31H53.2323L56.3043 22.6ZM58.1643 27.796L57.0483 24.604H57.0243L55.9443 27.796H58.1643ZM61.7101 22.6H63.2221L65.7181 28.024H65.7421L68.2501 22.6H69.7621V31H68.1901V25.888H68.1661L66.2341 29.824H65.2261L63.3061 25.888H63.2821V31H61.7101V22.6ZM74.5891 22.6H76.2211V29.62H80.4211V31H74.5891V22.6ZM81.3156 22.6H87.3876V23.98H82.9476V26.104H87.0396V27.46H82.9476V29.62H87.3876V31H81.3156V22.6ZM90.945 22.6H92.433L95.505 31H93.849L93.165 29.14H90.213L89.529 31H87.873L90.945 22.6ZM92.805 27.796L91.689 24.604H91.665L90.585 27.796H92.805ZM96.3508 22.6H101.727L103.167 24.04V29.56L101.727 31H96.3508V22.6ZM100.923 29.608L101.535 28.996V24.604L100.923 23.992H97.9828V29.608H100.923ZM104.612 22.6H110.684V23.98H106.244V26.104H110.336V27.46H106.244V29.62H110.684V31H104.612V22.6ZM118.49 28.216V31H116.858V28.588L116.138 27.784H113.522V31H111.89V22.6H117.158L118.442 23.896V26.44L117.626 27.268L118.49 28.216ZM113.522 26.44H116.414L116.834 26.02V24.388L116.414 23.968H113.522V26.44Z" fill="#0B0B0B"/>
</g>
<defs>
<filter id="filter0_b_442_309" x="-4" y="-4" width="149" height="47" filterUnits="userSpaceOnUse" color-interpolation-filters="sRGB">
<feFlood flood-opacity="0" result="BackgroundImageFix"/>
<feGaussianBlur in="BackgroundImageFix" stdDeviation="2"/>
<feComposite in2="SourceAlpha" operator="in" result="effect1_backgroundBlur_442_309"/>
<feBlend mode="normal" in="SourceGraphic" in2="effect1_backgroundBlur_442_309" result="shape"/>
</filter>
<filter id="filter1_b_442_309" x="-4" y="-4" width="149" height="47" filterUnits="userSpaceOnUse" color-interpolation-filters="sRGB">
<feFlood flood-opacity="0" result="BackgroundImageFix"/>
<feGaussianBlur in="BackgroundImageFix" stdDeviation="2"/>
<feComposite in2="SourceAlpha" operator="in" result="effect1_backgroundBlur_442_309"/>
<feBlend mode="normal" in="SourceGraphic" in2="effect1_backgroundBlur_442_309" result="shape"/>
</filter>
<filter id="filter2_b_442_309" x="16.4551" y="2.6001" width="106.035" height="32.3999" filterUnits="userSpaceOnUse" color-interpolation-filters="sRGB">
<feFlood flood-opacity="0" result="BackgroundImageFix"/>
<feGaussianBlur in="BackgroundImageFix" stdDeviation="2"/>
<feComposite in2="SourceAlpha" operator="in" result="effect1_backgroundBlur_442_309"/>
<feBlend mode="normal" in="SourceGraphic" in2="effect1_backgroundBlur_442_309" result="shape"/>
</filter>
</defs>
</svg>
