<svg width="214" height="41" viewBox="0 0 214 41" fill="none" xmlns="http://www.w3.org/2000/svg">
<g filter="url(#filter0_b_239_87)">
<path d="M9.87455 40.9999L0 30.9076V0H9.87455L214 8.39233e-05V10.1853L211.531 14.0938V29.4688L214 30.75V41L9.87455 40.9999Z" fill="#11E332" fill-opacity="0.45"/>
<g filter="url(#filter1_b_239_87)">
<path d="M26.0032 20.98L26.3932 21.006C25.6392 24.906 22.7012 28.286 17.6052 28.286C5.6192 28.286 5.6192 9.592 17.6052 9.592C21.3752 9.592 23.9492 11.438 25.3532 13.986H22.6492C21.4272 10.346 16.2012 8.864 12.5612 11.594C5.0732 17.158 15.0052 31.848 22.6492 26.31C24.5472 24.958 25.6652 22.748 26.0032 20.98ZM37.2565 9.592C49.2165 9.592 49.2165 28.286 37.2565 28.286C25.2965 28.286 25.2705 9.592 37.2565 9.592ZM42.3005 26.31C49.8925 20.85 39.6485 6.212 32.2125 11.594C24.6465 17.054 34.6565 31.848 42.3005 26.31ZM63.4217 27.012C63.4217 27.402 63.6557 27.766 64.0717 27.766V28H60.3537V27.766C60.7957 27.766 61.0037 27.402 61.0037 27.012V16.248C61.0037 14.454 60.4837 10.138 57.1817 10.138C55.3877 10.138 52.9437 11.464 51.7217 13.96V27.012C51.7217 27.402 51.9557 27.766 52.3717 27.766V28H48.6537V27.766C49.0957 27.766 49.3037 27.402 49.3037 27.012V10.866C49.3037 10.45 49.0697 10.138 48.6537 10.138V9.852H52.3717V10.138C51.9557 10.138 51.7217 10.476 51.7217 10.866V13.206C52.8137 11.23 55.2057 9.67 57.3897 9.67C61.8617 9.67 63.4217 13.154 63.4217 15.208V27.012ZM72.3758 9.852C84.8038 9.852 84.9078 28 72.3758 28H66.6038V27.766C66.7598 27.766 66.8898 27.714 66.9938 27.636C67.0978 27.558 67.1498 27.48 67.1758 27.376C67.2278 27.272 67.2538 27.142 67.2538 27.012V10.866C67.2538 10.736 67.2278 10.606 67.1758 10.502C67.1498 10.424 67.0978 10.346 66.9938 10.268C66.8898 10.19 66.7598 10.138 66.6038 10.138V9.852H72.3758ZM71.9858 27.61C81.6578 27.61 81.6058 10.268 71.9858 10.268H69.6458L69.6718 27.61H71.9858ZM95.1203 10.138V9.878H98.8383V10.138C97.9543 10.138 97.1743 10.554 97.1743 11.516V21.292C97.1743 31.094 84.6163 30.132 84.6163 21.422V10.866C84.6163 10.45 84.3823 10.138 83.9663 10.138V9.852H87.6843V10.138C87.2683 10.138 87.0343 10.476 87.0343 10.866V22.28C87.0343 29.82 96.7843 29.872 96.7843 21.292V11.516C96.7843 10.58 96.0303 10.138 95.1203 10.138ZM117.785 20.98L118.175 21.006C117.421 24.906 114.483 28.286 109.387 28.286C97.4012 28.286 97.4012 9.592 109.387 9.592C113.157 9.592 115.731 11.438 117.135 13.986H114.431C113.209 10.346 107.983 8.864 104.343 11.594C96.8552 17.158 106.787 31.848 114.431 26.31C116.329 24.958 117.447 22.748 117.785 20.98ZM133.231 9.852L133.465 12.348H133.205C132.971 11.126 132.425 10.268 131.073 10.268H127.511V27.012C127.511 27.142 127.537 27.272 127.589 27.376C127.641 27.48 127.719 27.558 127.797 27.636C127.875 27.714 128.005 27.766 128.187 27.766V28H124.469V27.766C124.625 27.766 124.755 27.714 124.859 27.636C124.937 27.558 124.989 27.48 125.041 27.376C125.093 27.272 125.119 27.142 125.119 27.012V10.268H121.583C120.257 10.268 119.659 11.1 119.425 12.348H119.165L119.399 9.852H133.231ZM147.555 25.556H147.841L147.581 28H135.231V27.766C135.673 27.766 135.881 27.402 135.881 27.012V10.866C135.881 10.45 135.647 10.138 135.231 10.138V9.878H146.593L146.853 12.348H146.567C146.359 11.1 145.761 10.268 144.435 10.268H138.299V18.406H140.249C141.211 18.328 141.627 17.626 141.627 16.742H141.887V20.486H141.627C141.627 19.55 141.185 18.874 140.249 18.822H138.299V27.61H145.397C146.723 27.61 147.321 26.778 147.555 25.556ZM155.601 9.852C168.029 9.852 168.133 28 155.601 28H149.829V27.766C149.985 27.766 150.115 27.714 150.219 27.636C150.323 27.558 150.375 27.48 150.401 27.376C150.453 27.272 150.479 27.142 150.479 27.012V10.866C150.479 10.736 150.453 10.606 150.401 10.502C150.375 10.424 150.323 10.346 150.219 10.268C150.115 10.19 149.985 10.138 149.829 10.138V9.852H155.601ZM155.211 27.61C164.883 27.61 164.831 10.268 155.211 10.268H152.871L152.897 27.61H155.211ZM186.143 18.51C192.253 18.51 193.085 28 184.427 28H177.173V27.766C177.615 27.766 177.823 27.402 177.823 27.012V10.866C177.823 10.45 177.589 10.138 177.173 10.138V9.852H184.167C192.175 9.852 191.733 18.51 186.143 18.51ZM180.215 10.268V14.896C180.969 17.08 182.503 18.38 184.687 18.38C189.055 18.38 189.185 10.268 183.387 10.268H180.215ZM184.713 27.61C189.549 27.61 189.783 18.822 184.479 18.822C183.413 18.822 180.891 18.016 180.215 15.598V27.61H184.713ZM204.135 10.138V9.852H207.177V10.138C206.397 10.086 205.669 10.58 205.279 11.386L200.417 20.122V27.064C200.417 27.454 200.703 27.766 201.093 27.766V28H197.375V27.766C197.765 27.766 198.025 27.428 198.025 27.064V20.46L192.487 10.736C192.227 10.346 191.759 10.112 191.291 10.138V9.852H195.867V10.138C195.295 10.138 194.983 10.268 195.295 10.866L200.183 19.628L204.733 11.386C205.123 10.684 205.045 10.138 204.135 10.138Z" fill="#FEFEFF"/>
</g>
</g>
<defs>
<filter id="filter0_b_239_87" x="-4" y="-4" width="222" height="49" filterUnits="userSpaceOnUse" color-interpolation-filters="sRGB">
<feFlood flood-opacity="0" result="BackgroundImageFix"/>
<feGaussianBlur in="BackgroundImageFix" stdDeviation="2"/>
<feComposite in2="SourceAlpha" operator="in" result="effect1_backgroundBlur_239_87"/>
<feBlend mode="normal" in="SourceGraphic" in2="effect1_backgroundBlur_239_87" result="shape"/>
</filter>
<filter id="filter1_b_239_87" x="1.07324" y="2.21191" width="210.104" height="33.6362" filterUnits="userSpaceOnUse" color-interpolation-filters="sRGB">
<feFlood flood-opacity="0" result="BackgroundImageFix"/>
<feGaussianBlur in="BackgroundImageFix" stdDeviation="2"/>
<feComposite in2="SourceAlpha" operator="in" result="effect1_backgroundBlur_239_87"/>
<feBlend mode="normal" in="SourceGraphic" in2="effect1_backgroundBlur_239_87" result="shape"/>
</filter>
</defs>
</svg>
