<svg width="98" height="94" viewBox="0 0 98 94" fill="none" xmlns="http://www.w3.org/2000/svg">
<path d="M2.81586 0L97.8483 47.7773L96.4329 69.7221L1.52686 20.5363L2.81586 0Z" fill="url(#paint0_linear_43_401)" fill-opacity="0.3"/>
<path d="M2.81903 4.98633L97.8514 52.7636L96.4361 69.7504L1.53003 20.5646L2.81903 4.98633Z" fill="url(#paint1_linear_43_401)" fill-opacity="0.2"/>
<path d="M27.6162 53.3989L37.2553 57.2569L37.2906 39.1554L27.6162 34.082V53.3989Z" fill="url(#paint2_linear_43_401)" fill-opacity="0.8"/>
<path d="M37.2907 58.2797L22.2271 68.2855V31.2412L37.2907 39.1571V58.2797Z" fill="url(#paint3_linear_43_401)" fill-opacity="0.8"/>
<g style="mix-blend-mode:lighten">
<ellipse cx="41.2269" cy="71.7451" rx="41.2269" ry="22.1933" fill="url(#paint4_radial_43_401)" fill-opacity="0.6"/>
</g>
<path d="M27.6169 53.4L22.2271 68.2855V31.2412L27.6169 34.0807V53.4Z" fill="url(#paint5_linear_43_401)"/>
<path d="M35.1592 22.6529L37.164 10.7051L56.6072 10.7544L43.2425 23.4637L35.1592 22.6529Z" fill="url(#paint6_linear_43_401)" fill-opacity="0.8"/>
<g opacity="0.7">
<path d="M43.2423 23.4637L35.1589 22.6533L27.6162 34.0809V53.3997L36.1522 53.2146L43.1732 42.1579L43.2423 23.4637Z" fill="url(#paint7_linear_43_401)"/>
<path d="M43.2423 23.4637L35.1589 22.6533L27.6162 34.0809V53.3997L36.1522 53.2146L43.1732 42.1579L43.2423 23.4637Z" fill="url(#paint8_radial_43_401)"/>
<path d="M43.2423 23.4637L35.1589 22.6533L27.6162 34.0809V53.3997L36.1522 53.2146L43.1732 42.1579L43.2423 23.4637Z" fill="url(#paint9_linear_43_401)"/>
</g>
<path d="M35.1589 22.6533L44.7974 26.5116L37.2915 39.1575L27.6177 34.0815L35.1589 22.6533Z" fill="url(#paint10_linear_43_401)" fill-opacity="0.8"/>
<path d="M43.1542 42.166L52.8679 47.1256L45.3258 57.7398L36.1523 53.2133L43.1542 42.166Z" fill="url(#paint11_linear_43_401)" fill-opacity="0.8"/>
<path d="M35.1587 22.6533L44.7972 26.5116L52.8809 27.3225L43.2418 23.4638L35.1587 22.6533Z" fill="url(#paint12_linear_43_401)" fill-opacity="0.8"/>
<path d="M27.6138 53.3977L37.2921 58.2833L45.3366 57.7462L36.1531 53.2144L27.6138 53.3977Z" fill="url(#paint13_linear_43_401)"/>
<path d="M44.8225 26.5651L37.1643 10.7051L22.2271 31.2414L37.2923 39.1556L44.8225 26.5651Z" fill="url(#paint14_linear_43_401)" fill-opacity="0.9"/>
<path d="M52.8628 47.1294L56.5687 49.0591V10.6768L52.8723 27.3256L52.8628 47.1294Z" fill="url(#paint15_linear_43_401)" fill-opacity="0.9"/>
<path d="M37.2907 58.282L22.2271 68.2861L41.739 71.4412L45.3217 57.7397L37.2907 58.282Z" fill="url(#paint16_linear_43_401)" fill-opacity="0.9"/>
<path d="M52.8659 47.126L56.567 49.0592L41.7388 71.4407L45.3214 57.7392L52.8659 47.126Z" fill="url(#paint17_linear_43_401)"/>
<path d="M44.8223 26.5651L37.1641 10.7051H56.5749L52.8722 27.3257L44.8223 26.5651Z" fill="url(#paint18_linear_43_401)"/>
<path d="M44.8223 26.5651L37.1641 10.7051H56.5749L52.8722 27.3257L44.8223 26.5651Z" fill="url(#paint19_linear_43_401)" fill-opacity="0.6"/>
<path d="M22.2522 68.3142L27.623 53.3838L37.2908 58.2819L22.2522 68.3142Z" fill="url(#paint20_linear_43_401)"/>
<path d="M2.96751 41.0265L97.9999 88.8037L96.4329 69.7463L1.52686 20.5605L2.96751 41.0265Z" fill="url(#paint21_linear_43_401)" fill-opacity="0.4"/>
<path d="M2.96751 36.5333L97.9999 84.3105L96.4329 69.7463L1.52686 20.5605L2.96751 36.5333Z" fill="url(#paint22_linear_43_401)" fill-opacity="0.3"/>
<g opacity="0.7">
<path d="M52.8813 27.3219L44.8163 26.5117L37.2908 39.1545V58.2818L45.3382 57.7395L52.8663 47.1197L52.8813 27.3219Z" fill="url(#paint23_linear_43_401)"/>
<path d="M52.8813 27.3219L44.8163 26.5117L37.2908 39.1545V58.2818L45.3382 57.7395L52.8663 47.1197L52.8813 27.3219Z" fill="url(#paint24_radial_43_401)"/>
<path d="M52.8813 27.3219L44.8163 26.5117L37.2908 39.1545V58.2818L45.3382 57.7395L52.8663 47.1197L52.8813 27.3219Z" fill="url(#paint25_linear_43_401)"/>
</g>
<defs>
<linearGradient id="paint0_linear_43_401" x1="15.3887" y1="14.0547" x2="90.9338" y2="53.7676" gradientUnits="userSpaceOnUse">
<stop stop-color="#9492ED" stop-opacity="0"/>
<stop offset="0.546875" stop-color="#7674EC"/>
<stop offset="1" stop-color="#817FDF" stop-opacity="0"/>
</linearGradient>
<linearGradient id="paint1_linear_43_401" x1="15.3919" y1="14.083" x2="90.9369" y2="53.7959" gradientUnits="userSpaceOnUse">
<stop stop-color="#232183" stop-opacity="0"/>
<stop offset="0.546875" stop-color="#232183"/>
<stop offset="1" stop-color="#232183" stop-opacity="0"/>
</linearGradient>
<linearGradient id="paint2_linear_43_401" x1="27.6162" y1="38.3081" x2="37.5489" y2="39.0506" gradientUnits="userSpaceOnUse">
<stop stop-color="#548DD1"/>
<stop offset="0.59375" stop-color="#E39DE5"/>
<stop offset="1" stop-color="white"/>
</linearGradient>
<linearGradient id="paint3_linear_43_401" x1="20.5196" y1="46.8327" x2="42.5284" y2="51.2169" gradientUnits="userSpaceOnUse">
<stop offset="0.0340296" stop-color="#2B79ED" stop-opacity="0.8"/>
<stop offset="0.791667" stop-color="#FCA6EF" stop-opacity="0.8"/>
<stop offset="1" stop-color="white"/>
</linearGradient>
<radialGradient id="paint4_radial_43_401" cx="0" cy="0" r="1" gradientUnits="userSpaceOnUse" gradientTransform="translate(41.2269 71.7451) rotate(90) scale(22.1933 41.2269)">
<stop offset="0.0729167" stop-color="white"/>
<stop offset="0.34375" stop-color="#A873FF" stop-opacity="0.8"/>
<stop offset="1" stop-color="#0E7DFF" stop-opacity="0"/>
</radialGradient>
<linearGradient id="paint5_linear_43_401" x1="27.6169" y1="33.0851" x2="24.5064" y2="62.007" gradientUnits="userSpaceOnUse">
<stop stop-color="#2295D6"/>
<stop offset="1" stop-color="#2249D6" stop-opacity="0.3"/>
</linearGradient>
<linearGradient id="paint6_linear_43_401" x1="35.82" y1="13.6151" x2="44.3366" y2="24.1911" gradientUnits="userSpaceOnUse">
<stop stop-color="#4B86FA" stop-opacity="0.8"/>
<stop offset="0.534769" stop-color="#FCA6EF" stop-opacity="0.8"/>
<stop offset="0.716558" stop-color="white"/>
</linearGradient>
<linearGradient id="paint7_linear_43_401" x1="43.7478" y1="27.3476" x2="15.0282" y2="44.9741" gradientUnits="userSpaceOnUse">
<stop stop-color="#324BCC"/>
<stop offset="1" stop-color="white" stop-opacity="0.8"/>
</linearGradient>
<radialGradient id="paint8_radial_43_401" cx="0" cy="0" r="1" gradientUnits="userSpaceOnUse" gradientTransform="translate(35.682 61.3357) rotate(-90) scale(23.7232 12.2459)">
<stop stop-color="#00F0FF"/>
<stop offset="1" stop-color="#00F0FF" stop-opacity="0"/>
</radialGradient>
<linearGradient id="paint9_linear_43_401" x1="27.6162" y1="49.9284" x2="36.7133" y2="40.3119" gradientUnits="userSpaceOnUse">
<stop stop-color="white"/>
<stop offset="1" stop-color="white" stop-opacity="0"/>
</linearGradient>
<linearGradient id="paint10_linear_43_401" x1="32.2488" y1="26.7245" x2="40.8682" y2="31.7285" gradientUnits="userSpaceOnUse">
<stop stop-color="#4078CB"/>
<stop offset="0.59375" stop-color="#E39DE5"/>
<stop offset="1" stop-color="white"/>
</linearGradient>
<linearGradient id="paint11_linear_43_401" x1="52.253" y1="47.8899" x2="35.3524" y2="52.9792" gradientUnits="userSpaceOnUse">
<stop stop-color="#4078CB"/>
<stop offset="1" stop-color="#E39DE5"/>
</linearGradient>
<linearGradient id="paint12_linear_43_401" x1="41.5664" y1="23.2625" x2="41.3338" y2="26.4796" gradientUnits="userSpaceOnUse">
<stop stop-color="#4078CB"/>
<stop offset="0.59375" stop-color="#E39DE5"/>
<stop offset="1" stop-color="white"/>
</linearGradient>
<linearGradient id="paint13_linear_43_401" x1="34.022" y1="53.6864" x2="33.7894" y2="56.9035" gradientUnits="userSpaceOnUse">
<stop stop-color="#4078CB"/>
<stop offset="0.59375" stop-color="#E39DE5"/>
<stop offset="1" stop-color="white"/>
</linearGradient>
<linearGradient id="paint14_linear_43_401" x1="27.4259" y1="23.3269" x2="39.6839" y2="34.6318" gradientUnits="userSpaceOnUse">
<stop offset="0.0729167" stop-color="#4B86FA" stop-opacity="0.8"/>
<stop offset="0.791667" stop-color="#FCA6EF" stop-opacity="0.8"/>
<stop offset="1" stop-color="white"/>
</linearGradient>
<linearGradient id="paint15_linear_43_401" x1="57.308" y1="10.6768" x2="66.1505" y2="14.213" gradientUnits="userSpaceOnUse">
<stop offset="0.00889157" stop-color="#1D2A9B" stop-opacity="0.8"/>
<stop offset="0.645598" stop-color="#FCA6EF" stop-opacity="0.8"/>
<stop offset="1" stop-color="white"/>
</linearGradient>
<linearGradient id="paint16_linear_43_401" x1="22.2271" y1="66.4927" x2="47.1533" y2="63.1021" gradientUnits="userSpaceOnUse">
<stop offset="0.0340296" stop-color="#4B5CFA" stop-opacity="0.8"/>
<stop offset="0.791667" stop-color="#FCA6EF" stop-opacity="0.8"/>
<stop offset="1" stop-color="white"/>
</linearGradient>
<linearGradient id="paint17_linear_43_401" x1="53.6684" y1="55.5525" x2="48.0996" y2="52.8972" gradientUnits="userSpaceOnUse">
<stop offset="0.0340296" stop-color="#4B5CFA" stop-opacity="0.8"/>
<stop offset="0.539474" stop-color="#FCA6EF" stop-opacity="0.8"/>
<stop offset="1" stop-color="white"/>
</linearGradient>
<linearGradient id="paint18_linear_43_401" x1="55.9978" y1="16.3065" x2="46.7006" y2="28.2701" gradientUnits="userSpaceOnUse">
<stop stop-color="#0A3892"/>
<stop offset="0.536458" stop-color="#29B2ED" stop-opacity="0.8"/>
<stop offset="0.967948" stop-color="white"/>
</linearGradient>
<linearGradient id="paint19_linear_43_401" x1="52.6574" y1="28.1708" x2="45.1804" y2="16.2449" gradientUnits="userSpaceOnUse">
<stop stop-color="#FF439D"/>
<stop offset="1" stop-color="#FF43D6" stop-opacity="0"/>
</linearGradient>
<linearGradient id="paint20_linear_43_401" x1="26.5742" y1="52.6232" x2="38.0202" y2="59.6872" gradientUnits="userSpaceOnUse">
<stop stop-color="#5BE2FF"/>
<stop offset="1" stop-color="#FF93E1" stop-opacity="0.6"/>
</linearGradient>
<linearGradient id="paint21_linear_43_401" x1="15.3888" y1="14.0789" x2="90.9338" y2="53.7918" gradientUnits="userSpaceOnUse">
<stop stop-color="#232183" stop-opacity="0"/>
<stop offset="0.546875" stop-color="#232183"/>
<stop offset="1" stop-color="#232183" stop-opacity="0"/>
</linearGradient>
<linearGradient id="paint22_linear_43_401" x1="15.3888" y1="14.0789" x2="90.9338" y2="53.7918" gradientUnits="userSpaceOnUse">
<stop stop-color="#232183" stop-opacity="0"/>
<stop offset="0.546875" stop-color="#8A88EC"/>
<stop offset="1" stop-color="#232183" stop-opacity="0"/>
</linearGradient>
<linearGradient id="paint23_linear_43_401" x1="53.3856" y1="31.205" x2="24.6992" y2="48.7748" gradientUnits="userSpaceOnUse">
<stop stop-color="#324BCC"/>
<stop offset="1" stop-color="white" stop-opacity="0.8"/>
</linearGradient>
<radialGradient id="paint24_radial_43_401" cx="0" cy="0" r="1" gradientUnits="userSpaceOnUse" gradientTransform="translate(45.3382 65.1855) rotate(-90) scale(23.7179 12.218)">
<stop stop-color="#00F0FF"/>
<stop offset="1" stop-color="#00F0FF" stop-opacity="0"/>
</radialGradient>
<linearGradient id="paint25_linear_43_401" x1="39.848" y1="54.4196" x2="47.4454" y2="45.659" gradientUnits="userSpaceOnUse">
<stop stop-color="white"/>
<stop offset="1" stop-color="white" stop-opacity="0"/>
</linearGradient>
</defs>
</svg>
