<svg width="405" height="732" viewBox="0 0 405 732" fill="none" xmlns="http://www.w3.org/2000/svg">
<g style="mix-blend-mode:lighten">
<g opacity="0.6">
<rect width="2.55481" height="2.55481" transform="matrix(0.641411 0.767197 -0.641411 0.767197 120.561 209.052)" fill="#2C2ABB"/>
<rect width="1.61321" height="1.61321" transform="matrix(0.641423 0.767187 -0.641423 0.767187 162.645 218.439)" fill="#2C2ABB"/>
<rect width="2.11768" height="2.11768" transform="matrix(0.641423 0.767187 -0.641423 0.767187 94 193.091)" fill="#2C2ABB"/>
<rect width="2.88951" height="2.88951" transform="matrix(0.641423 0.767187 -0.641423 0.767187 145.481 196.339)" fill="#2C2ABB"/>
<rect width="3.76496" height="3.76496" transform="matrix(0.641431 0.767181 -0.641431 0.767181 102.106 234.426)" fill="#2C2ABB"/>
<rect width="1.68106" height="1.68106" transform="matrix(0.641423 0.767187 -0.641423 0.767187 156.263 258.924)" fill="#2C2ABB"/>
<rect width="2.15257" height="2.15257" transform="matrix(0.641423 0.767187 -0.641423 0.767187 145.009 227.204)" fill="#2C2ABB"/>
<rect width="1.81572" height="1.81572" transform="matrix(0.641439 0.767174 -0.641439 0.767174 127.114 228.703)" fill="#2C2ABB"/>
<rect width="2.48887" height="2.48887" transform="matrix(0.641423 0.767187 -0.641423 0.767187 135.221 236.799)" fill="#2C2ABB"/>
<rect width="2.62255" height="2.62255" transform="matrix(0.641423 0.767187 -0.641423 0.767187 118.62 244.947)" fill="#2C2ABB"/>
<rect width="1.3453" height="1.3453" transform="matrix(0.641423 0.767187 -0.641423 0.767187 113.532 257.892)" fill="#2C2ABB"/>
</g>
<g opacity="0.6">
<rect width="2.5548" height="2.5548" transform="matrix(0.641435 0.767178 -0.641435 0.767178 205.773 226.702)" fill="#2C2ABB"/>
<rect width="1.61321" height="1.61321" transform="matrix(0.641423 0.767187 -0.641423 0.767187 247.858 236.089)" fill="#2C2ABB"/>
<rect width="2.11768" height="2.11768" transform="matrix(0.641423 0.767187 -0.641423 0.767187 179.213 210.74)" fill="#2C2ABB"/>
<rect width="2.8895" height="2.8895" transform="matrix(0.641433 0.767179 -0.641433 0.767179 230.694 213.988)" fill="#2C2ABB"/>
<rect width="3.76496" height="3.76496" transform="matrix(0.641431 0.767181 -0.641431 0.767181 187.319 252.076)" fill="#2C2ABB"/>
<rect width="1.68106" height="1.68106" transform="matrix(0.641423 0.767187 -0.641423 0.767187 241.477 276.573)" fill="#2C2ABB"/>
<rect width="2.15257" height="2.15257" transform="matrix(0.641423 0.767187 -0.641423 0.767187 230.222 244.854)" fill="#2C2ABB"/>
<rect width="1.81573" height="1.81573" transform="matrix(0.641423 0.767187 -0.641423 0.767187 212.328 246.35)" fill="#2C2ABB"/>
<rect width="2.48888" height="2.48888" transform="matrix(0.641411 0.767197 -0.641411 0.767197 220.434 254.448)" fill="#2C2ABB"/>
<rect width="2.62255" height="2.62255" transform="matrix(0.641423 0.767187 -0.641423 0.767187 203.833 262.596)" fill="#2C2ABB"/>
<rect width="1.3453" height="1.3453" transform="matrix(0.641423 0.767187 -0.641423 0.767187 198.746 275.541)" fill="#2C2ABB"/>
</g>
<g opacity="0.6">
<rect width="2.2375" height="2.2375" transform="matrix(0.641423 0.767187 -0.641423 0.767187 175.621 84.3032)" fill="#2C2ABB"/>
<rect width="1.41285" height="1.41285" transform="matrix(0.641423 0.767187 -0.641423 0.767187 212.478 92.5239)" fill="#2C2ABB"/>
<rect width="1.85467" height="1.85467" transform="matrix(0.641423 0.767187 -0.641423 0.767187 152.358 70.3242)" fill="#2C2ABB"/>
<rect width="2.53064" height="2.53064" transform="matrix(0.641423 0.767187 -0.641423 0.767187 197.446 73.1704)" fill="#2C2ABB"/>
<rect width="3.29737" height="3.29737" transform="matrix(0.641423 0.767187 -0.641423 0.767187 159.458 106.526)" fill="#2C2ABB"/>
<rect width="1.47228" height="1.47228" transform="matrix(0.641403 0.767204 -0.641403 0.767204 206.889 127.98)" fill="#2C2ABB"/>
<rect width="1.88523" height="1.88523" transform="matrix(0.641423 0.767187 -0.641423 0.767187 197.032 100.201)" fill="#2C2ABB"/>
<rect width="1.59022" height="1.59022" transform="matrix(0.641423 0.767187 -0.641423 0.767187 181.361 101.512)" fill="#2C2ABB"/>
<rect width="2.17976" height="2.17976" transform="matrix(0.641423 0.767187 -0.641423 0.767187 188.46 108.604)" fill="#2C2ABB"/>
<rect width="2.29683" height="2.29683" transform="matrix(0.641423 0.767187 -0.641423 0.767187 173.921 115.741)" fill="#2C2ABB"/>
<rect width="1.17669" height="1.17669" transform="matrix(0.641398 0.767208 -0.641398 0.767208 169.464 127.079)" fill="#2C2ABB"/>
</g>
<path fill-rule="evenodd" clip-rule="evenodd" d="M163.055 129.461L98.0991 172.803L178.742 234.782L259.9 172.803L194.546 129.196L178.683 139.352L163.055 129.461Z" fill="url(#paint0_linear_43_132)" fill-opacity="0.8"/>
<path fill-rule="evenodd" clip-rule="evenodd" d="M265.295 228.97L179.229 171.137L178.999 170.982L178.769 171.137L91.728 229.625L92.6177 230.316L178.999 172.271L264.408 229.663L265.295 228.97Z" fill="url(#paint1_linear_43_132)"/>
<path fill-rule="evenodd" clip-rule="evenodd" d="M154.01 123.737L0 226.715L177.825 352.328L358 223.904L204.874 122.585L178.684 139.353L154.01 123.737ZM179.603 157.822L270.903 224.588L178.397 296.88L87.0973 226.031L179.603 157.822Z" fill="url(#paint2_linear_43_132)"/>
<path d="M179.229 129.771L179 129.617L178.77 129.771L97.8692 184.134L97.1868 184.592L97.8462 185.097L178.747 246.957L179 247.15L179.252 246.957L260.153 185.097L260.812 184.592L260.13 184.134L179.229 129.771Z" stroke="url(#paint3_linear_43_132)" stroke-width="1.03515"/>
<path fill-rule="evenodd" clip-rule="evenodd" d="M227.118 108.342L181.402 78.8975L130.881 109.098L180.472 140.423L227.118 108.342ZM213.672 108.446L181.361 86.6033L144.327 108.991L180.583 130.754L213.672 108.446Z" fill="url(#paint4_linear_43_132)"/>
<path d="M131.787 109.486L180.471 140.421L178.74 234.78L99.0396 173.211L131.787 109.486Z" fill="url(#paint5_linear_43_132)" fill-opacity="0.6"/>
<path d="M131.787 109.486L180.471 140.421L178.74 234.78L99.0396 173.211L131.787 109.486Z" fill="url(#paint6_linear_43_132)" fill-opacity="0.4"/>
<path d="M163.027 129.448L130.88 109.094L98.1323 172.819L163.027 129.448Z" fill="url(#paint7_linear_43_132)" fill-opacity="0.8"/>
<path d="M163.027 129.448L130.88 109.094L98.1323 172.819L163.027 129.448Z" fill="url(#paint8_linear_43_132)" fill-opacity="0.4"/>
<path fill-rule="evenodd" clip-rule="evenodd" d="M195.839 129.877L227.112 108.338L259.898 172.81L178.739 234.785L178.742 234.54L259.299 172.693L195.839 129.877Z" fill="url(#paint9_linear_43_132)" fill-opacity="0.8"/>
<path fill-rule="evenodd" clip-rule="evenodd" d="M195.911 129.801L180.474 140.42L178.745 234.78L259.905 172.804L259.903 172.801L195.911 129.801ZM227.119 108.333L227.118 108.333L227.106 108.342L227.119 108.333Z" fill="url(#paint10_linear_43_132)" fill-opacity="0.8"/>
<path fill-rule="evenodd" clip-rule="evenodd" d="M195.911 129.801L180.474 140.42L178.745 234.78L259.905 172.804L259.903 172.801L195.911 129.801ZM227.119 108.333L227.118 108.333L227.106 108.342L227.119 108.333Z" fill="url(#paint11_linear_43_132)" fill-opacity="0.7"/>
<g filter="url(#filter0_f_43_132)">
<ellipse cx="9.06826" cy="9.91044" rx="9.06826" ry="9.91044" transform="matrix(0.822868 -0.568232 0.434711 0.90057 120.062 159.644)" fill="url(#paint12_radial_43_132)"/>
</g>
<rect width="57.7278" height="2.8167" rx="1.40835" transform="matrix(0.822868 -0.568233 0.43471 0.900571 129.923 163.043)" fill="url(#paint13_linear_43_132)" fill-opacity="0.6"/>
<g filter="url(#filter1_f_43_132)">
<ellipse cx="9.06826" cy="9.91044" rx="9.06826" ry="9.91044" transform="matrix(0.822868 -0.568232 0.434711 0.90057 120.062 159.644)" fill="url(#paint14_radial_43_132)"/>
</g>
<g filter="url(#filter2_f_43_132)">
<ellipse cx="9.06826" cy="9.91045" rx="9.06826" ry="9.91045" transform="matrix(-0.822867 -0.568235 -0.434709 0.900571 226.467 153.176)" fill="url(#paint15_radial_43_132)"/>
</g>
<rect width="57.7278" height="2.8167" rx="1.40835" transform="matrix(-0.822868 -0.568233 -0.43471 0.900571 216.604 156.576)" fill="url(#paint16_linear_43_132)" fill-opacity="0.9"/>
<g filter="url(#filter3_f_43_132)">
<ellipse cx="11.9971" cy="13.1113" rx="11.9971" ry="13.1113" transform="matrix(-0.822868 -0.568233 -0.43471 0.90057 230.268 151.958)" fill="url(#paint17_radial_43_132)"/>
</g>
<g filter="url(#filter4_f_43_132)">
<ellipse cx="9.14931" cy="9.83567" rx="9.14931" ry="9.83567" transform="matrix(-0.790065 -0.613024 -0.476766 0.87903 219.407 187.856)" fill="url(#paint18_radial_43_132)"/>
</g>
<rect width="36.1786" height="3.82439" rx="1.91219" transform="matrix(-0.790064 -0.613025 -0.476765 0.879031 209.065 189.729)" fill="url(#paint19_linear_43_132)" fill-opacity="0.9"/>
<g filter="url(#filter5_f_43_132)">
<ellipse cx="12.1044" cy="13.0124" rx="12.1044" ry="13.0124" transform="matrix(-0.790065 -0.613024 -0.476766 0.87903 223.256 186.876)" fill="url(#paint20_radial_43_132)"/>
</g>
<g filter="url(#filter6_f_43_132)">
<ellipse cx="6.90598" cy="7.42405" rx="6.90598" ry="7.42405" transform="matrix(-0.790063 -0.613026 -0.476764 0.879032 217.222 198.957)" fill="url(#paint21_radial_43_132)"/>
</g>
<rect width="41.0469" height="2.88668" rx="1.44334" transform="matrix(-0.790065 -0.613023 -0.476766 0.87903 209.415 200.371)" fill="url(#paint22_linear_43_132)" fill-opacity="0.6"/>
<g filter="url(#filter7_f_43_132)">
<ellipse cx="9.13649" cy="9.82188" rx="9.13649" ry="9.82188" transform="matrix(-0.790065 -0.613022 -0.476767 0.879029 220.127 198.217)" fill="url(#paint23_radial_43_132)"/>
</g>
<g opacity="0.6">
<g filter="url(#filter8_f_43_132)">
<ellipse cx="4.61182" cy="4.96251" rx="4.61182" ry="4.96251" transform="matrix(0.791966 -0.610566 0.474403 0.880308 131.585 180.964)" fill="url(#paint24_radial_43_132)"/>
</g>
<rect width="29.3585" height="1.41042" rx="0.70521" transform="matrix(0.791966 -0.610566 0.474402 0.880308 136.623 182.385)" fill="url(#paint25_linear_43_132)" fill-opacity="0.6"/>
</g>
<rect width="29.0744" height="1.4221" rx="0.711051" transform="matrix(-0.827726 -0.561132 -0.428228 0.903671 241.042 153.154)" fill="url(#paint26_linear_43_132)"/>
<g filter="url(#filter9_f_43_132)">
<ellipse cx="4.5672" cy="5.00361" rx="4.5672" ry="5.00361" transform="matrix(-0.827726 -0.561132 -0.428228 0.903671 246.003 151.392)" fill="url(#paint27_radial_43_132)"/>
</g>
<g filter="url(#filter10_f_43_132)">
<ellipse cx="6.30631" cy="6.90889" rx="6.30631" ry="6.90889" transform="matrix(-0.827726 -0.561132 -0.428228 0.903671 248.26 150.646)" fill="url(#paint28_radial_43_132)"/>
</g>
<g opacity="0.3">
<rect width="29.0744" height="1.4221" rx="0.711051" transform="matrix(-0.827726 -0.561132 -0.428229 0.90367 243.933 171.254)" fill="url(#paint29_linear_43_132)"/>
<g filter="url(#filter11_f_43_132)">
<ellipse cx="4.5672" cy="5.00361" rx="4.5672" ry="5.00361" transform="matrix(-0.827726 -0.561132 -0.428228 0.903671 248.894 169.493)" fill="url(#paint30_radial_43_132)"/>
</g>
</g>
<rect width="50.0082" height="5.62998" rx="2.81499" transform="matrix(0.805216 -0.592982 0.45769 0.889112 160.242 172.928)" fill="url(#paint31_linear_43_132)" fill-opacity="0.6"/>
<g filter="url(#filter12_f_43_132)">
<ellipse cx="15.3658" cy="16.6444" rx="15.3658" ry="16.6444" transform="matrix(0.805216 -0.592982 0.45769 0.889112 143.69 168.16)" fill="url(#paint32_radial_43_132)"/>
</g>
<g opacity="0.5">
<rect width="29.5485" height="4.71089" rx="2.35544" transform="matrix(0.822868 -0.568232 0.434711 0.90057 159.715 204.533)" fill="url(#paint33_linear_43_132)" fill-opacity="0.6"/>
<g filter="url(#filter13_f_43_132)">
<ellipse cx="12.7436" cy="13.9272" rx="12.7436" ry="13.9272" transform="matrix(0.822868 -0.568233 0.43471 0.90057 146.021 200.094)" fill="url(#paint34_radial_43_132)"/>
</g>
</g>
<path d="M181.397 52.9244L181.184 52.7938L180.97 52.9244L147.13 73.6092L146.364 74.0774L147.107 74.5947L180.948 98.1325L181.184 98.2966L181.42 98.1325L215.26 74.5947L216.004 74.0774L215.238 73.6092L181.397 52.9244Z" stroke="url(#paint35_linear_43_132)" stroke-width="1.03515"/>
<path d="M386.833 680.01L386.729 679.783L386.479 679.772L346.854 678.068L345.957 678.029L346.286 678.873L361.247 717.284L361.351 717.552L361.638 717.547L402.854 716.883L403.76 716.869L403.386 716.053L386.833 680.01Z" stroke="url(#paint36_linear_43_132)" stroke-width="1.03515"/>
<path d="M181.183 47.9612L212.839 68.646L181.183 92.1838L149.746 68.646L181.183 47.9612Z" fill="url(#paint37_linear_43_132)" fill-opacity="0.6"/>
<path d="M149.746 68.6456L181.186 92.1856L182.822 0L149.746 68.6456Z" fill="url(#paint38_linear_43_132)"/>
<path d="M149.746 68.6456L181.186 92.1856L182.822 0L149.746 68.6456Z" fill="url(#paint39_linear_43_132)" fill-opacity="0.4"/>
<path d="M212.84 68.6479L181.186 92.1856L182.822 0L212.84 68.6479Z" fill="url(#paint40_linear_43_132)" fill-opacity="0.8"/>
<g filter="url(#filter14_f_43_132)">
<ellipse cx="4.61182" cy="4.96251" rx="4.61182" ry="4.96251" transform="matrix(0.791966 -0.610566 0.474403 0.880308 163.363 48.1655)" fill="url(#paint41_radial_43_132)"/>
</g>
<g filter="url(#filter15_f_43_132)">
<ellipse cx="4.61182" cy="4.96251" rx="4.61182" ry="4.96251" transform="matrix(0.791966 -0.610566 0.474403 0.880308 163.363 48.1655)" fill="url(#paint42_radial_43_132)"/>
</g>
<rect width="15.8853" height="1.41042" rx="0.70521" transform="matrix(0.791965 -0.610568 0.474401 0.880309 168.401 49.5859)" fill="url(#paint43_linear_43_132)" fill-opacity="0.6"/>
<g filter="url(#filter16_f_43_132)">
<ellipse cx="6.46648" cy="7.06703" rx="6.46648" ry="7.06703" transform="matrix(-0.822868 -0.568233 -0.434711 0.90057 210.674 62.9253)" fill="url(#paint44_radial_43_132)"/>
</g>
<rect width="26.5571" height="2.00856" rx="1.00428" transform="matrix(-0.822867 -0.568235 -0.434708 0.900572 203.642 65.3501)" fill="url(#paint45_linear_43_132)" fill-opacity="0.9"/>
<g filter="url(#filter17_f_43_132)">
<ellipse cx="8.55503" cy="9.34956" rx="8.55503" ry="9.34956" transform="matrix(-0.822868 -0.568233 -0.43471 0.90057 213.385 62.0562)" fill="url(#paint46_radial_43_132)"/>
</g>
<g opacity="0.4">
<g filter="url(#filter18_f_43_132)">
<ellipse cx="4.5339" cy="4.95497" rx="4.5339" ry="4.95497" transform="matrix(-0.822868 -0.568233 -0.434711 0.90057 201.742 66.4854)" fill="url(#paint47_radial_43_132)"/>
</g>
<rect width="18.6203" height="1.40828" rx="0.70414" transform="matrix(-0.822868 -0.568232 -0.434711 0.90057 196.812 68.1836)" fill="url(#paint48_linear_43_132)" fill-opacity="0.9"/>
<g filter="url(#filter19_f_43_132)">
<ellipse cx="5.99827" cy="6.55534" rx="5.99827" ry="6.55534" transform="matrix(-0.822868 -0.568233 -0.43471 0.90057 203.643 65.8755)" fill="url(#paint49_radial_43_132)"/>
</g>
</g>
<g opacity="0.4">
<g filter="url(#filter20_f_43_132)">
<ellipse cx="2.87001" cy="3.13656" rx="2.87001" ry="3.13656" transform="matrix(0.82287 -0.568227 0.434715 0.900567 166.088 61.8242)" fill="url(#paint50_radial_43_132)"/>
</g>
<rect width="11.7868" height="0.891458" rx="0.445729" transform="matrix(0.822866 -0.568235 0.434708 0.900571 169.208 62.8999)" fill="url(#paint51_linear_43_132)" fill-opacity="0.9"/>
<g filter="url(#filter21_f_43_132)">
<ellipse cx="3.79697" cy="4.14961" rx="3.79697" ry="4.14961" transform="matrix(0.822866 -0.568237 0.434707 0.900573 164.885 61.438)" fill="url(#paint52_radial_43_132)"/>
</g>
</g>
<path d="M212.84 68.6479L181.186 92.1856L182.822 0L212.84 68.6479Z" fill="url(#paint53_linear_43_132)" fill-opacity="0.4"/>
</g>
<defs>
<filter id="filter0_f_43_132" x="120.109" y="150.003" width="23.4468" height="26.8257" filterUnits="userSpaceOnUse" color-interpolation-filters="sRGB">
<feFlood flood-opacity="0" result="BackgroundImageFix"/>
<feBlend mode="normal" in="SourceGraphic" in2="BackgroundImageFix" result="shape"/>
<feGaussianBlur stdDeviation="1.55273" result="effect1_foregroundBlur_43_132"/>
</filter>
<filter id="filter1_f_43_132" x="120.109" y="150.003" width="23.4468" height="26.8257" filterUnits="userSpaceOnUse" color-interpolation-filters="sRGB">
<feFlood flood-opacity="0" result="BackgroundImageFix"/>
<feBlend mode="normal" in="SourceGraphic" in2="BackgroundImageFix" result="shape"/>
<feGaussianBlur stdDeviation="1.55273" result="effect1_foregroundBlur_43_132"/>
</filter>
<filter id="filter2_f_43_132" x="202.974" y="143.535" width="23.4463" height="26.8257" filterUnits="userSpaceOnUse" color-interpolation-filters="sRGB">
<feFlood flood-opacity="0" result="BackgroundImageFix"/>
<feBlend mode="normal" in="SourceGraphic" in2="BackgroundImageFix" result="shape"/>
<feGaussianBlur stdDeviation="1.55273" result="effect1_foregroundBlur_43_132"/>
</filter>
<filter id="filter3_f_43_132" x="200.189" y="140.206" width="29.0132" height="33.4839" filterUnits="userSpaceOnUse" color-interpolation-filters="sRGB">
<feFlood flood-opacity="0" result="BackgroundImageFix"/>
<feBlend mode="normal" in="SourceGraphic" in2="BackgroundImageFix" result="shape"/>
<feGaussianBlur stdDeviation="1.55273" result="effect1_foregroundBlur_43_132"/>
</filter>
<filter id="filter4_f_43_132" x="195.766" y="177.481" width="23.4458" height="26.8252" filterUnits="userSpaceOnUse" color-interpolation-filters="sRGB">
<feFlood flood-opacity="0" result="BackgroundImageFix"/>
<feBlend mode="normal" in="SourceGraphic" in2="BackgroundImageFix" result="shape"/>
<feGaussianBlur stdDeviation="1.55273" result="effect1_foregroundBlur_43_132"/>
</filter>
<filter id="filter5_f_43_132" x="192.983" y="174.153" width="29.0122" height="33.4824" filterUnits="userSpaceOnUse" color-interpolation-filters="sRGB">
<feFlood flood-opacity="0" result="BackgroundImageFix"/>
<feBlend mode="normal" in="SourceGraphic" in2="BackgroundImageFix" result="shape"/>
<feGaussianBlur stdDeviation="1.55273" result="effect1_foregroundBlur_43_132"/>
</filter>
<filter id="filter6_f_43_132" x="198.616" y="190.364" width="19.2197" height="21.7705" filterUnits="userSpaceOnUse" color-interpolation-filters="sRGB">
<feFlood flood-opacity="0" result="BackgroundImageFix"/>
<feBlend mode="normal" in="SourceGraphic" in2="BackgroundImageFix" result="shape"/>
<feGaussianBlur stdDeviation="1.55273" result="effect1_foregroundBlur_43_132"/>
</filter>
<filter id="filter7_f_43_132" x="196.515" y="187.852" width="23.4214" height="26.7959" filterUnits="userSpaceOnUse" color-interpolation-filters="sRGB">
<feFlood flood-opacity="0" result="BackgroundImageFix"/>
<feBlend mode="normal" in="SourceGraphic" in2="BackgroundImageFix" result="shape"/>
<feGaussianBlur stdDeviation="1.55273" result="effect1_foregroundBlur_43_132"/>
</filter>
<filter id="filter8_f_43_132" x="130.141" y="174.213" width="14.9028" height="16.6074" filterUnits="userSpaceOnUse" color-interpolation-filters="sRGB">
<feFlood flood-opacity="0" result="BackgroundImageFix"/>
<feBlend mode="normal" in="SourceGraphic" in2="BackgroundImageFix" result="shape"/>
<feGaussianBlur stdDeviation="1.55273" result="effect1_foregroundBlur_43_132"/>
</filter>
<filter id="filter9_f_43_132" x="232.629" y="145.047" width="14.9028" height="16.6074" filterUnits="userSpaceOnUse" color-interpolation-filters="sRGB">
<feFlood flood-opacity="0" result="BackgroundImageFix"/>
<feBlend mode="normal" in="SourceGraphic" in2="BackgroundImageFix" result="shape"/>
<feGaussianBlur stdDeviation="1.55273" result="effect1_foregroundBlur_43_132"/>
</filter>
<filter id="filter10_f_43_132" x="230.975" y="143.068" width="18.2134" height="20.5664" filterUnits="userSpaceOnUse" color-interpolation-filters="sRGB">
<feFlood flood-opacity="0" result="BackgroundImageFix"/>
<feBlend mode="normal" in="SourceGraphic" in2="BackgroundImageFix" result="shape"/>
<feGaussianBlur stdDeviation="1.55273" result="effect1_foregroundBlur_43_132"/>
</filter>
<filter id="filter11_f_43_132" x="235.52" y="163.148" width="14.9028" height="16.6074" filterUnits="userSpaceOnUse" color-interpolation-filters="sRGB">
<feFlood flood-opacity="0" result="BackgroundImageFix"/>
<feBlend mode="normal" in="SourceGraphic" in2="BackgroundImageFix" result="shape"/>
<feGaussianBlur stdDeviation="1.55273" result="effect1_foregroundBlur_43_132"/>
</filter>
<filter id="filter12_f_43_132" x="146.044" y="153.36" width="35.2744" height="40.9736" filterUnits="userSpaceOnUse" color-interpolation-filters="sRGB">
<feFlood flood-opacity="0" result="BackgroundImageFix"/>
<feBlend mode="normal" in="SourceGraphic" in2="BackgroundImageFix" result="shape"/>
<feGaussianBlur stdDeviation="1.55273" result="effect1_foregroundBlur_43_132"/>
</filter>
<filter id="filter13_f_43_132" x="147.345" y="187.805" width="30.4321" height="35.1811" filterUnits="userSpaceOnUse" color-interpolation-filters="sRGB">
<feFlood flood-opacity="0" result="BackgroundImageFix"/>
<feBlend mode="normal" in="SourceGraphic" in2="BackgroundImageFix" result="shape"/>
<feGaussianBlur stdDeviation="1.55273" result="effect1_foregroundBlur_43_132"/>
</filter>
<filter id="filter14_f_43_132" x="161.918" y="41.4146" width="14.9028" height="16.6074" filterUnits="userSpaceOnUse" color-interpolation-filters="sRGB">
<feFlood flood-opacity="0" result="BackgroundImageFix"/>
<feBlend mode="normal" in="SourceGraphic" in2="BackgroundImageFix" result="shape"/>
<feGaussianBlur stdDeviation="1.55273" result="effect1_foregroundBlur_43_132"/>
</filter>
<filter id="filter15_f_43_132" x="161.918" y="41.4146" width="14.9028" height="16.6074" filterUnits="userSpaceOnUse" color-interpolation-filters="sRGB">
<feFlood flood-opacity="0" result="BackgroundImageFix"/>
<feBlend mode="normal" in="SourceGraphic" in2="BackgroundImageFix" result="shape"/>
<feGaussianBlur stdDeviation="1.55273" result="effect1_foregroundBlur_43_132"/>
</filter>
<filter id="filter16_f_43_132" x="193.03" y="55.1597" width="18.5015" height="20.9111" filterUnits="userSpaceOnUse" color-interpolation-filters="sRGB">
<feFlood flood-opacity="0" result="BackgroundImageFix"/>
<feBlend mode="normal" in="SourceGraphic" in2="BackgroundImageFix" result="shape"/>
<feGaussianBlur stdDeviation="1.55273" result="effect1_foregroundBlur_43_132"/>
</filter>
<filter id="filter17_f_43_132" x="191.045" y="52.7852" width="22.4707" height="25.6592" filterUnits="userSpaceOnUse" color-interpolation-filters="sRGB">
<feFlood flood-opacity="0" result="BackgroundImageFix"/>
<feBlend mode="normal" in="SourceGraphic" in2="BackgroundImageFix" result="shape"/>
<feGaussianBlur stdDeviation="1.55273" result="effect1_foregroundBlur_43_132"/>
</filter>
<filter id="filter18_f_43_132" x="188.443" y="60.1123" width="14.8281" height="16.5181" filterUnits="userSpaceOnUse" color-interpolation-filters="sRGB">
<feFlood flood-opacity="0" result="BackgroundImageFix"/>
<feBlend mode="normal" in="SourceGraphic" in2="BackgroundImageFix" result="shape"/>
<feGaussianBlur stdDeviation="1.55273" result="effect1_foregroundBlur_43_132"/>
</filter>
<filter id="filter19_f_43_132" x="187.052" y="58.4473" width="17.6118" height="19.8467" filterUnits="userSpaceOnUse" color-interpolation-filters="sRGB">
<feFlood flood-opacity="0" result="BackgroundImageFix"/>
<feBlend mode="normal" in="SourceGraphic" in2="BackgroundImageFix" result="shape"/>
<feGaussianBlur stdDeviation="1.55273" result="effect1_foregroundBlur_43_132"/>
</filter>
<filter id="filter20_f_43_132" x="163.98" y="56.6504" width="11.666" height="12.7353" filterUnits="userSpaceOnUse" color-interpolation-filters="sRGB">
<feFlood flood-opacity="0" result="BackgroundImageFix"/>
<feBlend mode="normal" in="SourceGraphic" in2="BackgroundImageFix" result="shape"/>
<feGaussianBlur stdDeviation="1.55273" result="effect1_foregroundBlur_43_132"/>
</filter>
<filter id="filter21_f_43_132" x="163.099" y="55.5962" width="13.4277" height="14.8428" filterUnits="userSpaceOnUse" color-interpolation-filters="sRGB">
<feFlood flood-opacity="0" result="BackgroundImageFix"/>
<feBlend mode="normal" in="SourceGraphic" in2="BackgroundImageFix" result="shape"/>
<feGaussianBlur stdDeviation="1.55273" result="effect1_foregroundBlur_43_132"/>
</filter>
<linearGradient id="paint0_linear_43_132" x1="241.927" y1="157.187" x2="111.369" y2="180.931" gradientUnits="userSpaceOnUse">
<stop stop-color="#E8F5FF"/>
<stop offset="1" stop-color="#1E126B"/>
</linearGradient>
<linearGradient id="paint1_linear_43_132" x1="190.13" y1="205.67" x2="186.807" y2="255.678" gradientUnits="userSpaceOnUse">
<stop stop-color="#193DB9" stop-opacity="0"/>
<stop offset="1" stop-color="#57E1FF"/>
</linearGradient>
<linearGradient id="paint2_linear_43_132" x1="179" y1="108.855" x2="179" y2="349.715" gradientUnits="userSpaceOnUse">
<stop offset="0.5" stop-color="#1D1644" stop-opacity="0.5"/>
<stop offset="0.84375" stop-color="#FF6BA0"/>
<stop offset="1" stop-color="#FFA6C6"/>
</linearGradient>
<linearGradient id="paint3_linear_43_132" x1="179" y1="246.048" x2="179" y2="134.054" gradientUnits="userSpaceOnUse">
<stop stop-color="white"/>
<stop offset="0.666667" stop-color="#9A98FF" stop-opacity="0"/>
</linearGradient>
<linearGradient id="paint4_linear_43_132" x1="227.118" y1="109.66" x2="130.881" y2="109.66" gradientUnits="userSpaceOnUse">
<stop stop-color="white"/>
<stop offset="0.265625" stop-color="#52F5FF"/>
<stop offset="0.677083" stop-color="#5171E0"/>
<stop offset="1" stop-color="#FF86EC"/>
</linearGradient>
<linearGradient id="paint5_linear_43_132" x1="157.962" y1="123.658" x2="105.403" y2="176.717" gradientUnits="userSpaceOnUse">
<stop offset="0.338542" stop-color="#FF7CCB"/>
<stop offset="0.354167" stop-color="#FF7CCB"/>
<stop offset="1" stop-color="#12406B"/>
</linearGradient>
<linearGradient id="paint6_linear_43_132" x1="160.933" y1="130.121" x2="117.445" y2="188.259" gradientUnits="userSpaceOnUse">
<stop stop-color="white"/>
<stop offset="0.512495" stop-color="white" stop-opacity="0"/>
</linearGradient>
<linearGradient id="paint7_linear_43_132" x1="130.58" y1="113.12" x2="123.812" y2="166.959" gradientUnits="userSpaceOnUse">
<stop stop-color="#EDFF7C"/>
<stop offset="0.572917" stop-color="#FF7CCB"/>
<stop offset="1" stop-color="#00F0FF"/>
</linearGradient>
<linearGradient id="paint8_linear_43_132" x1="148.528" y1="119.731" x2="130.834" y2="157.255" gradientUnits="userSpaceOnUse">
<stop stop-color="white"/>
<stop offset="0.512495" stop-color="white" stop-opacity="0"/>
</linearGradient>
<linearGradient id="paint9_linear_43_132" x1="201.169" y1="117.802" x2="254.318" y2="176.604" gradientUnits="userSpaceOnUse">
<stop offset="0.255208" stop-color="#132C85"/>
<stop offset="0.65625" stop-color="#FF87F3"/>
<stop offset="0.975883" stop-color="white"/>
</linearGradient>
<linearGradient id="paint10_linear_43_132" x1="182.911" y1="113.76" x2="262.165" y2="159.576" gradientUnits="userSpaceOnUse">
<stop offset="0.191757" stop-color="#0F246D" stop-opacity="0.6"/>
<stop offset="0.646372" stop-color="#88C6FF"/>
<stop offset="1" stop-color="white"/>
</linearGradient>
<linearGradient id="paint11_linear_43_132" x1="183.318" y1="234.779" x2="215.071" y2="153.35" gradientUnits="userSpaceOnUse">
<stop stop-color="#D6448A"/>
<stop offset="1" stop-color="#FF5EAB" stop-opacity="0"/>
</linearGradient>
<radialGradient id="paint12_radial_43_132" cx="0" cy="0" r="1" gradientUnits="userSpaceOnUse" gradientTransform="translate(9.06826 9.91044) rotate(90) scale(9.91044 9.06826)">
<stop stop-color="white"/>
<stop offset="1" stop-color="#FF38B0" stop-opacity="0"/>
</radialGradient>
<linearGradient id="paint13_linear_43_132" x1="0.714546" y1="2.81663" x2="61.3" y2="2.81663" gradientUnits="userSpaceOnUse">
<stop stop-color="white"/>
<stop offset="0.828125" stop-color="#9CE7FF" stop-opacity="0"/>
</linearGradient>
<radialGradient id="paint14_radial_43_132" cx="0" cy="0" r="1" gradientUnits="userSpaceOnUse" gradientTransform="translate(9.06826 9.91044) rotate(90) scale(9.91044 9.06826)">
<stop stop-color="white"/>
<stop offset="1" stop-color="#FF38B0" stop-opacity="0"/>
</radialGradient>
<radialGradient id="paint15_radial_43_132" cx="0" cy="0" r="1" gradientUnits="userSpaceOnUse" gradientTransform="translate(9.06826 9.91045) rotate(90) scale(9.91045 9.06826)">
<stop stop-color="white"/>
<stop offset="1" stop-color="#FF38B0" stop-opacity="0"/>
</radialGradient>
<linearGradient id="paint16_linear_43_132" x1="0.714546" y1="2.81663" x2="61.3" y2="2.81663" gradientUnits="userSpaceOnUse">
<stop stop-color="#9EF9FF"/>
<stop offset="0.828125" stop-color="#9CE7FF" stop-opacity="0"/>
</linearGradient>
<radialGradient id="paint17_radial_43_132" cx="0" cy="0" r="1" gradientUnits="userSpaceOnUse" gradientTransform="translate(11.9971 13.1113) rotate(90) scale(13.1113 11.9971)">
<stop stop-color="white"/>
<stop offset="1" stop-color="#FF38B0" stop-opacity="0"/>
</radialGradient>
<radialGradient id="paint18_radial_43_132" cx="0" cy="0" r="1" gradientUnits="userSpaceOnUse" gradientTransform="translate(9.14931 9.83567) rotate(90) scale(9.83567 9.14931)">
<stop stop-color="white"/>
<stop offset="1" stop-color="#FF38B0" stop-opacity="0"/>
</radialGradient>
<linearGradient id="paint19_linear_43_132" x1="0.447814" y1="3.82429" x2="38.4174" y2="3.82429" gradientUnits="userSpaceOnUse">
<stop stop-color="#9EF9FF"/>
<stop offset="0.828125" stop-color="#9CE7FF" stop-opacity="0"/>
</linearGradient>
<radialGradient id="paint20_radial_43_132" cx="0" cy="0" r="1" gradientUnits="userSpaceOnUse" gradientTransform="translate(12.1044 13.0124) rotate(90) scale(13.0124 12.1044)">
<stop stop-color="white"/>
<stop offset="1" stop-color="#FF7BCA" stop-opacity="0"/>
</radialGradient>
<radialGradient id="paint21_radial_43_132" cx="0" cy="0" r="1" gradientUnits="userSpaceOnUse" gradientTransform="translate(6.90598 7.42405) rotate(90) scale(7.42405 6.90598)">
<stop stop-color="white"/>
<stop offset="1" stop-color="#FF38B0" stop-opacity="0"/>
</radialGradient>
<linearGradient id="paint22_linear_43_132" x1="0.508073" y1="2.88661" x2="43.587" y2="2.88661" gradientUnits="userSpaceOnUse">
<stop stop-color="#9EF9FF"/>
<stop offset="0.828125" stop-color="#9CE7FF" stop-opacity="0"/>
</linearGradient>
<radialGradient id="paint23_radial_43_132" cx="0" cy="0" r="1" gradientUnits="userSpaceOnUse" gradientTransform="translate(9.13649 9.82188) rotate(90) scale(9.82188 9.13649)">
<stop stop-color="white"/>
<stop offset="1" stop-color="#FFAFDF" stop-opacity="0"/>
</radialGradient>
<radialGradient id="paint24_radial_43_132" cx="0" cy="0" r="1" gradientUnits="userSpaceOnUse" gradientTransform="translate(4.61182 4.96251) rotate(90) scale(4.96251 4.61182)">
<stop stop-color="white"/>
<stop offset="1" stop-color="#FF38B0" stop-opacity="0"/>
</radialGradient>
<linearGradient id="paint25_linear_43_132" x1="0.363395" y1="1.41039" x2="31.1752" y2="1.41039" gradientUnits="userSpaceOnUse">
<stop stop-color="white"/>
<stop offset="0.828125" stop-color="#9CE7FF" stop-opacity="0"/>
</linearGradient>
<linearGradient id="paint26_linear_43_132" x1="0.359879" y1="1.42207" x2="30.8736" y2="1.42207" gradientUnits="userSpaceOnUse">
<stop stop-color="white"/>
<stop offset="0.828125" stop-color="#9CE7FF" stop-opacity="0"/>
</linearGradient>
<radialGradient id="paint27_radial_43_132" cx="0" cy="0" r="1" gradientUnits="userSpaceOnUse" gradientTransform="translate(4.5672 5.00361) rotate(90) scale(5.00361 4.5672)">
<stop stop-color="white"/>
<stop offset="1" stop-color="#FF38B0" stop-opacity="0"/>
</radialGradient>
<radialGradient id="paint28_radial_43_132" cx="0" cy="0" r="1" gradientUnits="userSpaceOnUse" gradientTransform="translate(6.30631 6.90889) rotate(90) scale(6.90889 6.30631)">
<stop stop-color="white"/>
<stop offset="1" stop-color="#FF38B0" stop-opacity="0"/>
</radialGradient>
<linearGradient id="paint29_linear_43_132" x1="0.359879" y1="1.42207" x2="30.8736" y2="1.42207" gradientUnits="userSpaceOnUse">
<stop stop-color="white"/>
<stop offset="0.828125" stop-color="#9CE7FF" stop-opacity="0"/>
</linearGradient>
<radialGradient id="paint30_radial_43_132" cx="0" cy="0" r="1" gradientUnits="userSpaceOnUse" gradientTransform="translate(4.5672 5.00361) rotate(90) scale(5.00361 4.5672)">
<stop stop-color="white"/>
<stop offset="1" stop-color="#FF38B0" stop-opacity="0"/>
</radialGradient>
<linearGradient id="paint31_linear_43_132" x1="0.618994" y1="5.62983" x2="53.1028" y2="5.62983" gradientUnits="userSpaceOnUse">
<stop stop-color="#D8FFFD"/>
<stop offset="0.875" stop-color="#9CE7FF" stop-opacity="0"/>
</linearGradient>
<radialGradient id="paint32_radial_43_132" cx="0" cy="0" r="1" gradientUnits="userSpaceOnUse" gradientTransform="translate(15.3658 16.6444) rotate(90) scale(16.6444 15.3658)">
<stop stop-color="white"/>
<stop offset="1" stop-color="#FF38B0" stop-opacity="0"/>
</radialGradient>
<linearGradient id="paint33_linear_43_132" x1="0.365747" y1="4.71077" x2="31.377" y2="4.71077" gradientUnits="userSpaceOnUse">
<stop stop-color="#D8FFFD"/>
<stop offset="1" stop-color="#9CE7FF" stop-opacity="0"/>
</linearGradient>
<radialGradient id="paint34_radial_43_132" cx="0" cy="0" r="1" gradientUnits="userSpaceOnUse" gradientTransform="translate(12.7436 13.9272) rotate(90) scale(13.9272 12.7436)">
<stop stop-color="white"/>
<stop offset="1" stop-color="#FF38B0" stop-opacity="0"/>
</radialGradient>
<linearGradient id="paint35_linear_43_132" x1="181.184" y1="97.4812" x2="181.184" y2="54.8676" gradientUnits="userSpaceOnUse">
<stop stop-color="white"/>
<stop offset="0.666667" stop-color="#9A98FF" stop-opacity="0"/>
</linearGradient>
<linearGradient id="paint36_linear_43_132" x1="361.806" y1="716.875" x2="385.572" y2="681.504" gradientUnits="userSpaceOnUse">
<stop stop-color="white"/>
<stop offset="0.666667" stop-color="#0500FF" stop-opacity="0"/>
</linearGradient>
<linearGradient id="paint37_linear_43_132" x1="187.403" y1="44.7777" x2="176.05" y2="80.5398" gradientUnits="userSpaceOnUse">
<stop stop-color="#132C85"/>
<stop offset="0.807292" stop-color="#FF87F3"/>
<stop offset="0.975883" stop-color="white"/>
</linearGradient>
<linearGradient id="paint38_linear_43_132" x1="154.427" y1="-3.65746" x2="144.494" y2="80.512" gradientUnits="userSpaceOnUse">
<stop offset="0.161458" stop-color="#E3FA53"/>
<stop offset="0.637806" stop-color="#FF7CCB" stop-opacity="0.8"/>
<stop offset="1" stop-color="#00F0FF" stop-opacity="0.7"/>
</linearGradient>
<linearGradient id="paint39_linear_43_132" x1="182.822" y1="1.65091" x2="164.515" y2="16.0391" gradientUnits="userSpaceOnUse">
<stop stop-color="white"/>
<stop offset="0.338173" stop-color="white" stop-opacity="0"/>
</linearGradient>
<linearGradient id="paint40_linear_43_132" x1="182.822" y1="4.31607e-08" x2="177.992" y2="84.2638" gradientUnits="userSpaceOnUse">
<stop offset="0.00313583" stop-color="#00E0FF"/>
<stop offset="0.545394" stop-color="#3E2DA5" stop-opacity="0.8"/>
<stop offset="1" stop-color="#FFF0F0"/>
</linearGradient>
<radialGradient id="paint41_radial_43_132" cx="0" cy="0" r="1" gradientUnits="userSpaceOnUse" gradientTransform="translate(4.61182 4.96251) rotate(90) scale(4.96251 4.61182)">
<stop stop-color="white"/>
<stop offset="1" stop-color="#FF38B0" stop-opacity="0"/>
</radialGradient>
<radialGradient id="paint42_radial_43_132" cx="0" cy="0" r="1" gradientUnits="userSpaceOnUse" gradientTransform="translate(4.61182 4.96251) rotate(90) scale(4.96251 4.61182)">
<stop stop-color="white"/>
<stop offset="1" stop-color="#FF38B0" stop-opacity="0"/>
</radialGradient>
<linearGradient id="paint43_linear_43_132" x1="0.196625" y1="1.41039" x2="16.8682" y2="1.41039" gradientUnits="userSpaceOnUse">
<stop stop-color="white"/>
<stop offset="0.828125" stop-color="white" stop-opacity="0"/>
</linearGradient>
<radialGradient id="paint44_radial_43_132" cx="0" cy="0" r="1" gradientUnits="userSpaceOnUse" gradientTransform="translate(6.46648 7.06703) rotate(90) scale(7.06703 6.46648)">
<stop stop-color="white"/>
<stop offset="1" stop-color="#FF38B0" stop-opacity="0"/>
</radialGradient>
<linearGradient id="paint45_linear_43_132" x1="0.32872" y1="2.00851" x2="28.2005" y2="2.00851" gradientUnits="userSpaceOnUse">
<stop stop-color="#9EF9FF"/>
<stop offset="0.828125" stop-color="#9CE7FF" stop-opacity="0"/>
</linearGradient>
<radialGradient id="paint46_radial_43_132" cx="0" cy="0" r="1" gradientUnits="userSpaceOnUse" gradientTransform="translate(8.55503 9.34956) rotate(90) scale(9.34956 8.55503)">
<stop stop-color="white"/>
<stop offset="1" stop-color="#FF38B0" stop-opacity="0"/>
</radialGradient>
<radialGradient id="paint47_radial_43_132" cx="0" cy="0" r="1" gradientUnits="userSpaceOnUse" gradientTransform="translate(4.5339 4.95497) rotate(90) scale(4.95497 4.5339)">
<stop stop-color="white"/>
<stop offset="1" stop-color="#FF38B0" stop-opacity="0"/>
</radialGradient>
<linearGradient id="paint48_linear_43_132" x1="0.230479" y1="1.40824" x2="19.7725" y2="1.40824" gradientUnits="userSpaceOnUse">
<stop stop-color="#9EF9FF"/>
<stop offset="0.828125" stop-color="#9CE7FF" stop-opacity="0"/>
</linearGradient>
<radialGradient id="paint49_radial_43_132" cx="0" cy="0" r="1" gradientUnits="userSpaceOnUse" gradientTransform="translate(5.99827 6.55534) rotate(90) scale(6.55534 5.99827)">
<stop stop-color="white"/>
<stop offset="1" stop-color="#FF38B0" stop-opacity="0"/>
</radialGradient>
<radialGradient id="paint50_radial_43_132" cx="0" cy="0" r="1" gradientUnits="userSpaceOnUse" gradientTransform="translate(2.87001 3.13656) rotate(90) scale(3.13656 2.87001)">
<stop stop-color="white"/>
<stop offset="1" stop-color="#FF38B0" stop-opacity="0"/>
</radialGradient>
<linearGradient id="paint51_linear_43_132" x1="0.145896" y1="0.891435" x2="12.5162" y2="0.891435" gradientUnits="userSpaceOnUse">
<stop stop-color="#9EF9FF"/>
<stop offset="0.828125" stop-color="#9CE7FF" stop-opacity="0"/>
</linearGradient>
<radialGradient id="paint52_radial_43_132" cx="0" cy="0" r="1" gradientUnits="userSpaceOnUse" gradientTransform="translate(3.79697 4.14961) rotate(90) scale(4.14961 3.79697)">
<stop stop-color="white"/>
<stop offset="1" stop-color="#FF38B0" stop-opacity="0"/>
</radialGradient>
<linearGradient id="paint53_linear_43_132" x1="208.377" y1="71.3205" x2="186.354" y2="50.9528" gradientUnits="userSpaceOnUse">
<stop stop-color="white"/>
<stop offset="1" stop-color="white" stop-opacity="0"/>
</linearGradient>
</defs>
</svg>
