<svg width="795" height="697" viewBox="0 0 795 697" fill="none" xmlns="http://www.w3.org/2000/svg">
<g style="mix-blend-mode:lighten">
<path d="M212.741 83.6844L251.89 141.626L206.58 130.039L212.741 83.6844Z" fill="url(#paint0_linear_401_86)"/>
<path d="M212.746 83.6854L251.894 141.627L299.925 64.9573L212.746 83.6854Z" fill="url(#paint1_linear_401_86)"/>
<path d="M147.741 89.0724L206.603 130.036L212.745 83.6854L147.741 89.0724Z" fill="url(#paint2_linear_401_86)"/>
<path d="M222.637 199.923L206.601 130.033L147.742 89.077L128.509 108.813L144.831 171.768L196.77 212.725L222.637 199.923Z" fill="url(#paint3_linear_401_86)" fill-opacity="0.5"/>
<path d="M195.29 179.871L247.433 199.066L251.894 141.626L212.745 83.6848L157.79 66.3904L156.141 121.93L195.29 179.871Z" fill="url(#paint4_radial_401_86)" fill-opacity="0.5"/>
<path d="M156.142 121.929L195.265 180.164L144.825 171.767L156.142 121.929Z" fill="url(#paint5_linear_401_86)"/>
<path d="M156.008 122.021L195.157 179.963L299.925 64.9573L156.008 122.021Z" fill="url(#paint6_linear_401_86)" fill-opacity="0.9"/>
<path d="M196.77 212.725L195.291 179.871L144.824 171.768L196.77 212.725Z" fill="url(#paint7_linear_401_86)" fill-opacity="0.5"/>
<path d="M128.509 108.813L156.141 121.929L144.828 171.774L128.509 108.813Z" fill="url(#paint8_linear_401_86)" fill-opacity="0.5"/>
<path d="M196.77 212.725L195.291 179.874L247.435 199.069L196.77 212.725Z" fill="url(#paint9_linear_401_86)"/>
<path d="M128.51 108.813L156.142 121.928L157.791 66.3889L128.51 108.813Z" fill="url(#paint10_linear_401_86)"/>
<path d="M128.51 108.813L156.142 121.928L157.791 66.3889L128.51 108.813Z" fill="url(#paint11_linear_401_86)" fill-opacity="0.6"/>
<path d="M299.547 65.3804L195.265 180.164L246.887 199.24L299.547 65.3804Z" fill="url(#paint12_linear_401_86)" fill-opacity="0.9"/>
<path d="M299.925 64.9573L156.137 121.923L157.785 66.3842L299.925 64.9573Z" fill="url(#paint13_linear_401_86)" fill-opacity="0.9"/>
</g>
<g style="mix-blend-mode:plus-lighter">
<path d="M1228.09 363.989C1229.05 451.637 1161.68 531.931 1051.54 590.828C941.433 649.705 788.786 687.077 619.7 688.942C450.614 690.806 297.18 656.81 185.804 600.376C74.3896 543.922 5.26072 465.134 4.29412 377.485C3.32751 289.837 70.7019 209.543 180.844 150.646C290.949 91.7695 443.595 54.3978 612.682 52.533C781.768 50.6683 935.202 84.6645 1046.58 141.099C1157.99 197.552 1227.12 276.341 1228.09 363.989Z" stroke="url(#paint14_linear_401_86)" stroke-width="1.55273"/>
<path d="M1010.33 448.145C1010.91 500.929 968.722 549.465 899.406 585.165C830.15 620.832 734.109 643.51 627.704 644.683C521.3 645.857 424.782 625.303 354.756 591.171C284.669 557.009 241.42 509.416 240.838 456.631C240.255 403.846 282.445 355.31 351.762 319.611C421.017 283.943 517.059 261.265 623.463 260.092C729.867 258.918 826.386 279.472 896.411 313.604C966.498 347.766 1009.75 395.36 1010.33 448.145Z" fill="url(#paint15_radial_401_86)" stroke="url(#paint16_linear_401_86)" stroke-width="2.07031"/>
<ellipse cx="642.303" cy="525.019" rx="198.398" ry="97.075" transform="rotate(-0.631847 642.303 525.019)" fill="url(#paint17_radial_401_86)" fill-opacity="0.6"/>
<g filter="url(#filter0_d_401_86)">
<path fill-rule="evenodd" clip-rule="evenodd" d="M643.371 622.089C782.299 620.557 894.341 566.56 893.623 501.485C892.905 436.409 779.7 384.897 640.772 386.429C501.844 387.961 389.802 441.957 390.52 507.033C391.237 572.109 504.443 623.621 643.371 622.089ZM643.371 622.088C752.937 620.88 841.278 576.441 840.687 522.831C840.096 469.221 750.796 426.742 641.23 427.95C531.665 429.158 443.324 473.597 443.915 527.207C444.506 580.817 533.806 623.296 643.371 622.088Z" fill="url(#paint18_radial_401_86)" fill-opacity="0.6" shape-rendering="crispEdges"/>
</g>
<g filter="url(#filter1_d_401_86)">
<path fill-rule="evenodd" clip-rule="evenodd" d="M643.488 632.593C841.932 630.405 1001.94 549.917 1000.86 452.82C999.794 355.722 838.054 278.783 639.61 280.971C441.165 283.16 281.163 363.647 282.233 460.745C283.304 557.843 445.043 634.782 643.488 632.593ZM643.371 622.088C782.299 620.556 894.341 566.559 893.623 501.483C892.905 436.408 779.7 384.895 640.772 386.427C501.844 387.96 389.802 441.956 390.52 507.032C391.237 572.108 504.443 623.62 643.371 622.088Z" fill="url(#paint19_radial_401_86)" shape-rendering="crispEdges"/>
</g>
<path fill-rule="evenodd" clip-rule="evenodd" d="M644.477 617.33C733.762 616.041 805.561 579.735 805.078 535.974C804.594 492.025 731.386 457.2 641.564 458.191C551.742 459.181 479.32 495.612 479.805 539.562C480.287 583.324 552.876 618.039 642.174 617.356C571.717 617.832 514.485 590.421 514.104 555.878C513.721 521.147 570.952 492.358 641.933 491.575C712.914 490.792 770.766 518.312 771.15 553.043C771.53 587.585 714.922 616.25 644.477 617.33Z" fill="url(#paint20_radial_401_86)"/>
<path d="M913.338 491.108C913.739 527.478 883.956 560.92 835.058 585.517C786.203 610.093 718.463 625.726 643.422 626.554C568.382 627.381 500.313 613.246 450.928 589.754C401.5 566.241 370.987 533.464 370.585 497.094C370.184 460.724 399.967 427.282 448.865 402.685C497.72 378.109 565.46 362.477 640.501 361.649C715.541 360.821 783.61 374.956 832.995 398.449C882.423 421.962 912.936 454.739 913.338 491.108Z" stroke="url(#paint21_linear_401_86)" stroke-width="1.29394"/>
<rect width="2.53488" height="2.53488" transform="matrix(0.760781 0.649008 -0.746283 0.665629 329.664 494.209)" fill="#00FFF0"/>
<rect width="5.12621" height="5.12621" transform="matrix(0.760803 0.648982 -0.746306 0.665603 358.903 540.878)" fill="#00FFF0"/>
<rect width="2.38222" height="2.38222" transform="matrix(-0.760803 -0.648982 -0.746306 0.665603 458.91 543.146)" fill="#00FFF0"/>
<rect width="2.53489" height="2.53489" transform="matrix(0.760803 0.648982 -0.746306 0.665603 417.414 585.59)" fill="#00FFF0"/>
<rect width="2.5349" height="2.5349" transform="matrix(0.760826 0.648956 -0.746329 0.665578 270.031 489.276)" fill="#00FFF0"/>
<rect width="2.5349" height="2.5349" transform="matrix(0.760826 0.648956 -0.746329 0.665578 283.586 409.701)" fill="#00FFF0" fill-opacity="0.5"/>
<rect width="1.77163" height="1.77163" transform="matrix(0.760803 0.648982 -0.746306 0.665603 325.414 455.604)" fill="#00FFF0" fill-opacity="0.5"/>
<rect width="3.3053" height="3.3053" transform="matrix(0.760803 0.648982 -0.746306 0.665603 302.292 447.623)" fill="#00FFF0" fill-opacity="0.5"/>
</g>
<defs>
<filter id="filter0_d_401_86" x="387.928" y="378.632" width="518.637" height="251.254" filterUnits="userSpaceOnUse" color-interpolation-filters="sRGB">
<feFlood flood-opacity="0" result="BackgroundImageFix"/>
<feColorMatrix in="SourceAlpha" type="matrix" values="0 0 0 0 0 0 0 0 0 0 0 0 0 0 0 0 0 0 127 0" result="hardAlpha"/>
<feOffset dx="5.17577"/>
<feGaussianBlur stdDeviation="3.88183"/>
<feComposite in2="hardAlpha" operator="out"/>
<feColorMatrix type="matrix" values="0 0 0 0 0.119531 0 0 0 0 0.163828 0 0 0 0 0.5625 0 0 0 0.1 0"/>
<feBlend mode="normal" in2="BackgroundImageFix" result="effect1_dropShadow_401_86"/>
<feBlend mode="normal" in="SourceGraphic" in2="effect1_dropShadow_401_86" result="shape"/>
</filter>
<filter id="filter1_d_401_86" x="279.64" y="272.645" width="734.169" height="367.24" filterUnits="userSpaceOnUse" color-interpolation-filters="sRGB">
<feFlood flood-opacity="0" result="BackgroundImageFix"/>
<feColorMatrix in="SourceAlpha" type="matrix" values="0 0 0 0 0 0 0 0 0 0 0 0 0 0 0 0 0 0 127 0" result="hardAlpha"/>
<feOffset dx="5.17577" dy="-0.517577"/>
<feGaussianBlur stdDeviation="3.88183"/>
<feComposite in2="hardAlpha" operator="out"/>
<feColorMatrix type="matrix" values="0 0 0 0 0.119531 0 0 0 0 0.163828 0 0 0 0 0.5625 0 0 0 0.1 0"/>
<feBlend mode="normal" in2="BackgroundImageFix" result="effect1_dropShadow_401_86"/>
<feBlend mode="normal" in="SourceGraphic" in2="effect1_dropShadow_401_86" result="shape"/>
</filter>
<linearGradient id="paint0_linear_401_86" x1="193.477" y1="181.093" x2="135.689" y2="117.076" gradientUnits="userSpaceOnUse">
<stop stop-color="white"/>
<stop offset="0.227296" stop-color="#47FFDE" stop-opacity="0.8"/>
<stop offset="1" stop-color="#6D61FF" stop-opacity="0.5"/>
</linearGradient>
<linearGradient id="paint1_linear_401_86" x1="203.438" y1="174.369" x2="144.123" y2="112.286" gradientUnits="userSpaceOnUse">
<stop stop-color="white"/>
<stop offset="0.227296" stop-color="#47FFDE" stop-opacity="0.8"/>
<stop offset="1" stop-color="#6D61FF" stop-opacity="0.5"/>
</linearGradient>
<linearGradient id="paint2_linear_401_86" x1="155.312" y1="68.0643" x2="183.537" y2="116.483" gradientUnits="userSpaceOnUse">
<stop stop-color="white"/>
<stop offset="0.227296" stop-color="#47FFDE" stop-opacity="0.8"/>
<stop offset="1" stop-color="#6D61FF" stop-opacity="0.5"/>
</linearGradient>
<linearGradient id="paint3_linear_401_86" x1="221.448" y1="120.001" x2="129.984" y2="181.8" gradientUnits="userSpaceOnUse">
<stop stop-color="#6D61FF"/>
<stop offset="1" stop-color="#47FFDE"/>
</linearGradient>
<radialGradient id="paint4_radial_401_86" cx="0" cy="0" r="1" gradientUnits="userSpaceOnUse" gradientTransform="translate(204.018 131.778) rotate(-124.045) scale(118.549 50.5768)">
<stop stop-color="#6D61FF"/>
<stop offset="1" stop-color="#47FFDE"/>
</radialGradient>
<linearGradient id="paint5_linear_401_86" x1="193.478" y1="181.095" x2="135.69" y2="117.078" gradientUnits="userSpaceOnUse">
<stop stop-color="white"/>
<stop offset="0.227296" stop-color="#47FFDE" stop-opacity="0.8"/>
<stop offset="1" stop-color="#6D61FF" stop-opacity="0.5"/>
</linearGradient>
<linearGradient id="paint6_linear_401_86" x1="177.188" y1="177.193" x2="277.707" y2="202.67" gradientUnits="userSpaceOnUse">
<stop offset="0.0729167" stop-color="#4B86FA" stop-opacity="0.8"/>
<stop offset="0.791667" stop-color="#FCA6EF" stop-opacity="0.8"/>
<stop offset="1" stop-color="white"/>
</linearGradient>
<linearGradient id="paint7_linear_401_86" x1="194.234" y1="178.307" x2="144.207" y2="186.571" gradientUnits="userSpaceOnUse">
<stop stop-color="#E598F2" stop-opacity="0.68"/>
<stop offset="0.649" stop-color="#E316C3" stop-opacity="0.6053"/>
<stop offset="1" stop-color="#322994" stop-opacity="0.5"/>
</linearGradient>
<linearGradient id="paint8_linear_401_86" x1="157.197" y1="123.493" x2="122.051" y2="125.34" gradientUnits="userSpaceOnUse">
<stop stop-color="#7BFFE7" stop-opacity="0.9"/>
<stop offset="1" stop-color="#322994" stop-opacity="0.5"/>
</linearGradient>
<linearGradient id="paint9_linear_401_86" x1="244.957" y1="200.742" x2="175.029" y2="192.399" gradientUnits="userSpaceOnUse">
<stop stop-color="white"/>
<stop offset="0.586705" stop-color="#B55EEA" stop-opacity="0.58"/>
<stop offset="1" stop-color="#6D61FF" stop-opacity="0.5"/>
</linearGradient>
<linearGradient id="paint10_linear_401_86" x1="125.329" y1="106.664" x2="164.11" y2="118.658" gradientUnits="userSpaceOnUse">
<stop stop-color="#0A3892"/>
<stop offset="0.536458" stop-color="#29B2ED" stop-opacity="0.8"/>
<stop offset="0.967948" stop-color="white"/>
</linearGradient>
<linearGradient id="paint11_linear_401_86" x1="150.618" y1="128.428" x2="149.889" y2="90.6046" gradientUnits="userSpaceOnUse">
<stop stop-color="#FF439D"/>
<stop offset="1" stop-color="#FF43D6" stop-opacity="0"/>
</linearGradient>
<linearGradient id="paint12_linear_401_86" x1="307.012" y1="115.91" x2="253.906" y2="80.5564" gradientUnits="userSpaceOnUse">
<stop offset="0.0729167" stop-color="#4B86FA" stop-opacity="0.8"/>
<stop offset="0.791667" stop-color="#FCA6EF" stop-opacity="0.8"/>
<stop offset="1" stop-color="white"/>
</linearGradient>
<linearGradient id="paint13_linear_401_86" x1="10.1041" y1="87.5147" x2="89.281" y2="-62.0021" gradientUnits="userSpaceOnUse">
<stop offset="0.0729167" stop-color="#4B86FA" stop-opacity="0.8"/>
<stop offset="0.791667" stop-color="#FCA6EF" stop-opacity="0.8"/>
<stop offset="1" stop-color="white"/>
</linearGradient>
<linearGradient id="paint14_linear_401_86" x1="396.732" y1="913.348" x2="528.092" y2="186.426" gradientUnits="userSpaceOnUse">
<stop stop-color="white"/>
<stop offset="0.508554" stop-color="#30FFFF"/>
<stop offset="1" stop-color="white" stop-opacity="0"/>
</linearGradient>
<radialGradient id="paint15_radial_401_86" cx="0" cy="0" r="1" gradientUnits="userSpaceOnUse" gradientTransform="translate(254.122 634.539) rotate(-42.4087) scale(388.806 688.736)">
<stop stop-color="white"/>
<stop offset="0.462474" stop-color="#3A45AA"/>
<stop offset="1" stop-color="#3A45AA" stop-opacity="0"/>
</radialGradient>
<linearGradient id="paint16_linear_401_86" x1="431.358" y1="640.336" x2="589.557" y2="331.391" gradientUnits="userSpaceOnUse">
<stop stop-color="white"/>
<stop offset="0.442828" stop-color="#30FFFF"/>
<stop offset="1" stop-color="white" stop-opacity="0"/>
</linearGradient>
<radialGradient id="paint17_radial_401_86" cx="0" cy="0" r="1" gradientUnits="userSpaceOnUse" gradientTransform="translate(745.574 435.935) rotate(145.068) scale(274.754 471.263)">
<stop offset="0.39201" stop-color="#1B29A4" stop-opacity="0"/>
<stop offset="0.841913" stop-color="#2938BB" stop-opacity="0.5"/>
<stop offset="1" stop-color="#172075" stop-opacity="0.5"/>
</radialGradient>
<radialGradient id="paint18_radial_401_86" cx="0" cy="0" r="1" gradientUnits="userSpaceOnUse" gradientTransform="translate(771.818 394.685) rotate(144.682) scale(382.189 648.915)">
<stop offset="0.39201" stop-color="#6675FF" stop-opacity="0"/>
<stop offset="0.841913" stop-color="#6675FF" stop-opacity="0.5"/>
<stop offset="1" stop-color="#192059" stop-opacity="0"/>
</radialGradient>
<radialGradient id="paint19_radial_401_86" cx="0" cy="0" r="1" gradientUnits="userSpaceOnUse" gradientTransform="translate(826.802 293.381) rotate(143.504) scale(553.916 954.247)">
<stop offset="0.39201" stop-color="#6675FF" stop-opacity="0"/>
<stop offset="0.841913" stop-color="#6675FF" stop-opacity="0.5"/>
<stop offset="1" stop-color="#DBDEFF" stop-opacity="0"/>
</radialGradient>
<radialGradient id="paint20_radial_401_86" cx="0" cy="0" r="1" gradientUnits="userSpaceOnUse" gradientTransform="translate(726.293 463.808) rotate(144.437) scale(225.242 386.338)">
<stop offset="0.39201" stop-color="#17217A" stop-opacity="0"/>
<stop offset="0.841913" stop-color="#1A2374" stop-opacity="0.5"/>
<stop offset="1" stop-color="#151E6C" stop-opacity="0.5"/>
</radialGradient>
<linearGradient id="paint21_linear_401_86" x1="504.974" y1="623.531" x2="591.387" y2="349.078" gradientUnits="userSpaceOnUse">
<stop stop-color="white"/>
<stop offset="0.508554" stop-color="#30FFFF"/>
<stop offset="1" stop-color="white" stop-opacity="0"/>
</linearGradient>
</defs>
</svg>
