<svg width="32" height="26" viewBox="0 0 32 26" fill="none" xmlns="http://www.w3.org/2000/svg">
<path d="M27.1277 2.84625C30.721 8.18179 32.5177 14.1707 31.8643 21.0851C31.8643 21.0851 31.8643 21.1395 31.8099 21.1395C29.4143 22.9362 26.6921 24.2973 23.8066 25.1684C23.7521 25.2229 23.7521 25.1684 23.6977 25.1684C23.0988 24.2973 22.5543 23.4262 22.0643 22.5006C22.0643 22.4462 22.0643 22.4462 22.0643 22.3918L22.1188 22.3373C22.9899 22.0106 23.8066 21.6295 24.6232 21.1395C24.6232 21.1395 24.6777 21.1395 24.6777 21.0851C24.6777 21.0306 24.6777 21.0306 24.6232 20.9762C24.4599 20.8673 24.2966 20.7584 24.1332 20.5951C24.0788 20.5951 24.0788 20.5951 24.0243 20.5951C18.8521 22.9906 13.1899 22.9906 7.96326 20.5951C7.90882 20.5951 7.85437 20.5951 7.85437 20.5951C7.69104 20.7584 7.52771 20.8673 7.36437 20.9762C7.30993 21.0306 7.30993 21.0306 7.30993 21.0851C7.30993 21.1395 7.30993 21.1395 7.36437 21.1395C8.12659 21.6295 8.9977 22.0106 9.86881 22.3373C9.86881 22.3373 9.86881 22.3918 9.92326 22.3918C9.92326 22.4462 9.92326 22.4462 9.92326 22.5006C9.43326 23.4262 8.88881 24.2973 8.28993 25.1684C8.23548 25.1684 8.18104 25.2229 8.18104 25.1684C5.29549 24.2973 2.57327 22.9362 0.177721 21.1395C0.123277 21.1395 0.123277 21.0851 0.123277 21.0851C-0.421166 15.0962 0.722165 9.0529 4.85993 2.84625C4.85993 2.84625 4.85993 2.84625 4.91438 2.84625C6.98326 1.86626 9.16104 1.21292 11.3933 0.831815C11.4477 0.77737 11.5021 0.831815 11.5021 0.831815C11.8288 1.37626 12.101 1.97514 12.3188 2.51959C14.7688 2.13848 17.2188 2.13848 19.6688 2.51959C19.8866 1.97514 20.1588 1.37626 20.4855 0.831815C20.4855 0.831815 20.5399 0.77737 20.5943 0.831815C22.8266 1.21292 25.0043 1.86626 27.0732 2.84625C27.1277 2.84625 27.1277 2.84625 27.1277 2.84625ZM10.6855 17.4373C12.2644 17.4373 13.571 15.9673 13.571 14.2251C13.571 12.4284 12.3188 11.0129 10.6855 11.0129C9.10659 11.0129 7.79993 12.4284 7.79993 14.2251C7.79993 15.9673 9.10659 17.4373 10.6855 17.4373ZM21.3021 17.4373C22.9355 17.4373 24.1877 15.9673 24.1877 14.2251C24.2421 12.4284 22.9355 11.0129 21.3021 11.0129C19.7232 11.0129 18.471 12.4284 18.471 14.2251C18.471 15.9673 19.7232 17.4373 21.3021 17.4373Z" fill="#5865F2"/>
</svg>
