<svg width="146" height="80" viewBox="0 0 346 80" fill="none" xmlns="http://www.w3.org/2000/svg">
<path d="M346 0H0V18.5507L5.83966 23.1884V56.8116L0 61.4493V80H346V61.4493L340.16 56.8116V23.1884L346 18.5507V0Z" fill="#06BD2E" fill-opacity="0.45"/>
<path d="M146.124 25.1062C146.028 26.1382 145.956 27.1342 145.908 28.0942C145.884 29.0542 145.872 29.7862 145.872 30.2902C145.872 30.8422 145.884 31.3582 145.908 31.8382C145.932 32.3182 145.956 32.7382 145.98 33.0982H145.152C144.888 31.2982 144.528 29.8822 144.072 28.8502C143.616 27.7942 143.004 27.0502 142.236 26.6182C141.468 26.1622 140.448 25.9342 139.176 25.9342H137.628C136.908 25.9342 136.356 25.9942 135.972 26.1142C135.588 26.2342 135.324 26.4862 135.18 26.8702C135.06 27.2542 135 27.8422 135 28.6342V46.6342C135 47.5462 135.096 48.2302 135.288 48.6862C135.48 49.1422 135.852 49.4422 136.404 49.5862C136.956 49.7302 137.748 49.8142 138.78 49.8382V50.5942C138.084 50.5462 137.184 50.5222 136.08 50.5222C134.976 50.4982 133.836 50.4862 132.66 50.4862C131.652 50.4862 130.68 50.4982 129.744 50.5222C128.808 50.5222 127.992 50.5462 127.296 50.5942V49.8742C128.088 49.8262 128.676 49.7302 129.06 49.5862C129.468 49.4422 129.732 49.1542 129.852 48.7222C129.996 48.2902 130.068 47.6422 130.068 46.7782V28.9222C130.068 28.0342 129.996 27.3862 129.852 26.9782C129.732 26.5462 129.468 26.2582 129.06 26.1142C128.676 25.9462 128.088 25.8502 127.296 25.8262V25.1062C128.256 25.1302 129.264 25.1542 130.32 25.1782C131.4 25.1782 132.456 25.1902 133.488 25.2142C134.544 25.2142 135.516 25.2142 136.404 25.2142C137.316 25.2142 138.048 25.2142 138.6 25.2142C139.704 25.2142 140.952 25.2142 142.344 25.2142C143.76 25.1902 145.02 25.1542 146.124 25.1062ZM140.688 37.6342C140.688 37.6342 140.688 37.7542 140.688 37.9942C140.688 38.2342 140.688 38.3542 140.688 38.3542H133.92C133.92 38.3542 133.92 38.2342 133.92 37.9942C133.92 37.7542 133.92 37.6342 133.92 37.6342H140.688ZM141.516 32.8822C141.42 34.2502 141.372 35.2942 141.372 36.0142C141.396 36.7342 141.408 37.3942 141.408 37.9942C141.408 38.5942 141.42 39.2542 141.444 39.9742C141.468 40.6942 141.528 41.7382 141.624 43.1062H140.796C140.7 42.2902 140.52 41.5222 140.256 40.8022C139.992 40.0582 139.584 39.4702 139.032 39.0382C138.504 38.5822 137.736 38.3542 136.728 38.3542V37.6342C137.472 37.6342 138.084 37.4782 138.564 37.1662C139.044 36.8542 139.416 36.4582 139.68 35.9782C139.968 35.4742 140.184 34.9582 140.328 34.4302C140.496 33.8782 140.616 33.3622 140.688 32.8822H141.516ZM159.703 24.9982L168.451 47.5702C168.811 48.4342 169.195 49.0342 169.603 49.3702C170.035 49.6822 170.431 49.8502 170.791 49.8742V50.5942C170.167 50.5462 169.411 50.5222 168.523 50.5222C167.659 50.4982 166.771 50.4862 165.859 50.4862C164.803 50.4862 163.819 50.4982 162.907 50.5222C161.995 50.5222 161.251 50.5462 160.675 50.5942V49.8742C161.899 49.8262 162.679 49.6222 163.015 49.2622C163.351 48.8782 163.279 48.0742 162.799 46.8502L156.463 29.7502L157.111 28.9582L151.351 43.8982C150.895 45.0982 150.619 46.0822 150.523 46.8502C150.427 47.6182 150.487 48.2182 150.703 48.6502C150.919 49.0822 151.279 49.3942 151.783 49.5862C152.287 49.7542 152.911 49.8502 153.655 49.8742V50.5942C152.887 50.5462 152.143 50.5222 151.423 50.5222C150.703 50.4982 149.983 50.4862 149.263 50.4862C148.735 50.4862 148.231 50.4982 147.751 50.5222C147.295 50.5222 146.887 50.5462 146.527 50.5942V49.8742C147.055 49.7542 147.571 49.4422 148.075 48.9382C148.603 48.4342 149.107 47.5582 149.587 46.3102L157.831 24.9982C158.119 25.0222 158.431 25.0342 158.767 25.0342C159.103 25.0342 159.415 25.0222 159.703 24.9982ZM162.835 40.2262V40.9462H152.107L152.467 40.2262H162.835ZM199.358 50.5582L199.934 50.7742C199.718 51.9742 199.406 53.0062 198.998 53.8702C198.614 54.7342 198.122 55.4062 197.522 55.8862C197.042 56.2942 196.406 56.6422 195.614 56.9302C194.822 57.2182 193.886 57.3622 192.806 57.3622C191.51 57.3622 190.238 57.1582 188.99 56.7502C187.766 56.3422 186.506 55.8382 185.21 55.2382C183.938 54.6382 182.57 54.0742 181.106 53.5462C180.938 53.4982 180.77 53.4502 180.602 53.4022C180.458 53.3542 180.326 53.3182 180.206 53.2942C179.75 53.5102 179.258 53.6782 178.73 53.7982C178.202 53.9182 177.698 53.9782 177.218 53.9782C176.738 53.9782 176.342 53.9062 176.03 53.7622C175.718 53.6182 175.562 53.4022 175.562 53.1142C175.562 52.5142 176.21 52.2142 177.506 52.2142C178.346 52.2142 179.246 52.3582 180.206 52.6462C181.094 52.4062 181.85 52.1302 182.474 51.8182C183.122 51.5302 183.782 51.2542 184.454 50.9902C185.15 50.7262 185.966 50.5582 186.902 50.4862L186.938 51.0622C186.218 51.1342 185.582 51.2662 185.03 51.4582C184.478 51.6742 183.926 51.9022 183.374 52.1422C182.846 52.3822 182.21 52.6102 181.466 52.8262C183.026 52.9942 184.526 53.1622 185.966 53.3302C187.43 53.4982 188.786 53.6182 190.034 53.6902C191.306 53.7862 192.446 53.7982 193.454 53.7262C195.014 53.6062 196.25 53.3062 197.162 52.8262C198.074 52.3462 198.806 51.5902 199.358 50.5582ZM186.002 24.6022C188.45 24.6022 190.598 25.1182 192.446 26.1502C194.294 27.1822 195.722 28.6702 196.73 30.6142C197.762 32.5342 198.278 34.8742 198.278 37.6342C198.278 40.3222 197.75 42.6742 196.694 44.6902C195.662 46.7062 194.21 48.2782 192.338 49.4062C190.49 50.5342 188.366 51.0982 185.966 51.0982C183.518 51.0982 181.37 50.5822 179.522 49.5502C177.674 48.5182 176.234 47.0302 175.202 45.0862C174.194 43.1422 173.69 40.8022 173.69 38.0662C173.69 35.3782 174.218 33.0262 175.274 31.0102C176.33 28.9942 177.782 27.4222 179.63 26.2942C181.478 25.1662 183.602 24.6022 186.002 24.6022ZM185.858 25.2502C184.442 25.2502 183.206 25.7902 182.15 26.8702C181.118 27.9502 180.314 29.4382 179.738 31.3342C179.162 33.2302 178.874 35.4262 178.874 37.9222C178.874 40.4662 179.198 42.6862 179.846 44.5822C180.494 46.4542 181.37 47.9062 182.474 48.9382C183.578 49.9462 184.79 50.4502 186.11 50.4502C187.526 50.4502 188.75 49.9102 189.782 48.8302C190.838 47.7502 191.654 46.2622 192.23 44.3662C192.806 42.4462 193.094 40.2502 193.094 37.7782C193.094 35.2102 192.77 32.9902 192.122 31.1182C191.474 29.2462 190.598 27.8062 189.494 26.7982C188.414 25.7662 187.202 25.2502 185.858 25.2502ZM209.489 31.4782C210.497 31.4782 211.361 31.6222 212.081 31.9102C212.801 32.1982 213.329 32.4502 213.665 32.6662C214.481 33.2662 214.973 32.8822 215.141 31.5142H215.933C215.885 32.2102 215.849 33.0382 215.825 33.9982C215.801 34.9342 215.789 36.1942 215.789 37.7782H214.997C214.877 36.8902 214.649 36.0262 214.313 35.1862C213.977 34.3462 213.485 33.6502 212.837 33.0982C212.189 32.5222 211.337 32.2342 210.281 32.2342C209.537 32.2342 208.913 32.4502 208.409 32.8822C207.929 33.3142 207.689 33.9262 207.689 34.7182C207.689 35.4382 207.905 36.0742 208.337 36.6262C208.769 37.1542 209.321 37.6582 209.993 38.1382C210.689 38.5942 211.409 39.0982 212.153 39.6502C213.017 40.2262 213.785 40.8142 214.457 41.4142C215.129 41.9902 215.669 42.6382 216.077 43.3582C216.485 44.0542 216.689 44.8822 216.689 45.8422C216.689 46.9462 216.377 47.8942 215.753 48.6862C215.153 49.4542 214.349 50.0542 213.341 50.4862C212.357 50.8942 211.265 51.0982 210.065 51.0982C209.417 51.0982 208.829 51.0382 208.301 50.9182C207.773 50.7982 207.305 50.6422 206.897 50.4502C206.585 50.2822 206.297 50.1262 206.033 49.9822C205.793 49.8382 205.541 49.7182 205.277 49.6222C205.037 49.5022 204.821 49.5502 204.629 49.7662C204.461 49.9822 204.329 50.3422 204.233 50.8462H203.441C203.489 50.0782 203.525 49.1422 203.549 48.0382C203.573 46.9342 203.585 45.4702 203.585 43.6462H204.377C204.545 44.9662 204.797 46.1302 205.133 47.1382C205.493 48.1222 206.009 48.9022 206.681 49.4782C207.353 50.0302 208.217 50.3062 209.273 50.3062C209.729 50.3062 210.161 50.2102 210.569 50.0182C211.001 49.8262 211.349 49.5262 211.613 49.1182C211.901 48.7102 212.045 48.1582 212.045 47.4622C212.045 46.4062 211.685 45.5302 210.965 44.8342C210.245 44.1382 209.345 43.3942 208.265 42.6022C207.449 42.0022 206.681 41.4142 205.961 40.8382C205.265 40.2622 204.689 39.6142 204.233 38.8942C203.801 38.1742 203.585 37.3222 203.585 36.3382C203.585 35.2582 203.861 34.3702 204.413 33.6742C204.965 32.9542 205.685 32.4142 206.573 32.0542C207.485 31.6702 208.457 31.4782 209.489 31.4782Z" fill="white"/>
</svg>
