<svg width="224" height="170" viewBox="0 0 224 170" fill="none" xmlns="http://www.w3.org/2000/svg">
<path d="M24.5358 32.488H25.0638L24.5837 37H1.78375V36.568C2.59975 36.568 2.98375 35.896 2.98375 35.176V5.368C2.98375 4.6 2.55175 4.024 1.78375 4.024V3.544H22.7598L23.2398 8.104H22.7118C22.3278 5.8 21.2238 4.264 18.7758 4.264H7.44775V19.288H11.0478C12.8238 19.144 13.5918 17.848 13.5918 16.216H14.0718V23.128H13.5918C13.5918 21.4 12.7758 20.152 11.0478 20.056H7.44775V36.28H20.5518C22.9998 36.28 24.1038 34.744 24.5358 32.488ZM66.511 35.176C66.511 35.896 66.895 36.568 67.663 36.568V37H60.799V36.568C61.615 36.568 62.047 35.896 62.047 35.176V15.304C62.047 9.688 61.087 4.312 55.663 4.312C54.031 4.312 50.527 5.8 48.895 9.88C49.327 11.464 49.471 13.192 49.471 14.92V35.176C49.471 35.896 49.903 36.568 50.671 36.568V37H43.807V36.568C44.623 36.568 45.007 35.896 45.007 35.176V15.304C45.007 9.688 44.047 4.312 38.623 4.312C37.231 4.312 34.303 5.32 32.479 8.344V35.176C32.479 35.896 32.911 36.568 33.679 36.568V37H26.815V36.568C27.631 36.568 28.015 35.896 28.015 35.176V5.368C28.015 4.6 27.583 4.024 26.815 4.024V3.496H33.679V4.024C32.911 4.024 32.479 4.648 32.479 5.368V7.432C34.255 4.84 37.135 3.16 39.871 3.16C44.959 3.16 47.455 5.704 48.607 9.016C50.143 5.56 53.599 3.16 56.863 3.16C64.831 3.16 66.463 9.256 66.511 14.92V35.176ZM93.1608 32.488H93.6888L93.2087 37H70.4088V36.568C71.2248 36.568 71.6088 35.896 71.6088 35.176V5.368C71.6088 4.6 71.1768 4.024 70.4088 4.024V3.544H91.3848L91.8648 8.104H91.3368C90.9528 5.8 89.8488 4.264 87.4008 4.264H76.0728V19.288H79.6728C81.4488 19.144 82.2168 17.848 82.2168 16.216H82.6968V23.128H82.2168C82.2168 21.4 81.4008 20.152 79.6728 20.056H76.0728V36.28H89.1768C91.6248 36.28 92.7288 34.744 93.1608 32.488ZM120.016 35.176C120.352 35.8 121.264 36.568 122.032 36.568V37H114.592V36.568C115.408 36.568 115.36 35.8 115.024 35.176L108.784 23.464C108.4 23.512 108.016 23.512 107.584 23.512H101.056L101.104 35.176C101.104 35.416 101.152 35.656 101.248 35.848C101.296 36.04 101.44 36.184 101.632 36.328C101.776 36.472 102.016 36.568 102.304 36.568V37H95.44V36.568C95.728 36.568 95.968 36.472 96.16 36.328C96.352 36.184 96.448 36.04 96.496 35.848C96.592 35.656 96.64 35.416 96.64 35.176V5.368C96.64 5.128 96.592 4.888 96.496 4.696C96.448 4.552 96.352 4.408 96.16 4.264C95.968 4.12 95.728 4.024 95.44 4.024V3.496H108.304C120.88 3.496 124 18.712 113.248 22.6C113.248 22.648 113.296 22.696 113.296 22.696L120.016 35.176ZM107.2 22.744C118.144 22.744 117.856 4.264 106.48 4.264H101.056V22.744H107.2ZM150.969 35.176C151.305 35.944 151.689 36.568 152.649 36.568V37H145.305V36.568C146.121 36.568 146.697 36.088 146.312 35.272L141.993 25C134.361 26.104 136.809 37.48 128.217 37.48C123.129 37.48 121.592 32.776 123.273 29.128L133.833 6.184C134.409 4.984 133.977 3.976 132.969 3.976V3.448H137.289L150.969 35.176ZM128.265 36.712C136.089 36.712 133.929 25.48 141.657 24.28L134.361 6.904L124.281 28.84C122.745 32.152 123.705 36.712 128.265 36.712ZM176.598 32.488H177.126L176.646 37H153.846V36.568C154.662 36.568 155.046 35.896 155.046 35.176V5.416C155.046 4.6 154.662 4.024 153.846 4.024V3.544H160.71V4.024C159.894 4.024 159.51 4.696 159.51 5.416V36.328H172.614C175.062 36.328 176.166 34.744 176.598 32.488ZM189.112 3.496C212.056 3.496 212.248 37 189.112 37H178.456V36.568C178.744 36.568 178.984 36.472 179.176 36.328C179.368 36.184 179.464 36.04 179.512 35.848C179.608 35.656 179.656 35.416 179.656 35.176V5.368C179.656 5.128 179.608 4.888 179.512 4.696C179.464 4.552 179.368 4.408 179.176 4.264C178.984 4.12 178.744 4.024 178.456 4.024V3.496H189.112ZM188.392 36.28C206.248 36.28 206.152 4.264 188.392 4.264H184.072L184.12 36.28H188.392ZM56.0809 82.04L56.8009 82.088C55.4089 89.288 49.9849 95.528 40.5769 95.528C18.4489 95.528 18.4489 61.016 40.5769 61.016C47.5369 61.016 52.2889 64.424 54.8809 69.128H49.8889C47.6329 62.408 37.9849 59.672 31.2649 64.712C17.4409 74.984 35.7769 102.104 49.8889 91.88C53.3929 89.384 55.4569 85.304 56.0809 82.04ZM65.6243 62.024C64.8563 62.024 64.4243 62.648 64.4243 63.368V93.176C64.4243 93.896 64.8563 94.568 65.6243 94.568V95H58.7603V94.568C59.5763 94.568 59.9603 93.896 59.9603 93.176V63.368C59.9603 62.6 59.5283 62.024 58.7603 62.024V61.496H65.6243V62.024ZM92.9881 61.496L93.4201 66.104H92.9401C92.5081 63.848 91.5001 62.264 89.0041 62.264H82.4281V93.176C82.4281 93.416 82.4761 93.656 82.5721 93.848C82.6681 94.04 82.8121 94.184 82.9561 94.328C83.1001 94.472 83.3401 94.568 83.6761 94.568V95H76.8121V94.568C77.1001 94.568 77.3401 94.472 77.5321 94.328C77.6761 94.184 77.7721 94.04 77.8681 93.848C77.9641 93.656 78.0121 93.416 78.0121 93.176V62.264H71.4841C69.0361 62.264 67.9321 63.8 67.5001 66.104H67.0201L67.4521 61.496H92.9881ZM116.6 62.024V61.496H122.216V62.024C120.776 61.928 119.432 62.84 118.712 64.328L109.736 80.456V93.272C109.736 93.992 110.264 94.568 110.984 94.568V95H104.12V94.568C104.84 94.568 105.32 93.944 105.32 93.272V81.08L95.0963 63.128C94.6163 62.408 93.7523 61.976 92.8883 62.024V61.496H101.336V62.024C100.28 62.024 99.7043 62.264 100.28 63.368L109.304 79.544L117.704 64.328C118.424 63.032 118.28 62.024 116.6 62.024ZM161.416 69.32C161.416 80.84 141.16 82.328 140.872 90.92H159.544C159.784 90.92 160.024 90.872 160.216 90.776C160.36 90.728 160.504 90.584 160.648 90.44C160.792 90.248 160.888 90.008 160.888 89.72H161.416V95H139.768V94.472C139.768 78.008 156.712 78.728 156.712 68.456C156.712 64.808 155.272 61.736 151.912 61.736C148.36 61.736 147.064 65.384 147.064 69.512L141.736 71.864C141.736 65.432 145.912 60.968 151.912 60.968C155.32 60.968 161.416 63.176 161.416 69.32ZM168.148 92.408C168.148 93.56 167.428 94.52 166.516 94.52C165.604 94.52 164.884 93.56 164.884 92.408C164.884 91.256 165.604 90.248 166.516 90.248C167.428 90.248 168.148 91.256 168.148 92.408ZM185.282 61.016C203.426 61.016 203.666 95.528 185.282 95.528C166.994 95.528 167.042 61.016 185.282 61.016ZM185.282 94.76C197.33 94.76 197.33 61.736 185.282 61.736C173.282 61.736 173.282 94.76 185.282 94.76Z" fill="url(#paint0_linear_90_100)"/>
<g filter="url(#filter0_b_90_100)">
<path d="M37.3571 169.2L29.7683 161.274V137H37.3571L194.232 137V144.999L192.334 148.069V160.144L194.232 161.15V169.2L37.3571 169.2Z" fill="#11E332" fill-opacity="0.45"/>
</g>
<path d="M67.588 156.468C67.686 156.65 67.952 156.874 68.176 156.874V157H66.006V156.874C66.244 156.874 66.23 156.65 66.132 156.468L64.312 153.052C64.2 153.066 64.088 153.066 63.962 153.066H62.058L62.072 156.468C62.072 156.538 62.086 156.608 62.114 156.664C62.128 156.72 62.17 156.762 62.226 156.804C62.268 156.846 62.338 156.874 62.422 156.874V157H60.42V156.874C60.504 156.874 60.574 156.846 60.63 156.804C60.686 156.762 60.714 156.72 60.728 156.664C60.756 156.608 60.77 156.538 60.77 156.468V147.774C60.77 147.704 60.756 147.634 60.728 147.578C60.714 147.536 60.686 147.494 60.63 147.452C60.574 147.41 60.504 147.382 60.42 147.382V147.228H64.172C67.84 147.228 68.75 151.666 65.614 152.8C65.614 152.814 65.628 152.828 65.628 152.828L67.588 156.468ZM63.85 152.842C67.042 152.842 66.958 147.452 63.64 147.452H62.058V152.842H63.85ZM75.8738 155.684H76.0278L75.8878 157H69.2378V156.874C69.4758 156.874 69.5878 156.678 69.5878 156.468V147.774C69.5878 147.55 69.4618 147.382 69.2378 147.382V147.242H75.3558L75.4958 148.572H75.3418C75.2298 147.9 74.9078 147.452 74.1938 147.452H70.8898V151.834H71.9398C72.4578 151.792 72.6818 151.414 72.6818 150.938H72.8218V152.954H72.6818C72.6818 152.45 72.4438 152.086 71.9398 152.058H70.8898V156.79H74.7118C75.4258 156.79 75.7478 156.342 75.8738 155.684ZM83.0191 151.33C87.5411 151.33 86.6311 157.154 81.2971 157.154C74.8571 157.154 74.8431 147.088 81.2971 147.088C83.3271 147.088 84.7131 148.096 85.4691 149.454H84.0131C83.3691 147.508 80.4151 146.836 78.5811 148.166C75.0951 150.672 78.5111 156.748 82.1511 156.748C85.8191 156.748 85.2451 151.61 82.6271 151.596C81.1571 151.582 79.8971 153.584 78.2171 152.94V152.758C80.0791 153.416 80.8071 151.33 83.0191 151.33ZM89.1762 147.382C88.9522 147.382 88.8262 147.564 88.8262 147.774V156.468C88.8262 156.678 88.9522 156.874 89.1762 156.874V157H87.1742V156.874C87.4122 156.874 87.5242 156.678 87.5242 156.468V147.774C87.5242 147.55 87.3982 147.382 87.1742 147.382V147.228H89.1762V147.382ZM94.3153 151.484C95.7153 152.128 97.7173 152.968 97.7033 154.774C97.6753 156.496 95.6593 157.154 93.9233 157.154C92.6353 157.154 91.6413 156.776 90.7313 155.88L90.5773 154.172H90.7173C91.1373 155.866 92.0613 156.93 93.9513 156.93C95.0993 156.93 96.5273 156.636 96.5273 155.334C96.5273 154.326 95.1833 153.43 94.3713 153.066L93.4893 152.674C92.2013 152.086 90.5773 151.386 90.5773 149.692C90.5773 148.026 92.2993 147.088 93.9513 147.088C95.0573 147.06 96.0933 147.452 96.9053 148.222L97.0873 149.944H96.9333C96.5693 148.32 95.7153 147.312 93.9793 147.312C92.8733 147.312 91.6553 147.816 91.6553 149.062C91.6553 150.392 93.3073 151.008 94.3153 151.484ZM105.975 147.228L106.101 148.572H105.961C105.835 147.914 105.541 147.452 104.813 147.452H102.895V156.468C102.895 156.538 102.909 156.608 102.937 156.664C102.965 156.72 103.007 156.762 103.049 156.804C103.091 156.846 103.161 156.874 103.259 156.874V157H101.257V156.874C101.341 156.874 101.411 156.846 101.467 156.804C101.509 156.762 101.537 156.72 101.565 156.664C101.593 156.608 101.607 156.538 101.607 156.468V147.452H99.7026C98.9886 147.452 98.6666 147.9 98.5406 148.572H98.4006L98.5266 147.228H105.975ZM113.687 155.684H113.841L113.701 157H107.051V156.874C107.289 156.874 107.401 156.678 107.401 156.468V147.774C107.401 147.55 107.275 147.382 107.051 147.382V147.242H113.169L113.309 148.572H113.155C113.043 147.9 112.721 147.452 112.007 147.452H108.703V151.834H109.753C110.271 151.792 110.495 151.414 110.495 150.938H110.635V152.954H110.495C110.495 152.45 110.257 152.086 109.753 152.058H108.703V156.79H112.525C113.239 156.79 113.561 156.342 113.687 155.684ZM122.08 156.468C122.178 156.65 122.444 156.874 122.668 156.874V157H120.498V156.874C120.736 156.874 120.722 156.65 120.624 156.468L118.804 153.052C118.692 153.066 118.58 153.066 118.454 153.066H116.55L116.564 156.468C116.564 156.538 116.578 156.608 116.606 156.664C116.62 156.72 116.662 156.762 116.718 156.804C116.76 156.846 116.83 156.874 116.914 156.874V157H114.912V156.874C114.996 156.874 115.066 156.846 115.122 156.804C115.178 156.762 115.206 156.72 115.22 156.664C115.248 156.608 115.262 156.538 115.262 156.468V147.774C115.262 147.704 115.248 147.634 115.22 147.578C115.206 147.536 115.178 147.494 115.122 147.452C115.066 147.41 114.996 147.382 114.912 147.382V147.228H118.664C122.332 147.228 123.242 151.666 120.106 152.8C120.106 152.814 120.12 152.828 120.12 152.828L122.08 156.468ZM118.342 152.842C121.534 152.842 121.45 147.452 118.132 147.452H116.55V152.842H118.342ZM136.973 156.468C136.973 156.678 137.099 156.874 137.323 156.874V157H135.321V156.874C135.559 156.874 135.671 156.678 135.671 156.468V150.672C135.671 149.706 135.391 147.382 133.613 147.382C132.647 147.382 131.331 148.096 130.673 149.44V156.468C130.673 156.678 130.799 156.874 131.023 156.874V157H129.021V156.874C129.259 156.874 129.371 156.678 129.371 156.468V147.774C129.371 147.55 129.245 147.382 129.021 147.382V147.228H131.023V147.382C130.799 147.382 130.673 147.564 130.673 147.774V149.034C131.261 147.97 132.549 147.13 133.725 147.13C136.133 147.13 136.973 149.006 136.973 150.112V156.468ZM143.404 147.088C149.844 147.088 149.844 157.154 143.404 157.154C136.964 157.154 136.95 147.088 143.404 147.088ZM146.12 156.09C150.208 153.15 144.692 145.268 140.688 148.166C136.614 151.106 142.004 159.072 146.12 156.09ZM159.569 147.228H161.249V147.382C160.801 147.368 160.507 147.634 160.339 148.04L156.615 157.154H156.503L154.641 152.688C153.955 154.354 153.381 155.768 152.807 157.154H152.695L148.789 147.774C148.677 147.536 148.579 147.382 148.299 147.382V147.228H150.455V147.382C150.203 147.382 150.021 147.494 150.147 147.76L153.297 155.432L154.529 152.422L153.591 150.182C152.807 148.292 153.549 146.878 154.837 146.878C155.817 146.878 156.783 147.732 155.887 149.916C155.663 150.476 155.495 150.896 155.355 151.204C155.859 152.436 156.615 154.228 157.105 155.432L160.115 148.012C160.283 147.592 159.947 147.382 159.569 147.382V147.228ZM154.837 149.916C154.893 150.07 155.047 150.434 155.243 150.924L155.663 149.916C156.055 148.922 156.195 147.242 155.103 147.242C154.067 147.242 154.641 149.37 154.837 149.916ZM162.329 147.228H163.379L162.875 155.32H162.833L162.329 147.228ZM163.379 156.342C163.379 156.706 163.141 157 162.861 157C162.567 157 162.343 156.706 162.343 156.342C162.343 155.992 162.567 155.684 162.861 155.684C163.141 155.684 163.379 155.992 163.379 156.342Z" fill="#FEFEFF"/>
<defs>
<filter id="filter0_b_90_100" x="25.7683" y="133" width="172.463" height="40.2002" filterUnits="userSpaceOnUse" color-interpolation-filters="sRGB">
<feFlood flood-opacity="0" result="BackgroundImageFix"/>
<feGaussianBlur in="BackgroundImageFix" stdDeviation="2"/>
<feComposite in2="SourceAlpha" operator="in" result="effect1_backgroundBlur_90_100"/>
<feBlend mode="normal" in="SourceGraphic" in2="effect1_backgroundBlur_90_100" result="shape"/>
</filter>
<linearGradient id="paint0_linear_90_100" x1="-13.1667" y1="83.3505" x2="259.167" y2="83.3505" gradientUnits="userSpaceOnUse">
<stop stop-color="#11E332"/>
<stop offset="0.2" stop-color="#35FF55" stop-opacity="0.699855"/>
<stop offset="0.4" stop-color="#4CDA62" stop-opacity="0.961275"/>
<stop offset="0.6" stop-color="#6AD07A"/>
<stop offset="0.8" stop-color="#40C555"/>
<stop offset="1" stop-color="#00FF29" stop-opacity="0"/>
</linearGradient>
</defs>
</svg>
