<svg width="25" height="25" viewBox="0 0 25 25" fill="none" xmlns="http://www.w3.org/2000/svg">
<g style="mix-blend-mode:lighten" clip-path="url(#clip0_1055_290)">
<path d="M0.189453 12.494C0.189453 17.6344 0.194756 19.1377 0.218999 19.4299C0.306688 20.4848 0.472786 21.1413 0.828847 21.8564C1.10252 22.4075 1.41976 22.8422 1.86445 23.2711C2.67544 24.0523 3.67317 24.5258 4.85915 24.6972C5.43491 24.7805 5.55233 24.8048 8.49324 24.8097C9.47354 24.8116 10.7637 24.8097 12.4942 24.8097C17.6306 24.8097 19.1324 24.804 19.4241 24.7794C20.4506 24.6942 21.0965 24.5332 21.8029 24.1923C23.1552 23.5408 24.1703 22.2965 24.5491 20.8307C24.6798 20.3231 24.7518 19.7625 24.7859 19.0428C24.7991 18.7379 24.8086 15.6301 24.8086 12.5203C24.8086 9.41055 24.8048 6.30079 24.7896 6.00346C24.7504 5.17015 24.6855 4.68626 24.5472 4.15124C24.1665 2.67591 23.1665 1.45435 21.7953 0.789598C21.1059 0.455328 20.4355 0.285826 19.4626 0.209124C19.2504 0.192457 15.8684 0.18545 12.491 0.18545C9.11294 0.18545 5.73718 0.193024 5.52506 0.20969C4.53642 0.287338 3.87165 0.456844 3.169 0.801908C2.59381 1.08504 2.16426 1.39943 1.72506 1.85585C0.947029 2.67041 0.473544 3.66659 0.302332 4.85368C0.219188 5.42885 0.194567 5.54343 0.189453 8.48652L0.189453 12.494Z" fill="url(#paint0_radial_1055_290)"/>
<path d="M0.189453 12.494C0.189453 17.6344 0.194756 19.1377 0.218999 19.4299C0.306688 20.4848 0.472786 21.1413 0.828847 21.8564C1.10252 22.4075 1.41976 22.8422 1.86445 23.2711C2.67544 24.0523 3.67317 24.5258 4.85915 24.6972C5.43491 24.7805 5.55233 24.8048 8.49324 24.8097C9.47354 24.8116 10.7637 24.8097 12.4942 24.8097C17.6306 24.8097 19.1324 24.804 19.4241 24.7794C20.4506 24.6942 21.0965 24.5332 21.8029 24.1923C23.1552 23.5408 24.1703 22.2965 24.5491 20.8307C24.6798 20.3231 24.7518 19.7625 24.7859 19.0428C24.7991 18.7379 24.8086 15.6301 24.8086 12.5203C24.8086 9.41055 24.8048 6.30079 24.7896 6.00346C24.7504 5.17015 24.6855 4.68626 24.5472 4.15124C24.1665 2.67591 23.1665 1.45435 21.7953 0.789598C21.1059 0.455328 20.4355 0.285826 19.4626 0.209124C19.2504 0.192457 15.8684 0.18545 12.491 0.18545C9.11294 0.18545 5.73718 0.193024 5.52506 0.20969C4.53642 0.287338 3.87165 0.456844 3.169 0.801908C2.59381 1.08504 2.16426 1.39943 1.72506 1.85585C0.947029 2.67041 0.473544 3.66659 0.302332 4.85368C0.219188 5.42885 0.194567 5.54343 0.189453 8.48652L0.189453 12.494Z" fill="url(#paint1_radial_1055_290)"/>
<path d="M3.40918 12.4994C3.40918 14.9683 3.41998 15.2781 3.4641 16.2478C3.50842 17.2156 3.66164 17.8762 3.88645 18.4542C4.11865 19.0521 4.42926 19.5593 4.93475 20.0645C5.44005 20.5702 5.94725 20.8808 6.54498 21.1138C7.12319 21.3391 7.78399 21.4925 8.75141 21.5361C9.72111 21.5795 10.0311 21.5908 12.5001 21.5908C14.969 21.5908 15.2779 21.5798 16.2476 21.5359C17.2154 21.4914 17.876 21.3382 18.4541 21.1136C19.052 20.8812 19.5592 20.5706 20.0645 20.0651C20.5702 19.56 20.8815 19.0528 21.1137 18.4553C21.3385 17.8769 21.4918 17.2161 21.5361 16.2486C21.5802 15.2789 21.591 14.9692 21.591 12.5006C21.591 10.0315 21.5802 9.72262 21.5361 8.75295C21.4918 7.78518 21.3385 7.12383 21.1137 6.54544C20.8815 5.94773 20.5702 5.44131 20.0645 4.93621C19.5592 4.43054 19.052 4.11995 18.4543 3.887C17.876 3.66352 17.2152 3.51012 16.2478 3.46466C15.2781 3.42111 14.969 3.40974 12.5001 3.40974C10.0311 3.40974 9.7213 3.42111 8.7516 3.46466C7.7838 3.51012 7.12319 3.66352 6.54516 3.887C5.94725 4.11995 5.44005 4.43054 4.93475 4.93621C4.42907 5.44188 4.11846 5.94754 3.88645 6.54601C3.66164 7.12554 3.50842 7.7865 3.4641 8.75428C3.41998 9.72395 3.40918 10.0326 3.40918 12.5023V12.4994ZM5.04744 13.3149C5.04706 13.0729 5.04744 12.8028 5.04744 12.4994C5.04744 10.0722 5.05615 9.78455 5.09971 8.82606C5.14024 7.93972 5.28835 7.45867 5.41278 7.13823C5.57755 6.714 5.77452 6.41154 6.0927 6.09356C6.41088 5.77539 6.71391 5.57843 7.13816 5.41328C7.45823 5.28885 7.93929 5.14056 8.82566 5.10022C9.78399 5.05666 10.0719 5.04719 12.498 5.04719C14.9241 5.04719 15.212 5.05666 16.1704 5.10022C17.0567 5.14075 17.5378 5.28885 17.8579 5.41328C18.2821 5.57805 18.5842 5.77539 18.9022 6.09356C19.2204 6.41173 19.4173 6.71381 19.5821 7.13823C19.7071 7.45829 19.8548 7.93972 19.8954 8.82606C19.9389 9.78436 19.9484 10.0722 19.9484 12.4994C19.9484 14.9268 19.9389 15.2145 19.8954 16.1728C19.8544 17.0591 19.7063 17.5402 19.5819 17.8608C19.4171 18.285 19.2202 18.5881 18.902 18.9062C18.5838 19.2244 18.2815 19.4214 17.8571 19.5865C17.537 19.711 17.056 19.8592 16.1696 19.8996C15.2113 19.9431 14.9234 19.9519 12.4957 19.9519C10.0681 19.9519 9.78172 19.9431 8.82338 19.8996C7.93702 19.8591 7.45596 19.711 7.13551 19.5865C6.71126 19.4218 6.40823 19.2244 6.09005 18.9062C5.77187 18.5881 5.5749 18.285 5.40975 17.8608C5.28475 17.5404 5.13702 17.0591 5.0963 16.1728C5.05842 15.3342 5.04706 15.0092 5.04516 13.3149H5.04744ZM6.55691 7.64692C6.55691 8.24918 7.04497 8.7378 7.64744 8.7378C8.24971 8.7378 8.73835 8.24918 8.73835 7.64692C8.73835 7.04467 8.24971 6.55605 7.64744 6.55605C7.04516 6.55605 6.55653 7.04467 6.55653 7.64692H6.55691ZM7.83153 12.4994C7.83153 15.0776 9.92187 17.1678 12.5001 17.1678C15.0783 17.1678 17.1677 15.0776 17.1677 12.4994C17.1677 9.92129 15.0783 7.83177 12.5001 7.83177C9.92187 7.83177 7.83153 9.92129 7.83153 12.4994ZM9.46979 12.4994C9.46979 10.826 10.8264 9.46922 12.5001 9.46922C14.1736 9.46922 15.5304 10.826 15.5304 12.4994C15.5304 14.1731 14.1736 15.5296 12.5001 15.5296C10.8264 15.5296 9.46979 14.1731 9.46979 12.4994Z" fill="white"/>
</g>
<defs>
<radialGradient id="paint0_radial_1055_290" cx="0" cy="0" r="1" gradientUnits="userSpaceOnUse" gradientTransform="translate(26.7048 18.2695) rotate(-180) scale(24.3994 22.6988)">
<stop stop-color="#FFDD55"/>
<stop offset="0.1" stop-color="#FFDD55"/>
<stop offset="0.5" stop-color="#FF543E"/>
<stop offset="1" stop-color="#C837AB"/>
</radialGradient>
<radialGradient id="paint1_radial_1055_290" cx="0" cy="0" r="1" gradientUnits="userSpaceOnUse" gradientTransform="translate(1.96297 28.9354) rotate(-11.322) scale(10.9067 44.968)">
<stop stop-color="#3771C8"/>
<stop offset="0.128" stop-color="#3771C8"/>
<stop offset="1" stop-color="#6600FF" stop-opacity="0"/>
</radialGradient>
<clipPath id="clip0_1055_290">
<rect width="25" height="25" fill="white" transform="matrix(0 -1 1 0 0 25)"/>
</clipPath>
</defs>
</svg>
