<svg width="24" height="24" viewBox="0 0 24 24" fill="none" xmlns="http://www.w3.org/2000/svg">
<path d="M12.0011 0.36377C8.84086 0.36377 8.44425 0.377588 7.20304 0.434073C5.96425 0.4908 5.11868 0.686921 4.3788 0.974679C3.61347 1.27189 2.96425 1.66947 2.31747 2.3165C1.67019 2.96328 1.27262 3.6125 0.974436 4.37759C0.685951 5.11771 0.489588 5.96353 0.43383 7.20183C0.378315 8.44304 0.36377 8.83989 0.36377 12.0001C0.36377 15.1604 0.37783 15.5558 0.434073 16.797C0.491042 18.0358 0.687164 18.8813 0.974679 19.6212C1.27213 20.3866 1.66971 21.0358 2.31674 21.6826C2.96328 22.3298 3.6125 22.7284 4.37734 23.0256C5.11771 23.3133 5.96353 23.5095 7.20207 23.5662C8.44328 23.6227 8.83965 23.6365 11.9996 23.6365C15.1601 23.6365 15.5555 23.6227 16.7967 23.5662C18.0355 23.5095 18.8821 23.3133 19.6224 23.0256C20.3875 22.7284 21.0358 22.3298 21.6823 21.6826C22.3296 21.0358 22.7272 20.3866 23.0253 19.6215C23.3114 18.8813 23.5078 18.0355 23.5659 16.7972C23.6217 15.556 23.6363 15.1604 23.6363 12.0001C23.6363 8.83989 23.6217 8.44328 23.5659 7.20207C23.5078 5.96328 23.3114 5.11771 23.0253 4.37783C22.7272 3.6125 22.3296 2.96328 21.6823 2.3165C21.035 1.66922 20.3878 1.27165 19.6217 0.974679C18.8799 0.686921 18.0338 0.4908 16.795 0.434073C15.5538 0.377588 15.1587 0.36377 11.9975 0.36377H12.0011ZM10.9572 2.46074C11.267 2.46025 11.6127 2.46074 12.0011 2.46074C15.108 2.46074 15.4763 2.47189 16.7032 2.52765C17.8377 2.57953 18.4535 2.7691 18.8636 2.92838C19.4067 3.13928 19.7938 3.39141 20.2009 3.79868C20.6081 4.20595 20.8603 4.59383 21.0716 5.13686C21.2309 5.54656 21.4207 6.16231 21.4724 7.29686C21.5281 8.52353 21.5403 8.89201 21.5403 11.9975C21.5403 15.1029 21.5281 15.4714 21.4724 16.6981C21.4205 17.8326 21.2309 18.4484 21.0716 18.8581C20.8607 19.4011 20.6081 19.7878 20.2009 20.1948C19.7936 20.6021 19.4069 20.8542 18.8636 21.0651C18.4539 21.2251 17.8377 21.4142 16.7032 21.4661C15.4765 21.5218 15.108 21.534 12.0011 21.534C8.89395 21.534 8.52571 21.5218 7.29904 21.4661C6.1645 21.4137 5.54874 21.2241 5.13831 21.0649C4.59528 20.854 4.20741 20.6018 3.80013 20.1946C3.39286 19.7873 3.14074 19.4004 2.92934 18.8571C2.77007 18.4474 2.58025 17.8316 2.52862 16.6971C2.47286 15.4704 2.46171 15.102 2.46171 11.9946C2.46171 8.88716 2.47286 8.52062 2.52862 7.29395C2.5805 6.15941 2.77007 5.54365 2.92934 5.13347C3.14025 4.59044 3.39286 4.20256 3.80013 3.79528C4.20741 3.38801 4.59528 3.13589 5.13831 2.9245C5.5485 2.7645 6.1645 2.57541 7.29904 2.52328C8.3725 2.4748 8.7885 2.46025 10.9572 2.45783V2.46074ZM18.2125 4.39286C17.4416 4.39286 16.8161 5.01759 16.8161 5.78874C16.8161 6.55965 17.4416 7.1851 18.2125 7.1851C18.9834 7.1851 19.6089 6.55965 19.6089 5.78874C19.6089 5.01783 18.9834 4.39238 18.2125 4.39238V4.39286ZM12.0011 6.02438C8.70098 6.02438 6.02534 8.70001 6.02534 12.0001C6.02534 15.3003 8.70098 17.9747 12.0011 17.9747C15.3012 17.9747 17.9759 15.3003 17.9759 12.0001C17.9759 8.70001 15.3012 6.02438 12.0011 6.02438ZM12.0011 8.12135C14.1432 8.12135 15.8799 9.85783 15.8799 12.0001C15.8799 14.1422 14.1432 15.8789 12.0011 15.8789C9.8588 15.8789 8.12231 14.1422 8.12231 12.0001C8.12231 9.85783 9.8588 8.12135 12.0011 8.12135Z" fill="white"/>
</svg>
