<svg width="152" height="35" viewBox="0 0 152 35" fill="none" xmlns="http://www.w3.org/2000/svg">
<rect width="152" height="35" fill="#11E332" fill-opacity="0.75"/>
<path d="M22.4 21.128V19.208H24.208V20.504L25.104 21.4H27.44L28.256 20.6V11.8H30.112V21.224L28.336 23H24.272L22.4 21.128ZM32.0363 21.4V16.632L33.6203 15.032H38.0363L39.6363 16.632V21.4L38.0363 23H33.6203L32.0363 21.4ZM37.1883 21.48L37.8283 20.84V17.192L37.1883 16.552H34.4843L33.8443 17.192V20.84L34.4843 21.48H37.1883ZM41.4756 13.32V12.392L42.1316 11.752H43.1076L43.7636 12.392V13.32L43.1076 13.96H42.1316L41.4756 13.32ZM41.7156 15.032H43.5236V23H41.7156V15.032ZM45.7588 15.032H47.4388V16.488L48.8948 15.032H51.4228L53.1028 16.712V23H51.2948V17.208L50.6708 16.584H49.2308L47.5668 18.264V23H45.7588V15.032ZM61.9456 13.384H58.5856V11.8H67.1616V13.384H63.8016V23H61.9456V13.384ZM68.5244 11.576H70.3324V16.408L71.7084 15.032H74.2204L75.9004 16.712V23H74.0924V17.208L73.4684 16.584H71.9964L70.3324 18.264V23H68.5244V11.576ZM77.7394 21.416V16.632L79.3234 15.032H83.6594L85.2754 16.632V19.608H79.5474V20.888L80.1554 21.496H82.8914L83.4674 20.904V20.424H85.2594V21.448L83.7074 23H79.3074L77.7394 21.416ZM83.4674 18.28V17.176L82.8434 16.536H80.1714L79.5474 17.176V18.28H83.4674ZM93.9613 13.384H90.6013V11.8H99.1773V13.384H95.8173V23H93.9613V13.384ZM98.9425 21.416V16.632L100.527 15.032H104.863L106.479 16.632V19.608H100.751V20.888L101.359 21.496H104.095L104.671 20.904V20.424H106.463V21.448L104.911 23H100.511L98.9425 21.416ZM104.671 18.28V17.176L104.047 16.536H101.375L100.751 17.176V18.28H104.671ZM108.081 21.576V19.688L109.505 18.28H113.617V17.096L113.025 16.504H110.513L109.921 17.096V17.608H108.145V16.68L109.777 15.032H113.761L115.393 16.68V23H113.745V21.768L112.465 23H109.505L108.081 21.576ZM112.289 21.576L113.617 20.296V19.624H110.369L109.857 20.12V21.096L110.337 21.576H112.289ZM117.399 15.032H119.079V16.424L120.455 15.032H122.439L123.575 16.184L124.727 15.032H127.415L129.047 16.68V23H127.239V17.208L126.615 16.584H125.127L124.199 17.512V23H122.439V17.192L121.831 16.584H120.743L119.207 18.136V23H117.399V15.032Z" fill="#000917"/>
</svg>
