<svg width="23" height="22" viewBox="0 0 23 22" fill="none" xmlns="http://www.w3.org/2000/svg">
<path fill-rule="evenodd" clip-rule="evenodd" d="M5.10336 21.7874V7.33761H0.300518V21.7874H5.10336ZM2.70192 5.36473C4.37676 5.36473 5.41922 4.25515 5.41922 2.86849C5.38801 1.45062 4.37677 0.371826 2.73369 0.371826C1.09078 0.371826 0.0166016 1.45062 0.0166016 2.86849C0.0166016 4.25515 1.05883 5.36473 2.67061 5.36473H2.70192Z" fill="white"/>
<path fill-rule="evenodd" clip-rule="evenodd" d="M7.76093 21.7874H12.5637V13.718C12.5637 13.2862 12.5949 12.8547 12.7218 12.546C13.069 11.6831 13.8592 10.7895 15.186 10.7895C16.9239 10.7895 17.6191 12.1146 17.6191 14.0571V21.7874H22.4216V13.5021C22.4216 9.06376 20.0521 6.99853 16.8922 6.99853C14.3012 6.99853 13.1637 8.44676 12.5318 9.4332H12.5639V7.33761H7.76106C7.82408 8.69348 7.76093 21.7874 7.76093 21.7874Z" fill="white"/>
</svg>
