<svg width="157" height="50" viewBox="0 0 157 50" fill="none" xmlns="http://www.w3.org/2000/svg">
<g filter="url(#filter0_d_89_56)">
<path d="M152.13 1H1V11.2029L3.55072 13.7536V32.2464L1 34.7971V45H152.13V34.7971L149.58 32.2464V13.7536L152.13 11.2029V1Z" fill="#000917" stroke="#00FF57" stroke-linejoin="round"/>
<path d="M32.9609 19.5703H31.625V26.1094H32.8672C34.5391 26.0938 35.3906 25.0078 35.4219 22.8516C35.4062 20.6953 34.5859 19.6016 32.9609 19.5703ZM33.9688 33H26.4688V32.3672H28.3438V19.5703H26.4688V18.9375H34.2969C35.3281 18.9375 36.2188 19.1172 36.9688 19.4766C38.2812 20.1172 38.9375 21.1719 38.9375 22.6406C38.9375 23.2344 38.8359 23.7734 38.6328 24.2578C37.9453 25.9609 36.25 26.8125 33.5469 26.8125H31.625V32.3672H33.3359C33.6641 32.3984 33.875 32.6094 33.9688 33ZM47.8719 33H40.8406V32.3672H42.7156V19.5703H40.8406V18.9375H48.6687C49.9187 18.9375 50.9812 19.2344 51.8562 19.8281C52.8875 20.5312 53.4031 21.4609 53.4031 22.6172C53.4031 22.9609 53.3562 23.2969 53.2625 23.625C52.8875 24.9531 51.8797 25.8438 50.2391 26.2969L53.8484 32.3906H54.1531C54.2312 32.3906 54.3094 32.3984 54.3875 32.4141C54.6375 32.4609 54.7625 32.6562 54.7625 33L50.6375 33.0234L47.1453 26.5781H45.9969V32.3672H47.8719V33ZM47.2625 19.5703H45.9969V25.875H47.45C47.9187 25.875 48.3328 25.7578 48.6922 25.5234C49.5047 25.0078 49.9109 24.0781 49.9109 22.7344C49.9109 22.2969 49.8562 21.875 49.7469 21.4688C49.3719 20.2031 48.5437 19.5703 47.2625 19.5703ZM63.4625 33H56.4312V32.3672H58.3062V19.5703H56.4312V18.9375H63.4625V19.5703H61.5875V32.3672H62.8297C63.1578 32.3984 63.3687 32.6094 63.4625 33ZM77.4359 33H65.6V32.4844L73.9906 19.5469L70.1469 19.5703C69.3656 19.5859 68.7328 20.0859 68.2484 21.0703L67.2641 23.1797H66.5609L66.725 18.9375H77.3422V19.4531L69.1391 32.3672H73.7797C74.8578 32.3203 75.6234 31.6641 76.0766 30.3984L76.7562 28.1484H77.4828L77.4359 33ZM91.55 23.4375H90.8703L90.3547 21.8203C90.3078 21.6797 90.2531 21.5391 90.1906 21.3984C89.7062 20.1797 88.8234 19.5703 87.5422 19.5703H84.8937V25.4062H89.3937V26.1094H84.8937V32.3672H87.5422C87.8391 32.3672 88.1203 32.3359 88.3859 32.2734C89.2766 32.0391 89.925 31.3203 90.3312 30.1172L90.8703 28.5H91.55L91.4562 33H79.7375V32.3672H81.6125V19.5703H79.7375V18.9375H91.4562L91.55 23.4375ZM105.922 29.0859C105.922 30.1172 105.555 30.9922 104.82 31.7109C103.758 32.7266 102.234 33.2344 100.25 33.2344C98.5469 33.2344 97.0938 32.8359 95.8906 32.0391C95.8906 32.3047 95.875 32.5156 95.8438 32.6719C95.7656 32.9219 95.5156 33.0469 95.0938 33.0469V28.0781H96.0078C96.0703 28.9062 96.2422 29.6406 96.5234 30.2812C97.1953 31.7969 98.3594 32.5547 100.016 32.5547C100.453 32.5547 100.852 32.4922 101.211 32.3672C102.211 31.9922 102.711 31.2422 102.711 30.1172C102.711 29.7891 102.641 29.4688 102.5 29.1562C102.172 28.5 101.336 27.8203 99.9922 27.1172C98.4922 26.3516 97.6484 25.9062 97.4609 25.7812C95.9766 24.8594 95.2344 23.75 95.2344 22.4531C95.2344 21.5781 95.5391 20.8203 96.1484 20.1797C97.1016 19.1953 98.5234 18.7031 100.414 18.7031C101.852 18.7031 103.219 19.0078 104.516 19.6172C104.516 19.4766 104.523 19.3516 104.539 19.2422C104.617 18.9453 104.875 18.7969 105.312 18.7969V23.0391H104.398C104.383 22.1953 104.18 21.4688 103.789 20.8594C103.148 19.8906 102.188 19.4062 100.906 19.4062C100.578 19.4062 100.266 19.4531 99.9688 19.5469C99.0781 19.8438 98.6328 20.4531 98.6328 21.375C98.6328 21.7344 98.7109 22.0781 98.8672 22.4062C99.1953 23.0781 100.016 23.7578 101.328 24.4453C102.766 25.2109 103.586 25.6484 103.789 25.7578C105.211 26.6797 105.922 27.7891 105.922 29.0859Z" fill="#00FF57"/>
</g>
<defs>
<filter id="filter0_d_89_56" x="0.5" y="0.5" width="156.13" height="49" filterUnits="userSpaceOnUse" color-interpolation-filters="sRGB">
<feFlood flood-opacity="0" result="BackgroundImageFix"/>
<feColorMatrix in="SourceAlpha" type="matrix" values="0 0 0 0 0 0 0 0 0 0 0 0 0 0 0 0 0 0 127 0" result="hardAlpha"/>
<feOffset dx="4" dy="4"/>
<feColorMatrix type="matrix" values="0 0 0 0 0 0 0 0 0 1 0 0 0 0 0.929412 0 0 0 1 0"/>
<feBlend mode="normal" in2="BackgroundImageFix" result="effect1_dropShadow_89_56"/>
<feBlend mode="normal" in="SourceGraphic" in2="effect1_dropShadow_89_56" result="shape"/>
</filter>
</defs>
</svg>
