<svg width="742" height="561" viewBox="0 0 742 561" fill="none" xmlns="http://www.w3.org/2000/svg">
<g filter="url(#filter0_b_2801_207)">
<path d="M346 0H0V19.5934L5.83966 24.4918V60.0048L0 64.9032V84.4966H346V64.9032L340.16 60.0048V24.4918L346 19.5934V0Z" fill="#11E332" fill-opacity="0.45"/>
<g filter="url(#filter1_b_2801_207)">
<path d="M125.728 28.3686C136.564 28.3686 138.04 45.3246 125.188 45.3246H120.292L120.328 52.1286C120.328 52.3086 120.364 52.4886 120.436 52.6326C120.472 52.7766 120.58 52.8846 120.724 52.9926C120.832 53.1006 121.012 53.1726 121.228 53.1726V53.4966H116.08V53.1726C116.296 53.1726 116.476 53.1006 116.62 52.9926C116.764 52.8846 116.836 52.7766 116.872 52.6326C116.944 52.4886 116.98 52.3086 116.98 52.1286V29.7726C116.98 29.5926 116.944 29.4126 116.872 29.2686C116.836 29.1606 116.764 29.0526 116.62 28.9446C116.476 28.8366 116.296 28.7646 116.08 28.7646V28.3686H125.728ZM124.9 44.7486C133.108 44.7486 132.892 28.9446 124.36 28.9446H120.292V44.7486H124.9ZM156.175 52.1286C156.427 52.5966 157.111 53.1726 157.687 53.1726V53.4966H152.107V53.1726C152.719 53.1726 152.683 52.5966 152.431 52.1286L147.751 43.3446C147.463 43.3806 147.175 43.3806 146.851 43.3806H141.955L141.991 52.1286C141.991 52.3086 142.027 52.4886 142.099 52.6326C142.135 52.7766 142.243 52.8846 142.387 52.9926C142.495 53.1006 142.675 53.1726 142.891 53.1726V53.4966H137.743V53.1726C137.959 53.1726 138.139 53.1006 138.283 52.9926C138.427 52.8846 138.499 52.7766 138.535 52.6326C138.607 52.4886 138.643 52.3086 138.643 52.1286V29.7726C138.643 29.5926 138.607 29.4126 138.535 29.2686C138.499 29.1606 138.427 29.0526 138.283 28.9446C138.139 28.8366 137.959 28.7646 137.743 28.7646V28.3686H147.391C156.823 28.3686 159.163 39.7806 151.099 42.6966C151.099 42.7326 151.135 42.7686 151.135 42.7686L156.175 52.1286ZM146.563 42.8046C154.771 42.8046 154.555 28.9446 146.023 28.9446H141.955V42.8046H146.563ZM165.926 28.7646C165.35 28.7646 165.026 29.2326 165.026 29.7726V52.1286C165.026 52.6686 165.35 53.1726 165.926 53.1726V53.4966H160.778V53.1726C161.39 53.1726 161.678 52.6686 161.678 52.1286V29.7726C161.678 29.1966 161.354 28.7646 160.778 28.7646V28.3686H165.926V28.7646ZM187.564 28.3686V28.9446L172.84 52.9566H183.892C185.692 52.9566 186.556 51.7686 186.88 50.1126H187.24L186.916 53.4966H169.132V52.9566L183.928 28.9446H172.768C170.932 28.9446 170.104 30.1686 169.78 31.8246H169.42L169.78 28.3686H187.564ZM207.809 50.1126H208.205L207.845 53.4966H190.745V53.1726C191.357 53.1726 191.645 52.6686 191.645 52.1286V29.7726C191.645 29.1966 191.321 28.7646 190.745 28.7646V28.4046H206.477L206.837 31.8246H206.441C206.153 30.0966 205.325 28.9446 203.489 28.9446H194.993V40.2126H197.693C199.025 40.1046 199.601 39.1326 199.601 37.9086H199.961V43.0926H199.601C199.601 41.7966 198.989 40.8606 197.693 40.7886H194.993V52.9566H204.821C206.657 52.9566 207.485 51.8046 207.809 50.1126ZM220.858 39.3126C224.458 40.9686 229.606 43.1286 229.57 47.7726C229.498 52.2006 224.314 53.8926 219.85 53.8926C216.538 53.8926 213.982 52.9206 211.642 50.6166L211.246 46.2246H211.606C212.686 50.5806 215.062 53.3166 219.922 53.3166C222.874 53.3166 226.546 52.5606 226.546 49.2126C226.546 46.6206 223.09 44.3166 221.002 43.3806L218.734 42.3726C215.422 40.8606 211.246 39.0606 211.246 34.7046C211.246 30.4206 215.674 28.0086 219.922 28.0086C222.766 27.9366 225.43 28.9446 227.518 30.9246L227.986 35.3526H227.59C226.654 31.1766 224.458 28.5846 219.994 28.5846C217.15 28.5846 214.018 29.8806 214.018 33.0846C214.018 36.5046 218.266 38.0886 220.858 39.3126Z" fill="white"/>
</g>
</g>
<path d="M685.5 262.824L535.922 262.824L501 296H366.421M417.578 206L262.5 207.156L224.5 240.001" stroke="#11E332"/>
<path d="M331.356 240.92L322.9 245.288V238.288L332.868 232.8H338.972V272H331.356V240.92ZM345.403 265.952V259.568H353.019V263.656L354.867 265.504H364.835L366.683 263.656V254.808L364.835 252.96H345.963V232.8H373.515V239.296H353.467V246.464H368.195L374.299 252.568V265.952L368.251 272H351.451L345.403 265.952ZM380.204 232.016H387.596V254.36H392.468L399.58 244.112H407.756L398.46 257.552L408.316 272H400.14L392.3 260.632H387.596V272H380.204V232.016Z" fill="white"/>
<path d="M277.1 253H279.02V267H277.1V253ZM282.117 253H283.917L290.857 263.84H290.897V253H292.737V267H290.937L283.997 256.16H283.957V267H282.117V253ZM306.01 262.6V267H304.09V263.08L302.43 261.3H297.65V267H295.73V253H303.99L305.93 254.94V259.3L304.39 260.84L306.01 262.6ZM297.65 259.66H303.13L304.03 258.78V255.52L303.13 254.64H297.65V259.66Z" fill="white"/>
<path d="M494.132 227.24L489.3 229.736V225.736L494.996 222.6H498.484V245H494.132V227.24ZM501.839 241.864V239.912H505.999V240.808L506.703 241.544H511.887L512.591 240.808V239.432L511.855 238.664H504.975L501.967 235.624V232.136L505.007 229.064H513.327L516.431 232.2V234.152H512.271V233.256L511.567 232.52H506.831L506.127 233.256V234.504L506.863 235.272H513.743L516.751 238.312V241.928L513.711 245H504.943L501.839 241.864ZM521.235 241.736V232.616H518.355V229.064H521.299V223.88H525.459V229.064H530.323V232.648H525.459V240.36L526.547 241.416H530.323V245H524.531L521.235 241.736ZM540.644 222.6H545.028L547.748 238.408H547.876L552.324 222.6H555.588L559.94 238.408H560.068L562.788 222.6H567.172L562.532 245H558.468L554.02 229.256H553.892L549.348 245H545.284L540.644 222.6ZM569.104 225.736V223.688L570.576 222.216H572.816L574.288 223.688V225.736L572.816 227.208H570.576L569.104 225.736ZM569.584 229.064H573.808V245H569.584V229.064ZM577.983 229.064H581.887V231.72L584.543 229.064H589.695L593.247 232.616V245H589.023V233.768L587.935 232.648H585.247L582.207 235.72V245H577.983V229.064ZM596.92 229.064H600.824V231.72L603.48 229.064H608.632L612.184 232.616V245H607.96V233.768L606.872 232.648H604.184L601.144 235.72V245H596.92V229.064ZM615.538 241.736V232.392L618.834 229.064H627.826L631.154 232.392V238.44H619.762V240.488L620.786 241.544H626.002L626.962 240.552V239.72H631.122V241.8L627.954 245H618.77L615.538 241.736ZM626.93 235.496V233.64L625.842 232.52H620.85L619.762 233.64V235.496H626.93ZM634.514 229.064H638.418V231.72L640.978 229.064H645.522V232.648H641.842L638.738 235.848V245H634.514V229.064Z" fill="white"/>
<path d="M688 394.824L538.422 394.824L503.5 428H366.421M417.578 338L262.5 339.156L224.5 372.001" stroke="#11E332"/>
<path d="M320.02 397.952V391.568H327.636V395.656L329.484 397.504H339.452L341.3 395.656V386.808L339.452 384.96H320.58V364.8H348.132V371.296H328.084V378.464H342.812L348.916 384.568V397.952L342.868 404H326.068L320.02 397.952ZM354.821 364.016H362.213V386.36H367.085L374.197 376.112H382.373L373.077 389.552L382.933 404H374.757L366.917 392.632H362.213V404H354.821V364.016Z" fill="white"/>
<path d="M275.1 385H277.02V399H275.1V385ZM280.117 385H281.917L288.857 395.84H288.897V385H290.737V399H288.937L281.997 388.16H281.957V399H280.117V385ZM304.01 394.6V399H302.09V395.08L300.43 393.3H295.65V399H293.73V385H301.99L303.93 386.94V391.3L302.39 392.84L304.01 394.6ZM295.65 391.66H301.13L302.03 390.78V387.52L301.13 386.64H295.65V391.66Z" fill="white"/>
<path d="M475.748 371.104L487.268 360.64V358.368L486.212 357.312H481.028L479.972 358.368V360.64H475.62V357.056L479.076 353.6H488.164L491.62 357.056V361.92L480.26 372.032V372.352H491.748V376H475.748V371.104ZM494.795 360.064H498.699V362.72L501.355 360.064H506.507L510.059 363.616V376H505.835V364.768L504.747 363.648H502.059L499.019 366.72V376H494.795V360.064ZM513.413 372.672V363.392L516.709 360.064H523.045L524.933 361.696V353.152H529.157V376H525.189V373.536L522.725 376H516.709L513.413 372.672ZM522.341 372.416L524.933 369.76V365.6L522.757 363.648H518.853L517.637 364.896V371.168L518.853 372.416H522.341ZM540.581 353.6H544.965L547.685 369.408H547.813L552.261 353.6H555.525L559.877 369.408H560.005L562.725 353.6H567.109L562.469 376H558.405L553.957 360.256H553.829L549.285 376H545.221L540.581 353.6ZM569.041 356.736V354.688L570.513 353.216H572.753L574.225 354.688V356.736L572.753 358.208H570.513L569.041 356.736ZM569.521 360.064H573.745V376H569.521V360.064ZM577.92 360.064H581.824V362.72L584.48 360.064H589.632L593.184 363.616V376H588.96V364.768L587.872 363.648H585.184L582.144 366.72V376H577.92V360.064ZM596.858 360.064H600.762V362.72L603.418 360.064H608.57L612.122 363.616V376H607.898V364.768L606.81 363.648H604.122L601.082 366.72V376H596.858V360.064ZM615.475 372.736V363.392L618.771 360.064H627.763L631.091 363.392V369.44H619.699V371.488L620.723 372.544H625.939L626.899 371.552V370.72H631.059V372.8L627.891 376H618.707L615.475 372.736ZM626.867 366.496V364.64L625.779 363.52H620.787L619.699 364.64V366.496H626.867ZM634.451 360.064H638.355V362.72L640.915 360.064H645.459V363.648H641.779L638.675 366.848V376H634.451V360.064Z" fill="white"/>
<path d="M686 526.824L536.422 526.824L501.5 560H364.421M415.578 470L260.5 471.156L222.5 504.001" stroke="#11E332"/>
<path d="M317.46 529.952V523.792H325.076V527.656L326.924 529.504H337.004L338.852 527.656V521.328L337.06 519.536H325.86V513.04H337.06L338.852 511.248V505.144L337.004 503.296H327.26L325.412 505.144V509.008H317.796V502.848L323.844 496.8H340.42L346.468 502.848V513.488L343.612 516.288L346.468 519.144V529.952L340.42 536H323.508L317.46 529.952ZM352.602 496.016H359.994V518.36H364.866L371.978 508.112H380.154L370.858 521.552L380.714 536H372.538L364.698 524.632H359.994V536H352.602V496.016Z" fill="white"/>
<path d="M273.1 517H275.02V531H273.1V517ZM278.117 517H279.917L286.857 527.84H286.897V517H288.737V531H286.937L279.997 520.16H279.957V531H278.117V517ZM302.01 526.6V531H300.09V527.08L298.43 525.3H293.65V531H291.73V517H299.99L301.93 518.94V523.3L300.39 524.84L302.01 526.6ZM293.65 523.66H299.13L300.03 522.78V519.52L299.13 518.64H293.65V523.66Z" fill="white"/>
<path d="M475.62 504.544V501.024H479.972V503.232L481.028 504.288H486.788L487.844 503.232V499.616L486.82 498.592H480.42V494.88H486.82L487.844 493.856V490.368L486.788 489.312H481.22L480.164 490.368V492.576H475.812V489.056L479.268 485.6H488.74L492.196 489.056V495.136L490.564 496.736L492.196 498.368V504.544L488.74 508H479.076L475.62 504.544ZM495.701 492.064H499.605V494.72L502.165 492.064H506.709V495.648H503.029L499.925 498.848V508H495.701V492.064ZM507.663 504.672V495.392L510.959 492.064H517.295L519.183 493.696V485.152H523.407V508H519.439V505.536L516.975 508H510.959L507.663 504.672ZM516.591 504.416L519.183 501.76V497.6L517.007 495.648H513.103L511.887 496.896V503.168L513.103 504.416H516.591ZM534.831 485.6H539.215L541.935 501.408H542.063L546.511 485.6H549.775L554.127 501.408H554.255L556.975 485.6H561.359L556.719 508H552.655L548.207 492.256H548.079L543.535 508H539.471L534.831 485.6ZM563.291 488.736V486.688L564.763 485.216H567.003L568.475 486.688V488.736L567.003 490.208H564.763L563.291 488.736ZM563.771 492.064H567.995V508H563.771V492.064ZM572.17 492.064H576.074V494.72L578.73 492.064H583.882L587.434 495.616V508H583.21V496.768L582.122 495.648H579.434L576.394 498.72V508H572.17V492.064ZM591.108 492.064H595.012V494.72L597.668 492.064H602.82L606.372 495.616V508H602.148V496.768L601.06 495.648H598.372L595.332 498.72V508H591.108V492.064ZM609.725 504.736V495.392L613.021 492.064H622.013L625.341 495.392V501.44H613.949V503.488L614.973 504.544H620.189L621.149 503.552V502.72H625.309V504.8L622.141 508H612.957L609.725 504.736ZM621.117 498.496V496.64L620.029 495.52H615.037L613.949 496.64V498.496H621.117ZM628.701 492.064H632.605V494.72L635.165 492.064H639.709V495.648H636.029L632.925 498.848V508H628.701V492.064Z" fill="white"/>
<path fill-rule="evenodd" clip-rule="evenodd" d="M170 315.372V531.75H191.207H212.554L212.722 532.647C212.97 533.97 214.719 535.627 216.201 535.943C218.01 536.329 219.464 535.909 220.741 534.632C222.712 532.661 222.712 529.84 220.741 527.869C219.464 526.592 218.01 526.172 216.201 526.558C214.719 526.874 212.97 528.531 212.722 529.853L212.554 530.75H191.582H171V315V99H170V315.372ZM178.61 118.188L178.61 137.125L191.659 153.438L204.707 169.75H390.909H577.11V183.113V196.477L576.226 196.896C573.266 198.301 572.624 202.278 574.978 204.632C576.255 205.909 577.709 206.328 579.519 205.942C581.119 205.601 582.711 204.01 583.052 202.409C583.647 199.621 582.015 197.077 579.266 196.506L577.86 196.215V182.607V169L391.422 168.987L204.985 168.974L192.172 152.925L179.36 136.875L179.36 118.063V99H178.61C178.61 99 178.61 101.521 178.61 118.188ZM188.112 117.938L188.114 136.625L198.174 149.055L208.235 161.484L474.547 161.492L740.86 161.5V264.625V367.75H719.513H698.166L697.997 366.853C697.749 365.53 696.001 363.874 694.519 363.558C692.709 363.172 691.255 363.592 689.979 364.869C688.008 366.839 688.008 369.661 689.979 371.632C691.255 372.909 692.709 373.328 694.519 372.942C696.001 372.626 697.749 370.97 697.997 369.647L698.166 368.75H720.013H741.86V264.75V160.75L475.193 160.688L208.526 160.625L198.693 148.502L188.86 136.379V117.815V99H188.112C188.112 99 188.11 101.492 188.112 117.938Z" fill="#11E332"/>
<defs>
<filter id="filter0_b_2801_207" x="-4" y="-4" width="354" height="92.4966" filterUnits="userSpaceOnUse" color-interpolation-filters="sRGB">
<feFlood flood-opacity="0" result="BackgroundImageFix"/>
<feGaussianBlur in="BackgroundImageFix" stdDeviation="2"/>
<feComposite in2="SourceAlpha" operator="in" result="effect1_backgroundBlur_2801_207"/>
<feBlend mode="normal" in="SourceGraphic" in2="effect1_backgroundBlur_2801_207" result="shape"/>
</filter>
<filter id="filter1_b_2801_207" x="112.08" y="23.9365" width="121.526" height="33.9561" filterUnits="userSpaceOnUse" color-interpolation-filters="sRGB">
<feFlood flood-opacity="0" result="BackgroundImageFix"/>
<feGaussianBlur in="BackgroundImageFix" stdDeviation="2"/>
<feComposite in2="SourceAlpha" operator="in" result="effect1_backgroundBlur_2801_207"/>
<feBlend mode="normal" in="SourceGraphic" in2="effect1_backgroundBlur_2801_207" result="shape"/>
</filter>
</defs>
</svg>
