<svg width="311" height="327" viewBox="0 0 311 327" fill="none" xmlns="http://www.w3.org/2000/svg">
<path d="M310 51.8237L186.422 51.8239L151.5 80H142.921M194.078 1.00003L39 2.15589L1 29.0008" stroke="#00FF57"/>
<path d="M61.9 54.816V45.696L64.924 42.672L62.38 40.128V31.584L67.564 26.4H82.06L87.244 31.584V40.128L84.7 42.672L87.724 45.696V54.816L82.54 60H67.084L61.9 54.816ZM79.036 40.224L80.716 38.544V33.648L79.036 31.968H70.588L68.908 33.648V38.544L70.588 40.224H79.036ZM79.516 54.432L81.196 52.752V47.376L79.516 45.696H70.108L68.428 47.376V52.752L70.108 54.432H79.516ZM92.7494 54.432V31.968L98.3174 26.4H113.197L118.765 31.968V54.432L113.197 60H98.3174L92.7494 54.432ZM110.125 54.432L112.237 52.32V34.08L110.125 31.968H101.389L99.2774 34.08V52.32L101.389 54.432H110.125ZM124.302 25.728H130.638V44.88H134.814L140.91 36.096H147.918L139.95 47.616L148.398 60H141.39L134.67 50.256H130.638V60H124.302V25.728Z" fill="white"/>
<path d="M18.1 46H20.02V60H18.1V46ZM23.1172 46H24.9172L31.8572 56.84H31.8972V46H33.7372V60H31.9372L24.9972 49.16H24.9572V60H23.1172V46ZM47.0105 55.6V60H45.0905V56.08L43.4305 54.3H38.6505V60H36.7305V46H44.9905L46.9305 47.94V52.3L45.3905 53.84L47.0105 55.6ZM38.6505 52.66H44.1305L45.0305 51.78V48.52L44.1305 47.64H38.6505V52.66Z" fill="white"/>
<path d="M190.724 21.68L187.1 23.552V20.552L191.372 18.2H193.988V35H190.724V21.68ZM196.504 32.648V31.184H199.624V31.856L200.152 32.408H204.04L204.568 31.856V30.824L204.016 30.248H198.856L196.6 27.968V25.352L198.88 23.048H205.12L207.448 25.4V26.864H204.328V26.192L203.8 25.64H200.248L199.72 26.192V27.128L200.272 27.704H205.432L207.688 29.984V32.696L205.408 35H198.832L196.504 32.648ZM211.051 32.552V25.712H208.891V23.048H211.099V19.16H214.219V23.048H217.867V25.736H214.219V31.52L215.035 32.312H217.867V35H213.523L211.051 32.552ZM225.608 18.2H228.896L230.936 30.056H231.032L234.368 18.2H236.816L240.08 30.056H240.176L242.216 18.2H245.504L242.024 35H238.976L235.64 23.192H235.544L232.136 35H229.088L225.608 18.2ZM246.953 20.552V19.016L248.057 17.912H249.737L250.841 19.016V20.552L249.737 21.656H248.057L246.953 20.552ZM247.313 23.048H250.481V35H247.313V23.048ZM253.612 23.048H256.54V25.04L258.532 23.048H262.396L265.06 25.712V35H261.892V26.576L261.076 25.736H259.06L256.78 28.04V35H253.612V23.048ZM267.815 23.048H270.743V25.04L272.735 23.048H276.599L279.263 25.712V35H276.095V26.576L275.279 25.736H273.263L270.983 28.04V35H267.815V23.048ZM281.778 32.552V25.544L284.25 23.048H290.994L293.49 25.544V30.08H284.946V31.616L285.714 32.408H289.626L290.346 31.664V31.04H293.466V32.6L291.09 35H284.202L281.778 32.552ZM290.322 27.872V26.48L289.506 25.64H285.762L284.946 26.48V27.872H290.322ZM296.01 23.048H298.938V25.04L300.858 23.048H304.266V25.736H301.506L299.178 28.136V35H296.01V23.048Z" fill="white"/>
<path d="M310 174.824L186.422 174.824L151.5 203H142.921M194.078 124L39 125.156L1 152.001" stroke="#00FF57"/>
<path d="M61.66 177.816V172.344H68.188V175.848L69.772 177.432H78.316L79.9 175.848V168.264L78.316 166.68H62.14V149.4H85.756V154.968H68.572V161.112H81.196L86.428 166.344V177.816L81.244 183H66.844L61.66 177.816ZM91.2494 177.432V154.968L96.8174 149.4H111.697L117.265 154.968V177.432L111.697 183H96.8174L91.2494 177.432ZM108.625 177.432L110.737 175.32V157.08L108.625 154.968H99.8894L97.7774 157.08V175.32L99.8894 177.432H108.625ZM122.802 148.728H129.138V167.88H133.314L139.41 159.096H146.418L138.45 170.616L146.898 183H139.89L133.17 173.256H129.138V183H122.802V148.728Z" fill="white"/>
<path d="M18.1 169H20.02V183H18.1V169ZM23.1172 169H24.9172L31.8572 179.84H31.8972V169H33.7372V183H31.9372L24.9972 172.16H24.9572V183H23.1172V169ZM47.0105 178.6V183H45.0905V179.08L43.4305 177.3H38.6505V183H36.7305V169H44.9905L46.9305 170.94V175.3L45.3905 176.84L47.0105 178.6ZM38.6505 175.66H44.1305L45.0305 174.78V171.52L44.1305 170.64H38.6505V175.66Z" fill="white"/>
<path d="M177.936 154.328L186.576 146.48V144.776L185.784 143.984H181.896L181.104 144.776V146.48H177.84V143.792L180.432 141.2H187.248L189.84 143.792V147.44L181.32 155.024V155.264H189.936V158H177.936V154.328ZM192.221 146.048H195.149V148.04L197.141 146.048H201.005L203.669 148.712V158H200.501V149.576L199.685 148.736H197.669L195.389 151.04V158H192.221V146.048ZM206.184 155.504V148.544L208.656 146.048H213.408L214.824 147.272V140.864H217.992V158H215.016V156.152L213.168 158H208.656L206.184 155.504ZM212.88 155.312L214.824 153.32V150.2L213.192 148.736H210.264L209.352 149.672V154.376L210.264 155.312H212.88ZM226.561 141.2H229.849L231.889 153.056H231.985L235.321 141.2H237.769L241.033 153.056H241.129L243.169 141.2H246.457L242.977 158H239.929L236.593 146.192H236.497L233.089 158H230.041L226.561 141.2ZM247.906 143.552V142.016L249.01 140.912H250.69L251.794 142.016V143.552L250.69 144.656H249.01L247.906 143.552ZM248.266 146.048H251.434V158H248.266V146.048ZM254.565 146.048H257.493V148.04L259.485 146.048H263.349L266.013 148.712V158H262.845V149.576L262.029 148.736H260.013L257.733 151.04V158H254.565V146.048ZM268.768 146.048H271.696V148.04L273.688 146.048H277.552L280.216 148.712V158H277.048V149.576L276.232 148.736H274.216L271.936 151.04V158H268.768V146.048ZM282.731 155.552V148.544L285.203 146.048H291.947L294.443 148.544V153.08H285.899V154.616L286.667 155.408H290.579L291.299 154.664V154.04H294.419V155.6L292.043 158H285.155L282.731 155.552ZM291.275 150.872V149.48L290.459 148.64H286.715L285.899 149.48V150.872H291.275ZM296.963 146.048H299.891V148.04L301.811 146.048H305.219V148.736H302.459L300.131 151.136V158H296.963V146.048Z" fill="white"/>
<path d="M310 297.824L186.422 297.824L151.5 326H142.921M194.078 247L39 248.156L1 275.001" stroke="#00FF57"/>
<path d="M61.18 300.816V295.536H67.708V298.848L69.292 300.432H77.932L79.516 298.848V293.424L77.98 291.888H68.38V286.32H77.98L79.516 284.784V279.552L77.932 277.968H69.58L67.996 279.552V282.864H61.468V277.584L66.652 272.4H80.86L86.044 277.584V286.704L83.596 289.104L86.044 291.552V300.816L80.86 306H66.364L61.18 300.816ZM91.0619 300.432V277.968L96.6299 272.4H111.51L117.078 277.968V300.432L111.51 306H96.6299L91.0619 300.432ZM108.438 300.432L110.55 298.32V280.08L108.438 277.968H99.7019L97.5899 280.08V298.32L99.7019 300.432H108.438ZM122.614 271.728H128.95V290.88H133.126L139.222 282.096H146.23L138.262 293.616L146.71 306H139.702L132.982 296.256H128.95V306H122.614V271.728Z" fill="white"/>
<path d="M18.1 292H20.02V306H18.1V292ZM23.1172 292H24.9172L31.8572 302.84H31.8972V292H33.7372V306H31.9372L24.9972 295.16H24.9572V306H23.1172V292ZM47.0105 301.6V306H45.0905V302.08L43.4305 300.3H38.6505V306H36.7305V292H44.9905L46.9305 293.94V298.3L45.3905 299.84L47.0105 301.6ZM38.6505 298.66H44.1305L45.0305 297.78V294.52L44.1305 293.64H38.6505V298.66Z" fill="white"/>
<path d="M180.34 278.408V275.768H183.604V277.424L184.396 278.216H188.716L189.508 277.424V274.712L188.74 273.944H183.94V271.16H188.74L189.508 270.392V267.776L188.716 266.984H184.54L183.748 267.776V269.432H180.484V266.792L183.076 264.2H190.18L192.772 266.792V271.352L191.548 272.552L192.772 273.776V278.408L190.18 281H182.932L180.34 278.408ZM195.401 269.048H198.329V271.04L200.249 269.048H203.657V271.736H200.897L198.569 274.136V281H195.401V269.048ZM204.372 278.504V271.544L206.844 269.048H211.596L213.012 270.272V263.864H216.18V281H213.204V279.152L211.356 281H206.844L204.372 278.504ZM211.068 278.312L213.012 276.32V273.2L211.38 271.736H208.452L207.54 272.672V277.376L208.452 278.312H211.068ZM224.748 264.2H228.036L230.076 276.056H230.172L233.508 264.2H235.956L239.22 276.056H239.316L241.356 264.2H244.644L241.164 281H238.116L234.78 269.192H234.684L231.276 281H228.228L224.748 264.2ZM246.093 266.552V265.016L247.197 263.912H248.877L249.981 265.016V266.552L248.877 267.656H247.197L246.093 266.552ZM246.453 269.048H249.621V281H246.453V269.048ZM252.753 269.048H255.681V271.04L257.673 269.048H261.537L264.201 271.712V281H261.033V272.576L260.217 271.736H258.201L255.921 274.04V281H252.753V269.048ZM266.956 269.048H269.884V271.04L271.876 269.048H275.74L278.404 271.712V281H275.236V272.576L274.42 271.736H272.404L270.124 274.04V281H266.956V269.048ZM280.919 278.552V271.544L283.391 269.048H290.135L292.631 271.544V276.08H284.087V277.616L284.855 278.408H288.767L289.487 277.664V277.04H292.607V278.6L290.231 281H283.343L280.919 278.552ZM289.463 273.872V272.48L288.647 271.64H284.903L284.087 272.48V273.872H289.463ZM295.151 269.048H298.079V271.04L299.999 269.048H303.407V271.736H300.647L298.319 274.136V281H295.151V269.048Z" fill="white"/>
</svg>
