<svg width="354" height="78" viewBox="0 0 354 78" fill="none" xmlns="http://www.w3.org/2000/svg">
<g filter="url(#filter0_b_54_37)">
<path d="M16.3345 77.9998L0 58.7999V0H16.3345L354 0.000160217V19.3769L349.916 26.8126V56.0625L354 58.5V78L16.3345 77.9998Z" fill="#11E332" fill-opacity="0.45"/>
<g filter="url(#filter1_b_54_37)">
<path d="M56.596 48.556C56.862 49.05 57.584 49.658 58.192 49.658V50H52.302V49.658C52.948 49.658 52.91 49.05 52.644 48.556L47.704 39.284C47.4 39.322 47.096 39.322 46.754 39.322H41.586L41.624 48.556C41.624 48.746 41.662 48.936 41.738 49.088C41.776 49.24 41.89 49.354 42.042 49.468C42.156 49.582 42.346 49.658 42.574 49.658V50H37.14V49.658C37.368 49.658 37.558 49.582 37.71 49.468C37.862 49.354 37.938 49.24 37.976 49.088C38.052 48.936 38.09 48.746 38.09 48.556V24.958C38.09 24.768 38.052 24.578 37.976 24.426C37.938 24.312 37.862 24.198 37.71 24.084C37.558 23.97 37.368 23.894 37.14 23.894V23.476H47.324C57.28 23.476 59.75 35.522 51.238 38.6C51.238 38.638 51.276 38.676 51.276 38.676L56.596 48.556ZM46.45 38.714C55.114 38.714 54.886 24.084 45.88 24.084H41.586V38.714H46.45ZM79.0861 46.428H79.5041L79.1241 50H61.0741V49.658C61.7201 49.658 62.0241 49.126 62.0241 48.556V24.958C62.0241 24.35 61.6821 23.894 61.0741 23.894V23.514H77.6801L78.0601 27.124H77.6421C77.3381 25.3 76.4641 24.084 74.5261 24.084H65.5581V35.978H68.4081C69.8141 35.864 70.4221 34.838 70.4221 33.546H70.8021V39.018H70.4221C70.4221 37.65 69.7761 36.662 68.4081 36.586H65.5581V49.43H75.9321C77.8701 49.43 78.7441 48.214 79.0861 46.428ZM98.4803 34.61C110.754 34.61 108.284 50.418 93.8063 50.418C76.3263 50.418 76.2883 23.096 93.8063 23.096C99.3163 23.096 103.078 25.832 105.13 29.518H101.178C99.4303 24.236 91.4123 22.412 86.4343 26.022C76.9723 32.824 86.2443 49.316 96.1243 49.316C106.08 49.316 104.522 35.37 97.4163 35.332C93.4263 35.294 90.0063 40.728 85.4463 38.98V38.486C90.5003 40.272 92.4763 34.61 98.4803 34.61ZM115.193 23.894C114.585 23.894 114.243 24.388 114.243 24.958V48.556C114.243 49.126 114.585 49.658 115.193 49.658V50H109.759V49.658C110.405 49.658 110.709 49.126 110.709 48.556V24.958C110.709 24.35 110.367 23.894 109.759 23.894V23.476H115.193V23.894ZM129.142 35.028C132.942 36.776 138.376 39.056 138.338 43.958C138.262 48.632 132.79 50.418 128.078 50.418C124.582 50.418 121.884 49.392 119.414 46.96L118.996 42.324H119.376C120.516 46.922 123.024 49.81 128.154 49.81C131.27 49.81 135.146 49.012 135.146 45.478C135.146 42.742 131.498 40.31 129.294 39.322L126.9 38.258C123.404 36.662 118.996 34.762 118.996 30.164C118.996 25.642 123.67 23.096 128.154 23.096C131.156 23.02 133.968 24.084 136.172 26.174L136.666 30.848H136.248C135.26 26.44 132.942 23.704 128.23 23.704C125.228 23.704 121.922 25.072 121.922 28.454C121.922 32.064 126.406 33.736 129.142 35.028ZM160.788 23.476L161.13 27.124H160.75C160.408 25.338 159.61 24.084 157.634 24.084H152.428V48.556C152.428 48.746 152.466 48.936 152.542 49.088C152.618 49.24 152.732 49.354 152.846 49.468C152.96 49.582 153.15 49.658 153.416 49.658V50H147.982V49.658C148.21 49.658 148.4 49.582 148.552 49.468C148.666 49.354 148.742 49.24 148.818 49.088C148.894 48.936 148.932 48.746 148.932 48.556V24.084H143.764C141.826 24.084 140.952 25.3 140.61 27.124H140.23L140.572 23.476H160.788ZM181.723 46.428H182.141L181.761 50H163.711V49.658C164.357 49.658 164.661 49.126 164.661 48.556V24.958C164.661 24.35 164.319 23.894 163.711 23.894V23.514H180.317L180.697 27.124H180.279C179.975 25.3 179.101 24.084 177.163 24.084H168.195V35.978H171.045C172.451 35.864 173.059 34.838 173.059 33.546H173.439V39.018H173.059C173.059 37.65 172.413 36.662 171.045 36.586H168.195V49.43H178.569C180.507 49.43 181.381 48.214 181.723 46.428ZM204.504 48.556C204.77 49.05 205.492 49.658 206.1 49.658V50H200.21V49.658C200.856 49.658 200.818 49.05 200.552 48.556L195.612 39.284C195.308 39.322 195.004 39.322 194.662 39.322H189.494L189.532 48.556C189.532 48.746 189.57 48.936 189.646 49.088C189.684 49.24 189.798 49.354 189.95 49.468C190.064 49.582 190.254 49.658 190.482 49.658V50H185.048V49.658C185.276 49.658 185.466 49.582 185.618 49.468C185.77 49.354 185.846 49.24 185.884 49.088C185.96 48.936 185.998 48.746 185.998 48.556V24.958C185.998 24.768 185.96 24.578 185.884 24.426C185.846 24.312 185.77 24.198 185.618 24.084C185.466 23.97 185.276 23.894 185.048 23.894V23.476H195.232C205.188 23.476 207.658 35.522 199.146 38.6C199.146 38.638 199.184 38.676 199.184 38.676L204.504 48.556ZM194.358 38.714C203.022 38.714 202.794 24.084 193.788 24.084H189.494V38.714H194.358ZM244.925 48.556C244.925 49.126 245.267 49.658 245.875 49.658V50H240.441V49.658C241.087 49.658 241.391 49.126 241.391 48.556V32.824C241.391 30.202 240.631 23.894 235.805 23.894C233.183 23.894 229.611 25.832 227.825 29.48V48.556C227.825 49.126 228.167 49.658 228.775 49.658V50H223.341V49.658C223.987 49.658 224.291 49.126 224.291 48.556V24.958C224.291 24.35 223.949 23.894 223.341 23.894V23.476H228.775V23.894C228.167 23.894 227.825 24.388 227.825 24.958V28.378C229.421 25.49 232.917 23.21 236.109 23.21C242.645 23.21 244.925 28.302 244.925 31.304V48.556ZM262.382 23.096C279.862 23.096 279.862 50.418 262.382 50.418C244.902 50.418 244.864 23.096 262.382 23.096ZM269.754 47.53C280.85 39.55 265.878 18.156 255.01 26.022C243.952 34.002 258.582 55.624 269.754 47.53ZM306.258 23.476H310.818V23.894C309.602 23.856 308.804 24.578 308.348 25.68L298.24 50.418H297.936L292.882 38.296C291.02 42.818 289.462 46.656 287.904 50.418H287.6L276.998 24.958C276.694 24.312 276.428 23.894 275.668 23.894V23.476H281.52V23.894C280.836 23.894 280.342 24.198 280.684 24.92L289.234 45.744L292.578 37.574L290.032 31.494C287.904 26.364 289.918 22.526 293.414 22.526C296.074 22.526 298.696 24.844 296.264 30.772C295.656 32.292 295.2 33.432 294.82 34.268C296.188 37.612 298.24 42.476 299.57 45.744L307.74 25.604C308.196 24.464 307.284 23.894 306.258 23.894V23.476ZM293.414 30.772C293.566 31.19 293.984 32.178 294.516 33.508L295.656 30.772C296.72 28.074 297.1 23.514 294.136 23.514C291.324 23.514 292.882 29.29 293.414 30.772ZM313.749 23.476H316.599L315.231 45.44H315.117L313.749 23.476ZM316.599 48.214C316.599 49.202 315.953 50 315.193 50C314.395 50 313.787 49.202 313.787 48.214C313.787 47.264 314.395 46.428 315.193 46.428C315.953 46.428 316.599 47.264 316.599 48.214Z" fill="#FEFEFF"/>
</g>
</g>
<defs>
<filter id="filter0_b_54_37" x="-4" y="-4" width="362" height="86" filterUnits="userSpaceOnUse" color-interpolation-filters="sRGB">
<feFlood flood-opacity="0" result="BackgroundImageFix"/>
<feGaussianBlur in="BackgroundImageFix" stdDeviation="2"/>
<feComposite in2="SourceAlpha" operator="in" result="effect1_backgroundBlur_54_37"/>
<feBlend mode="normal" in="SourceGraphic" in2="effect1_backgroundBlur_54_37" result="shape"/>
</filter>
<filter id="filter1_b_54_37" x="33.1401" y="14.1558" width="287.458" height="45.4683" filterUnits="userSpaceOnUse" color-interpolation-filters="sRGB">
<feFlood flood-opacity="0" result="BackgroundImageFix"/>
<feGaussianBlur in="BackgroundImageFix" stdDeviation="2"/>
<feComposite in2="SourceAlpha" operator="in" result="effect1_backgroundBlur_54_37"/>
<feBlend mode="normal" in="SourceGraphic" in2="effect1_backgroundBlur_54_37" result="shape"/>
</filter>
</defs>
</svg>
