<svg width="25" height="25" viewBox="0 0 25 25" fill="none" xmlns="http://www.w3.org/2000/svg">
<path d="M17.95 15C18.05 14.175 18.125 13.35 18.125 12.5C18.125 11.65 18.05 10.825 17.95 10H22.175C22.375 10.8 22.5 11.6375 22.5 12.5C22.5 13.3625 22.375 14.2 22.175 15M15.7375 21.95C16.4875 20.5625 17.0625 19.0625 17.4625 17.5H21.15C19.939 19.5853 18.0176 21.165 15.7375 21.95ZM15.425 15H9.575C9.45 14.175 9.375 13.35 9.375 12.5C9.375 11.65 9.45 10.8125 9.575 10H15.425C15.5375 10.8125 15.625 11.65 15.625 12.5C15.625 13.35 15.5375 14.175 15.425 15ZM12.5 22.45C11.4625 20.95 10.625 19.2875 10.1125 17.5H14.8875C14.375 19.2875 13.5375 20.95 12.5 22.45ZM7.5 7.5H3.85C5.04857 5.40902 6.96849 3.82686 9.25 3.05C8.5 4.4375 7.9375 5.9375 7.5 7.5ZM3.85 17.5H7.5C7.9375 19.0625 8.5 20.5625 9.25 21.95C6.97328 21.1646 5.05606 19.5846 3.85 17.5ZM2.825 15C2.625 14.2 2.5 13.3625 2.5 12.5C2.5 11.6375 2.625 10.8 2.825 10H7.05C6.95 10.825 6.875 11.65 6.875 12.5C6.875 13.35 6.95 14.175 7.05 15M12.5 2.5375C13.5375 4.0375 14.375 5.7125 14.8875 7.5H10.1125C10.625 5.7125 11.4625 4.0375 12.5 2.5375ZM21.15 7.5H17.4625C17.0713 5.95182 16.492 4.45737 15.7375 3.05C18.0375 3.8375 19.95 5.425 21.15 7.5ZM12.5 0C5.5875 0 0 5.625 0 12.5C0 15.8152 1.31696 18.9946 3.66116 21.3388C4.8219 22.4996 6.19989 23.4203 7.71646 24.0485C9.23303 24.6767 10.8585 25 12.5 25C15.8152 25 18.9946 23.683 21.3388 21.3388C23.683 18.9946 25 15.8152 25 12.5C25 10.8585 24.6767 9.23303 24.0485 7.71646C23.4203 6.19989 22.4996 4.8219 21.3388 3.66116C20.1781 2.50043 18.8001 1.57969 17.2835 0.951506C15.767 0.323322 14.1415 0 12.5 0Z" fill="white"/>
</svg>
